{"glyphs":{"0":{"ha":1419,"x_min":0,"x_max":0,"o":"m 340 -6 l 1078 -6 b 1336 247 1250 -6 1336 88 l 1336 725 b 1078 978 1336 885 1250 978 l 340 978 b 83 725 168 978 83 885 l 83 247 b 340 -6 83 88 168 -6 z m 385 167 b 279 263 319 167 279 192 l 279 710 b 385 806 279 781 319 806 l 1035 806 b 1140 710 1100 806 1140 781 l 1140 263 b 1035 167 1140 192 1100 167 z "},"1":{"ha":561,"x_min":0,"x_max":0,"o":"m 449 972 l 65 972 b 42 949 49 972 42 964 l 42 831 b 65 807 42 814 49 807 l 283 807 l 283 22 b 306 0 283 7 290 0 l 449 0 b 471 22 463 0 471 7 l 471 950 b 449 972 471 965 463 972 z "},"2":{"ha":1325,"x_min":0,"x_max":0,"o":"m 83 0 l 1231 0 b 1254 24 1246 0 1254 8 l 1254 142 b 1231 165 1254 158 1246 165 l 254 165 l 254 214 b 383 331 254 275 290 322 l 1053 394 b 1263 710 1240 413 1263 508 b 986 979 1263 857 1194 979 l 375 979 b 75 718 165 979 75 893 l 75 690 b 97 668 75 675 83 668 l 240 668 b 263 690 254 668 263 675 b 375 813 263 783 304 813 l 975 813 b 1075 710 1042 813 1075 775 b 974 549 1075 632 1081 558 l 303 485 b 63 168 104 467 63 326 l 63 21 b 83 0 63 7 69 0 z "},"3":{"ha":1321,"x_min":0,"x_max":0,"o":"m 1093 490 l 1093 506 b 1244 710 1192 529 1244 569 b 963 979 1244 857 1171 979 l 372 979 b 74 718 163 979 74 893 l 74 690 b 96 668 74 675 82 668 l 239 668 b 261 690 253 668 261 675 b 374 813 261 783 301 813 l 953 813 b 1057 710 1018 813 1057 775 b 933 581 1057 642 1056 581 l 356 581 b 332 557 339 581 332 572 l 332 439 b 356 415 332 422 339 415 l 933 415 b 1071 264 1056 415 1071 360 b 968 160 1071 199 1035 160 l 363 160 b 250 282 292 160 250 189 b 228 304 250 297 242 304 l 85 304 b 63 282 71 304 63 297 l 63 254 b 361 -7 63 79 151 -7 l 978 -7 b 1258 264 1188 -7 1258 117 b 1093 490 1258 433 1192 469 z "},"4":{"ha":1339,"x_min":0,"x_max":0,"o":"m 1256 354 l 1158 354 l 1158 551 b 1136 572 1158 565 1150 572 l 988 572 b 967 551 974 572 967 565 l 967 354 l 315 354 l 317 361 l 903 943 b 890 972 917 958 908 972 l 711 972 b 675 957 696 972 686 968 l 78 363 b 64 318 63 347 61 336 l 83 201 b 106 188 86 189 97 188 l 967 188 l 967 21 b 988 0 967 7 974 0 l 1136 0 b 1158 21 1150 0 1158 7 l 1158 188 l 1256 188 b 1276 208 1269 188 1276 194 l 1276 333 b 1256 354 1276 347 1269 354 z "},"5":{"ha":1324,"x_min":0,"x_max":0,"o":"m 368 -7 l 971 -7 b 1254 279 1181 -7 1254 106 l 1254 356 b 989 646 1254 503 1208 646 l 442 646 b 276 583 365 646 299 617 l 267 583 l 292 807 l 1171 807 b 1194 831 1188 807 1194 814 l 1194 949 b 1171 972 1194 964 1188 972 l 150 972 b 129 951 136 972 131 965 l 79 439 b 101 414 78 422 85 414 l 264 414 b 374 479 279 444 304 479 l 954 479 b 1067 358 1022 479 1067 451 l 1067 279 b 961 160 1067 186 1026 160 l 369 160 b 257 282 299 160 257 189 b 235 304 257 297 249 304 l 92 304 b 69 282 78 304 69 297 l 69 254 b 368 -7 69 79 158 -7 z "},"6":{"ha":1376,"x_min":0,"x_max":0,"o":"m 369 -7 l 1019 -7 b 1307 279 1222 -7 1307 106 l 1307 319 b 1040 608 1307 467 1261 608 l 439 608 b 282 549 374 608 304 579 l 269 549 l 271 710 b 369 813 271 775 303 813 l 983 813 b 1097 728 1056 813 1097 797 b 1119 706 1097 713 1106 706 l 1263 706 b 1285 728 1278 706 1285 713 l 1285 756 b 986 979 1285 907 1197 979 l 361 979 b 83 710 151 979 83 857 l 83 279 b 369 -7 83 106 167 -7 z m 383 160 b 271 279 317 160 271 186 l 271 322 b 383 442 271 415 317 442 l 1007 442 b 1119 322 1074 442 1119 415 l 1119 279 b 1007 160 1119 186 1074 160 z "},"7":{"ha":1281,"x_min":0,"x_max":0,"o":"m 1211 815 l 1211 951 b 1189 972 1211 965 1203 972 l 90 972 b 69 951 76 972 69 965 l 69 818 b 90 797 69 804 76 797 l 950 797 l 950 776 l 96 33 b 104 0 82 22 85 0 l 307 0 b 356 22 326 0 339 8 l 1189 765 b 1211 815 1207 782 1211 793 z "},"8":{"ha":1456,"x_min":0,"x_max":0,"o":"m 1232 532 b 1339 717 1307 565 1339 622 b 1068 979 1339 889 1258 979 l 388 979 b 117 717 196 979 117 889 b 222 532 117 622 149 565 b 83 317 122 496 83 426 l 83 269 b 369 -7 83 106 167 -7 l 1085 -7 b 1372 268 1288 -7 1372 106 l 1372 317 b 1232 532 1372 426 1332 496 z m 400 821 l 1056 821 b 1161 717 1147 821 1161 775 b 1056 614 1161 660 1147 614 l 400 614 b 293 717 308 614 293 660 b 400 821 293 775 308 821 z m 1185 268 b 1072 160 1185 186 1139 160 l 383 160 b 271 268 317 160 271 186 l 271 317 b 383 435 271 408 317 435 l 1072 435 b 1185 317 1139 435 1185 408 z "},"9":{"ha":1376,"x_min":0,"x_max":0,"o":"m 1019 979 l 369 979 b 83 693 167 979 83 867 l 83 653 b 350 364 83 506 129 364 l 951 364 b 1107 424 1017 364 1085 393 l 1119 424 l 1119 263 b 1021 160 1119 197 1086 160 l 407 160 b 292 244 333 160 292 175 b 269 267 292 260 283 267 l 126 267 b 104 244 113 267 104 260 l 104 217 b 404 -7 104 65 193 -7 l 1029 -7 b 1307 263 1238 -7 1307 115 l 1307 693 b 1019 979 1307 867 1222 979 z m 1007 813 b 1119 693 1074 813 1119 786 l 1119 650 b 1007 531 1119 557 1074 531 l 383 531 b 271 650 315 531 271 557 l 271 693 b 383 813 271 786 315 813 z "},"A":{"ha":1538,"x_min":0,"x_max":0,"o":"m 1478 28 l 881 950 b 851 972 872 964 865 972 l 688 972 b 657 950 672 972 665 964 l 60 28 b 72 0 49 11 58 0 l 250 0 b 282 24 267 0 272 8 l 371 161 l 1167 161 l 1256 24 b 1288 0 1265 8 1272 0 l 1467 0 b 1478 28 1481 0 1490 11 z m 479 329 l 760 765 l 778 765 l 1058 329 z "},"Á":{"ha":1538,"x_min":0,"x_max":0,"o":"m 715 1040 l 838 1040 b 872 1065 851 1040 864 1051 l 996 1225 b 989 1250 1008 1240 1003 1250 l 797 1250 b 768 1225 783 1250 776 1242 l 703 1065 b 715 1040 694 1049 700 1040 z m 1478 28 l 881 950 b 851 972 872 964 865 972 l 688 972 b 657 950 672 972 665 964 l 60 28 b 72 0 49 11 58 0 l 250 0 b 282 24 267 0 272 8 l 371 161 l 1167 161 l 1256 24 b 1288 0 1265 8 1272 0 l 1467 0 b 1478 28 1481 0 1490 11 z m 479 329 l 760 765 l 778 765 l 1058 329 z "},"Ă":{"ha":1538,"x_min":0,"x_max":0,"o":"m 724 1024 l 814 1024 b 1010 1228 949 1024 1010 1090 b 989 1250 1010 1242 1003 1250 l 879 1250 b 858 1228 865 1250 860 1242 b 786 1151 853 1189 843 1151 l 751 1151 b 679 1228 694 1151 683 1189 b 657 1250 678 1242 671 1250 l 549 1250 b 526 1228 535 1250 526 1242 b 724 1024 526 1090 588 1024 z m 1478 28 l 881 950 b 851 972 872 964 865 972 l 688 972 b 657 950 672 972 665 964 l 60 28 b 72 0 49 11 58 0 l 250 0 b 282 24 267 0 272 8 l 371 161 l 1167 161 l 1256 24 b 1288 0 1265 8 1272 0 l 1467 0 b 1478 28 1481 0 1490 11 z m 479 329 l 760 765 l 778 765 l 1058 329 z "},"Ǎ":{"ha":1538,"x_min":0,"x_max":0,"o":"m 653 1060 b 692 1039 664 1046 676 1039 l 846 1039 b 885 1060 861 1039 874 1047 l 1026 1222 b 1015 1250 1039 1235 1029 1250 l 878 1250 b 833 1222 857 1250 846 1239 l 776 1154 l 763 1154 l 706 1222 b 660 1250 692 1239 681 1250 l 524 1250 b 511 1222 510 1250 500 1235 z m 1478 28 l 881 950 b 851 972 872 964 865 972 l 688 972 b 657 950 672 972 665 964 l 60 28 b 72 0 49 11 58 0 l 250 0 b 282 24 267 0 272 8 l 371 161 l 1167 161 l 1256 24 b 1288 0 1265 8 1272 0 l 1467 0 b 1478 28 1481 0 1490 11 z m 479 329 l 760 765 l 778 765 l 1058 329 z "},"Â":{"ha":1538,"x_min":0,"x_max":0,"o":"m 524 1039 l 660 1039 b 706 1068 681 1039 692 1051 l 763 1135 l 776 1135 l 833 1068 b 878 1039 846 1051 857 1039 l 1015 1039 b 1026 1067 1029 1039 1039 1054 l 885 1231 b 846 1250 874 1242 861 1250 l 692 1250 b 653 1231 676 1250 664 1244 l 511 1067 b 524 1039 500 1054 510 1039 z m 1478 28 l 881 950 b 851 972 872 964 865 972 l 688 972 b 657 950 672 972 665 964 l 60 28 b 72 0 49 11 58 0 l 250 0 b 282 24 267 0 272 8 l 371 161 l 1167 161 l 1256 24 b 1288 0 1265 8 1272 0 l 1467 0 b 1478 28 1481 0 1490 11 z m 479 329 l 760 765 l 778 765 l 1058 329 z "},"Ä":{"ha":1538,"x_min":0,"x_max":0,"o":"m 508 1058 l 656 1058 b 678 1081 669 1058 678 1067 l 678 1228 b 656 1250 678 1242 669 1250 l 508 1250 b 486 1228 494 1250 486 1242 l 486 1081 b 508 1058 486 1067 494 1058 z m 860 1058 l 1007 1058 b 1029 1081 1021 1058 1029 1067 l 1029 1228 b 1007 1250 1029 1242 1021 1250 l 860 1250 b 838 1228 846 1250 838 1242 l 838 1081 b 860 1058 838 1067 846 1058 z m 1478 28 l 881 950 b 851 972 872 964 865 972 l 688 972 b 657 950 672 972 665 964 l 60 28 b 72 0 49 11 58 0 l 250 0 b 282 24 267 0 272 8 l 371 161 l 1167 161 l 1256 24 b 1288 0 1265 8 1272 0 l 1467 0 b 1478 28 1481 0 1490 11 z m 479 329 l 760 765 l 778 765 l 1058 329 z "},"À":{"ha":1538,"x_min":0,"x_max":0,"o":"m 669 1067 b 703 1040 678 1053 689 1040 l 825 1040 b 839 1065 840 1040 847 1049 l 772 1225 b 743 1250 765 1242 757 1250 l 560 1250 b 546 1225 544 1250 533 1240 z m 1478 28 l 881 950 b 851 972 872 964 865 972 l 688 972 b 657 950 672 972 665 964 l 60 28 b 72 0 49 11 58 0 l 250 0 b 282 24 267 0 272 8 l 371 161 l 1167 161 l 1256 24 b 1288 0 1265 8 1272 0 l 1467 0 b 1478 28 1481 0 1490 11 z m 479 329 l 760 765 l 778 765 l 1058 329 z "},"Ā":{"ha":1538,"x_min":0,"x_max":0,"o":"m 544 1082 l 994 1082 b 1015 1103 1007 1082 1015 1089 l 1015 1229 b 994 1250 1015 1243 1007 1250 l 544 1250 b 524 1229 531 1250 524 1243 l 524 1103 b 544 1082 524 1089 531 1082 z m 1478 28 l 881 950 b 851 972 872 964 865 972 l 688 972 b 657 950 672 972 665 964 l 60 28 b 72 0 49 11 58 0 l 250 0 b 282 24 267 0 272 8 l 371 161 l 1167 161 l 1256 24 b 1288 0 1265 8 1272 0 l 1467 0 b 1478 28 1481 0 1490 11 z m 479 329 l 760 765 l 778 765 l 1058 329 z "},"Ą":{"ha":1583,"x_min":0,"x_max":0,"o":"m 1518 -37 l 1482 22 l 1478 28 l 881 950 b 851 972 872 964 865 972 l 688 972 b 657 950 672 972 665 964 l 60 28 b 72 0 49 11 58 0 l 250 0 b 282 24 267 0 272 8 l 371 161 l 1167 161 l 1256 24 b 1276 1 1263 13 1268 6 l 1278 0 b 1226 -35 1296 -26 1256 -31 l 1179 -40 b 1082 -161 1104 -49 1082 -68 b 1226 -287 1082 -268 1114 -287 l 1429 -287 b 1443 -274 1439 -287 1443 -282 l 1443 -185 b 1429 -167 1443 -175 1438 -167 l 1261 -167 b 1249 -157 1253 -167 1249 -162 b 1264 -144 1249 -150 1251 -146 l 1475 -122 b 1518 -37 1507 -119 1547 -89 z m 479 329 l 760 765 l 778 765 l 1058 329 z "},"Å":{"ha":1538,"x_min":0,"x_max":0,"o":"m 760 1025 l 778 1025 b 894 1140 846 1025 894 1075 l 894 1156 b 778 1272 894 1221 846 1272 l 760 1272 b 643 1156 692 1272 643 1221 l 643 1140 b 760 1025 643 1075 692 1025 z m 740 1154 b 763 1176 740 1165 751 1176 l 775 1176 b 799 1154 789 1176 799 1165 l 799 1144 b 775 1121 799 1133 789 1121 l 763 1121 b 740 1144 751 1121 740 1133 z m 1478 28 l 881 950 b 851 972 872 964 865 972 l 688 972 b 657 950 672 972 665 964 l 60 28 b 72 0 49 11 58 0 l 250 0 b 282 24 267 0 272 8 l 371 161 l 1167 161 l 1256 24 b 1288 0 1265 8 1272 0 l 1467 0 b 1478 28 1481 0 1490 11 z m 479 329 l 760 765 l 778 765 l 1058 329 z "},"Ã":{"ha":1538,"x_min":0,"x_max":0,"o":"m 563 1074 b 590 1068 567 1065 576 1060 b 675 1094 622 1088 639 1094 b 858 1040 742 1094 760 1040 b 1000 1089 906 1040 949 1050 b 1014 1122 1011 1099 1019 1107 l 974 1224 b 947 1231 969 1232 960 1238 b 861 1203 913 1213 897 1203 b 678 1257 794 1203 776 1257 b 536 1208 631 1257 588 1249 b 522 1175 525 1200 517 1190 z m 1478 28 l 881 950 b 851 972 872 964 865 972 l 688 972 b 657 950 672 972 665 964 l 60 28 b 72 0 49 11 58 0 l 250 0 b 282 24 267 0 272 8 l 371 161 l 1167 161 l 1256 24 b 1288 0 1265 8 1272 0 l 1467 0 b 1478 28 1481 0 1490 11 z m 479 329 l 760 765 l 778 765 l 1058 329 z "},"Æ":{"ha":2224,"x_min":0,"x_max":0,"o":"m 2126 172 l 1207 172 l 1207 400 l 2106 400 b 2126 421 2119 400 2126 407 l 2126 551 b 2106 572 2126 565 2119 572 l 1207 572 l 1207 800 l 2119 800 b 2140 821 2133 800 2140 807 l 2140 951 b 2119 972 2140 965 2133 972 l 1018 972 b 982 951 1003 972 994 965 l 61 26 b 71 0 49 13 57 0 l 265 0 b 306 26 281 0 293 13 l 439 161 l 1011 161 l 1011 21 b 1032 0 1011 7 1018 0 l 2126 0 b 2147 21 2140 0 2147 7 l 2147 151 b 2126 172 2147 165 2140 172 z m 603 328 l 1011 743 l 1011 328 z "},"B":{"ha":1381,"x_min":0,"x_max":0,"o":"m 1179 496 l 1179 514 b 1269 699 1244 546 1269 608 l 1269 724 b 1007 972 1269 894 1188 972 l 111 972 b 90 951 97 972 90 965 l 90 21 b 111 0 90 7 97 0 l 1014 0 b 1304 264 1214 0 1304 93 l 1304 318 b 1179 496 1304 403 1265 463 z m 1078 703 l 1078 674 b 982 574 1078 588 1039 574 l 286 574 l 286 800 l 982 800 b 1078 703 1039 800 1078 793 z m 1113 269 b 1000 172 1113 193 1075 172 l 286 172 l 286 419 l 1000 419 b 1113 319 1075 419 1113 394 z "},"C":{"ha":1413,"x_min":0,"x_max":0,"o":"m 1163 633 l 1313 633 b 1336 656 1328 633 1336 640 l 1336 725 b 1089 978 1336 885 1261 978 l 340 978 b 83 725 168 978 83 885 l 83 247 b 340 -6 83 88 168 -6 l 1089 -6 b 1336 247 1261 -6 1336 86 l 1336 283 b 1313 306 1336 299 1328 306 l 1163 306 b 1140 283 1149 306 1140 299 l 1140 263 b 1047 167 1140 190 1113 167 l 385 167 b 279 263 319 167 279 192 l 279 710 b 385 806 279 781 319 806 l 1049 806 b 1140 710 1114 806 1140 781 l 1140 656 b 1163 633 1140 640 1149 633 z "},"Ć":{"ha":1374,"x_min":0,"x_max":0,"o":"m 690 1225 l 625 1065 b 638 1040 617 1049 622 1040 l 760 1040 b 796 1065 774 1040 786 1051 l 918 1225 b 911 1250 931 1240 925 1250 l 719 1250 b 690 1225 706 1250 699 1242 z m 1163 633 l 1313 633 b 1336 656 1328 633 1336 640 l 1336 725 b 1089 978 1336 885 1261 978 l 340 978 b 83 725 168 978 83 885 l 83 247 b 340 -6 83 88 168 -6 l 1089 -6 b 1336 247 1261 -6 1336 86 l 1336 283 b 1313 306 1336 299 1328 306 l 1163 306 b 1140 283 1149 306 1140 299 l 1140 263 b 1047 167 1140 190 1113 167 l 385 167 b 279 263 319 167 279 192 l 279 710 b 385 806 279 781 319 806 l 1049 806 b 1140 710 1114 806 1140 781 l 1140 656 b 1163 633 1140 640 1149 633 z "},"Č":{"ha":1374,"x_min":0,"x_max":0,"o":"m 611 1039 l 765 1039 b 804 1060 781 1039 793 1047 l 947 1222 b 935 1250 958 1235 949 1250 l 797 1250 b 753 1222 776 1250 767 1239 l 696 1154 l 682 1154 l 625 1222 b 579 1250 611 1239 601 1250 l 443 1250 b 431 1222 429 1250 419 1235 l 574 1060 b 611 1039 583 1046 596 1039 z m 1163 633 l 1313 633 b 1336 656 1328 633 1336 640 l 1336 725 b 1089 978 1336 885 1261 978 l 340 978 b 83 725 168 978 83 885 l 83 247 b 340 -6 83 88 168 -6 l 1089 -6 b 1336 247 1261 -6 1336 86 l 1336 283 b 1313 306 1336 299 1328 306 l 1163 306 b 1140 283 1149 306 1140 299 l 1140 263 b 1047 167 1140 190 1113 167 l 385 167 b 279 263 319 167 279 192 l 279 710 b 385 806 279 781 319 806 l 1049 806 b 1140 710 1114 806 1140 781 l 1140 656 b 1163 633 1140 640 1149 633 z "},"Ç":{"ha":1374,"x_min":0,"x_max":0,"o":"m 1163 633 l 1313 633 b 1336 656 1328 633 1336 640 l 1336 725 b 1089 978 1336 885 1261 978 l 340 978 b 83 725 168 978 83 885 l 83 247 b 340 -6 83 88 168 -6 l 650 -6 b 593 -82 610 -42 593 -56 b 649 -131 593 -117 618 -128 b 790 -164 769 -142 790 -146 b 753 -182 790 -178 775 -182 l 726 -182 b 693 -168 710 -182 697 -174 b 676 -154 690 -160 686 -154 l 565 -154 b 550 -174 553 -154 550 -161 b 674 -287 550 -240 582 -287 l 794 -287 b 932 -162 885 -287 932 -240 b 811 -37 932 -76 908 -47 b 806 -6 783 -36 754 -31 l 1089 -6 b 1336 247 1261 -6 1336 86 l 1336 283 b 1313 306 1336 299 1328 306 l 1163 306 b 1140 283 1149 306 1140 299 l 1140 263 b 1047 167 1140 190 1113 167 l 385 167 b 279 263 319 167 279 192 l 279 710 b 385 806 279 781 319 806 l 1049 806 b 1140 710 1114 806 1140 781 l 1140 656 b 1163 633 1140 640 1149 633 z "},"Ċ":{"ha":1374,"x_min":0,"x_max":0,"o":"m 619 1058 l 767 1058 b 789 1081 781 1058 789 1067 l 789 1228 b 767 1250 789 1242 781 1250 l 619 1250 b 597 1228 606 1250 597 1242 l 597 1081 b 619 1058 597 1067 606 1058 z m 1163 633 l 1313 633 b 1336 656 1328 633 1336 640 l 1336 725 b 1089 978 1336 885 1261 978 l 340 978 b 83 725 168 978 83 885 l 83 247 b 340 -6 83 88 168 -6 l 1089 -6 b 1336 247 1261 -6 1336 86 l 1336 283 b 1313 306 1336 299 1328 306 l 1163 306 b 1140 283 1149 306 1140 299 l 1140 263 b 1047 167 1140 190 1113 167 l 385 167 b 279 263 319 167 279 192 l 279 710 b 385 806 279 781 319 806 l 1049 806 b 1140 710 1114 806 1140 781 l 1140 656 b 1163 633 1140 640 1149 633 z "},"D":{"ha":1456,"x_min":0,"x_max":0,"o":"m 1124 972 l 111 972 b 90 951 97 972 90 965 l 90 21 b 111 0 90 7 97 0 l 1124 0 b 1372 253 1296 0 1372 93 l 1372 719 b 1124 972 1372 879 1296 972 z m 1178 268 b 1081 172 1178 197 1147 172 l 286 172 l 286 800 l 1081 800 b 1178 706 1147 800 1178 775 z "},"Ð":{"ha":1488,"x_min":0,"x_max":0,"o":"m 1156 972 l 144 972 b 124 951 131 972 124 965 l 124 592 l 31 592 b 7 568 14 592 7 585 l 7 450 b 31 426 7 435 14 426 l 124 426 l 124 21 b 144 0 124 7 131 0 l 1156 0 b 1404 253 1328 0 1404 93 l 1404 719 b 1156 972 1404 879 1328 972 z m 1211 268 b 1114 172 1211 197 1181 172 l 318 172 l 318 426 l 417 426 b 440 450 433 426 440 435 l 440 568 b 417 592 440 585 433 592 l 318 592 l 318 800 l 1114 800 b 1211 706 1181 800 1211 775 z "},"Ď":{"ha":1456,"x_min":0,"x_max":0,"o":"m 611 1060 b 650 1039 622 1046 635 1039 l 804 1039 b 843 1060 819 1039 832 1047 l 985 1222 b 974 1250 997 1235 988 1250 l 836 1250 b 792 1222 815 1250 804 1239 l 735 1154 l 721 1154 l 664 1222 b 618 1250 650 1239 639 1250 l 482 1250 b 469 1222 468 1250 458 1235 z m 1124 972 l 111 972 b 90 951 97 972 90 965 l 90 21 b 111 0 90 7 97 0 l 1124 0 b 1372 253 1296 0 1372 93 l 1372 719 b 1124 972 1372 879 1296 972 z m 1178 268 b 1081 172 1178 197 1147 172 l 286 172 l 286 800 l 1081 800 b 1178 706 1147 800 1178 775 z "},"Đ":{"ha":1488,"x_min":0,"x_max":0,"o":"m 1156 972 l 144 972 b 124 951 131 972 124 965 l 124 592 l 31 592 b 7 568 14 592 7 585 l 7 450 b 31 426 7 435 14 426 l 124 426 l 124 21 b 144 0 124 7 131 0 l 1156 0 b 1404 253 1328 0 1404 93 l 1404 719 b 1156 972 1404 879 1328 972 z m 1211 268 b 1114 172 1211 197 1181 172 l 318 172 l 318 426 l 417 426 b 440 450 433 426 440 435 l 440 568 b 417 592 440 585 433 592 l 318 592 l 318 800 l 1114 800 b 1211 706 1181 800 1211 775 z "},"E":{"ha":1303,"x_min":0,"x_max":0,"o":"m 1206 172 l 286 172 l 286 400 l 1185 400 b 1206 421 1199 400 1206 407 l 1206 551 b 1185 572 1206 565 1199 572 l 286 572 l 286 800 l 1199 800 b 1219 821 1213 800 1219 807 l 1219 951 b 1199 972 1219 965 1213 972 l 111 972 b 90 951 97 972 90 965 l 90 21 b 111 0 90 7 97 0 l 1206 0 b 1226 21 1219 0 1226 7 l 1226 151 b 1206 172 1226 165 1219 172 z "},"É":{"ha":1303,"x_min":0,"x_max":0,"o":"m 611 1040 l 733 1040 b 768 1065 747 1040 760 1051 l 892 1225 b 885 1250 904 1240 899 1250 l 693 1250 b 664 1225 679 1250 672 1242 l 599 1065 b 611 1040 590 1049 596 1040 z m 1206 172 l 286 172 l 286 400 l 1185 400 b 1206 421 1199 400 1206 407 l 1206 551 b 1185 572 1206 565 1199 572 l 286 572 l 286 800 l 1199 800 b 1219 821 1213 800 1219 807 l 1219 951 b 1199 972 1219 965 1213 972 l 111 972 b 90 951 97 972 90 965 l 90 21 b 111 0 90 7 97 0 l 1206 0 b 1226 21 1219 0 1226 7 l 1226 151 b 1206 172 1226 165 1219 172 z "},"Ě":{"ha":1303,"x_min":0,"x_max":0,"o":"m 550 1060 b 589 1039 561 1046 574 1039 l 743 1039 b 782 1060 758 1039 771 1047 l 924 1222 b 913 1250 936 1235 926 1250 l 775 1250 b 731 1222 754 1250 743 1239 l 674 1154 l 660 1154 l 603 1222 b 557 1250 589 1239 578 1250 l 421 1250 b 408 1222 407 1250 397 1235 z m 1206 172 l 286 172 l 286 400 l 1185 400 b 1206 421 1199 400 1206 407 l 1206 551 b 1185 572 1206 565 1199 572 l 286 572 l 286 800 l 1199 800 b 1219 821 1213 800 1219 807 l 1219 951 b 1199 972 1219 965 1213 972 l 111 972 b 90 951 97 972 90 965 l 90 21 b 111 0 90 7 97 0 l 1206 0 b 1226 21 1219 0 1226 7 l 1226 151 b 1206 172 1226 165 1219 172 z "},"Ȩ":{"ha":1303,"x_min":0,"x_max":0,"o":"m 1206 172 l 286 172 l 286 400 l 1185 400 b 1206 421 1199 400 1206 407 l 1206 551 b 1185 572 1206 565 1199 572 l 286 572 l 286 800 l 1199 800 b 1219 821 1213 800 1219 807 l 1219 951 b 1199 972 1219 965 1213 972 l 111 972 b 90 951 97 972 90 965 l 90 21 b 111 0 90 7 97 0 l 621 0 b 557 -82 576 -40 557 -54 b 614 -131 557 -117 582 -128 b 756 -164 735 -142 756 -146 b 718 -182 756 -178 739 -182 l 690 -182 b 657 -168 674 -182 663 -174 b 642 -154 656 -160 650 -154 l 529 -154 b 515 -174 518 -154 515 -161 b 639 -287 515 -240 546 -287 l 758 -287 b 897 -162 850 -287 897 -240 b 776 -37 897 -76 874 -47 b 783 0 747 -36 714 -31 l 1206 0 b 1226 21 1219 0 1226 7 l 1226 151 b 1206 172 1226 165 1219 172 z "},"Ê":{"ha":1303,"x_min":0,"x_max":0,"o":"m 421 1039 l 557 1039 b 603 1068 578 1039 589 1051 l 660 1135 l 674 1135 l 731 1068 b 775 1039 743 1051 754 1039 l 913 1039 b 924 1067 926 1039 936 1054 l 782 1231 b 743 1250 771 1242 758 1250 l 589 1250 b 550 1231 574 1250 561 1244 l 408 1067 b 421 1039 397 1054 407 1039 z m 1206 172 l 286 172 l 286 400 l 1185 400 b 1206 421 1199 400 1206 407 l 1206 551 b 1185 572 1206 565 1199 572 l 286 572 l 286 800 l 1199 800 b 1219 821 1213 800 1219 807 l 1219 951 b 1199 972 1219 965 1213 972 l 111 972 b 90 951 97 972 90 965 l 90 21 b 111 0 90 7 97 0 l 1206 0 b 1226 21 1219 0 1226 7 l 1226 151 b 1206 172 1226 165 1219 172 z "},"Ë":{"ha":1303,"x_min":0,"x_max":0,"o":"m 406 1058 l 553 1058 b 575 1081 567 1058 575 1067 l 575 1228 b 553 1250 575 1242 567 1250 l 406 1250 b 383 1228 392 1250 383 1242 l 383 1081 b 406 1058 383 1067 392 1058 z m 757 1058 l 904 1058 b 926 1081 918 1058 926 1067 l 926 1228 b 904 1250 926 1242 918 1250 l 757 1250 b 735 1228 743 1250 735 1242 l 735 1081 b 757 1058 735 1067 743 1058 z m 1206 172 l 286 172 l 286 400 l 1185 400 b 1206 421 1199 400 1206 407 l 1206 551 b 1185 572 1206 565 1199 572 l 286 572 l 286 800 l 1199 800 b 1219 821 1213 800 1219 807 l 1219 951 b 1199 972 1219 965 1213 972 l 111 972 b 90 951 97 972 90 965 l 90 21 b 111 0 90 7 97 0 l 1206 0 b 1226 21 1219 0 1226 7 l 1226 151 b 1206 172 1226 165 1219 172 z "},"Ė":{"ha":1303,"x_min":0,"x_max":0,"o":"m 592 1058 l 739 1058 b 761 1081 753 1058 761 1067 l 761 1228 b 739 1250 761 1242 753 1250 l 592 1250 b 569 1228 578 1250 569 1242 l 569 1081 b 592 1058 569 1067 578 1058 z m 1206 172 l 286 172 l 286 400 l 1185 400 b 1206 421 1199 400 1206 407 l 1206 551 b 1185 572 1206 565 1199 572 l 286 572 l 286 800 l 1199 800 b 1219 821 1213 800 1219 807 l 1219 951 b 1199 972 1219 965 1213 972 l 111 972 b 90 951 97 972 90 965 l 90 21 b 111 0 90 7 97 0 l 1206 0 b 1226 21 1219 0 1226 7 l 1226 151 b 1206 172 1226 165 1219 172 z "},"È":{"ha":1303,"x_min":0,"x_max":0,"o":"m 565 1067 b 599 1040 574 1053 585 1040 l 721 1040 b 735 1065 736 1040 743 1049 l 668 1225 b 639 1250 661 1242 653 1250 l 456 1250 b 442 1225 440 1250 429 1240 z m 1206 172 l 286 172 l 286 400 l 1185 400 b 1206 421 1199 400 1206 407 l 1206 551 b 1185 572 1206 565 1199 572 l 286 572 l 286 800 l 1199 800 b 1219 821 1213 800 1219 807 l 1219 951 b 1199 972 1219 965 1213 972 l 111 972 b 90 951 97 972 90 965 l 90 21 b 111 0 90 7 97 0 l 1206 0 b 1226 21 1219 0 1226 7 l 1226 151 b 1206 172 1226 165 1219 172 z "},"Ē":{"ha":1303,"x_min":0,"x_max":0,"o":"m 440 1082 l 890 1082 b 911 1103 903 1082 911 1089 l 911 1229 b 890 1250 911 1243 903 1250 l 440 1250 b 419 1229 426 1250 419 1243 l 419 1103 b 440 1082 419 1089 426 1082 z m 1206 172 l 286 172 l 286 400 l 1185 400 b 1206 421 1199 400 1206 407 l 1206 551 b 1185 572 1206 565 1199 572 l 286 572 l 286 800 l 1199 800 b 1219 821 1213 800 1219 807 l 1219 951 b 1199 972 1219 965 1213 972 l 111 972 b 90 951 97 972 90 965 l 90 21 b 111 0 90 7 97 0 l 1206 0 b 1226 21 1219 0 1226 7 l 1226 151 b 1206 172 1226 165 1219 172 z "},"Ę":{"ha":1303,"x_min":0,"x_max":0,"o":"m 1206 172 l 286 172 l 286 400 l 1185 400 b 1206 421 1199 400 1206 407 l 1206 551 b 1185 572 1206 565 1199 572 l 286 572 l 286 800 l 1199 800 b 1219 821 1213 800 1219 807 l 1219 951 b 1199 972 1219 965 1213 972 l 111 972 b 90 951 97 972 90 965 l 90 21 b 111 0 90 7 97 0 l 1036 0 b 992 -15 1029 -15 1014 -14 l 940 -21 b 843 -142 865 -29 843 -49 b 989 -268 843 -249 875 -268 l 1190 -268 b 1204 -254 1200 -268 1204 -262 l 1204 -165 b 1190 -147 1204 -156 1199 -147 l 1022 -147 b 1010 -137 1014 -147 1010 -143 b 1025 -125 1010 -131 1013 -126 l 1124 -112 b 1226 -31 1192 -104 1226 -100 l 1226 151 b 1206 172 1226 165 1219 172 z "},"F":{"ha":1296,"x_min":0,"x_max":0,"o":"m 1199 972 l 111 972 b 90 951 97 972 90 965 l 90 21 b 111 0 90 7 97 0 l 264 0 b 286 21 278 0 286 7 l 286 424 l 1185 424 b 1206 444 1199 424 1206 431 l 1206 575 b 1185 596 1206 589 1199 596 l 286 596 l 286 800 l 1199 800 b 1219 821 1213 800 1219 807 l 1219 951 b 1199 972 1219 965 1213 972 z "},"G":{"ha":1413,"x_min":0,"x_max":0,"o":"m 340 -6 l 1088 -6 b 1336 247 1260 -6 1336 88 l 1336 482 b 1306 511 1336 500 1325 511 l 754 511 b 724 481 733 511 724 501 l 724 369 b 754 339 724 350 733 339 l 1140 339 l 1140 263 b 1043 167 1140 192 1110 167 l 385 167 b 279 263 319 167 279 192 l 279 710 b 385 806 279 781 319 806 l 1046 806 b 1138 710 1111 806 1138 781 l 1138 656 b 1160 633 1138 640 1144 633 l 1310 633 b 1333 656 1325 633 1333 640 l 1333 725 b 1086 978 1333 885 1258 978 l 340 978 b 83 725 168 978 83 885 l 83 247 b 340 -6 83 88 168 -6 z "},"Ğ":{"ha":1413,"x_min":0,"x_max":0,"o":"m 661 1024 l 751 1024 b 947 1228 886 1024 947 1090 b 926 1250 947 1242 940 1250 l 817 1250 b 796 1228 803 1250 797 1242 b 724 1151 790 1189 781 1151 l 689 1151 b 617 1228 632 1151 621 1189 b 594 1250 615 1242 608 1250 l 486 1250 b 464 1228 472 1250 464 1242 b 661 1024 464 1090 525 1024 z m 340 -6 l 1088 -6 b 1336 247 1260 -6 1336 88 l 1336 482 b 1306 511 1336 500 1325 511 l 754 511 b 724 481 733 511 724 501 l 724 369 b 754 339 724 350 733 339 l 1140 339 l 1140 263 b 1043 167 1140 192 1110 167 l 385 167 b 279 263 319 167 279 192 l 279 710 b 385 806 279 781 319 806 l 1046 806 b 1138 710 1111 806 1138 781 l 1138 656 b 1160 633 1138 640 1144 633 l 1310 633 b 1333 656 1325 633 1333 640 l 1333 725 b 1086 978 1333 885 1258 978 l 340 978 b 83 725 168 978 83 885 l 83 247 b 340 -6 83 88 168 -6 z "},"Ǧ":{"ha":1413,"x_min":0,"x_max":0,"o":"m 629 1039 l 783 1039 b 822 1060 799 1039 811 1047 l 964 1222 b 953 1250 976 1235 967 1250 l 815 1250 b 771 1222 794 1250 783 1239 l 714 1154 l 700 1154 l 643 1222 b 597 1250 629 1239 618 1250 l 461 1250 b 449 1222 447 1250 438 1235 l 590 1060 b 629 1039 601 1046 614 1039 z m 340 -6 l 1088 -6 b 1336 247 1260 -6 1336 88 l 1336 482 b 1306 511 1336 500 1325 511 l 754 511 b 724 481 733 511 724 501 l 724 369 b 754 339 724 350 733 339 l 1140 339 l 1140 263 b 1043 167 1140 192 1110 167 l 385 167 b 279 263 319 167 279 192 l 279 710 b 385 806 279 781 319 806 l 1046 806 b 1138 710 1111 806 1138 781 l 1138 656 b 1160 633 1138 640 1144 633 l 1310 633 b 1333 656 1325 633 1333 640 l 1333 725 b 1086 978 1333 885 1258 978 l 340 978 b 83 725 168 978 83 885 l 83 247 b 340 -6 83 88 168 -6 z "},"Ģ":{"ha":1413,"x_min":0,"x_max":0,"o":"m 340 -6 l 1088 -6 b 1336 247 1260 -6 1336 88 l 1336 482 b 1306 511 1336 500 1325 511 l 754 511 b 724 481 733 511 724 501 l 724 369 b 754 339 724 350 733 339 l 1140 339 l 1140 263 b 1043 167 1140 192 1110 167 l 385 167 b 279 263 319 167 279 192 l 279 710 b 385 806 279 781 319 806 l 1046 806 b 1138 710 1111 806 1138 781 l 1138 656 b 1160 633 1138 640 1144 633 l 1310 633 b 1333 656 1325 633 1333 640 l 1333 725 b 1086 978 1333 885 1258 978 l 340 978 b 83 725 168 978 83 885 l 83 247 b 340 -6 83 88 168 -6 z m 769 -83 l 649 -83 b 628 -106 635 -83 628 -92 l 628 -351 l 564 -351 b 542 -374 550 -351 542 -360 l 542 -486 b 564 -507 542 -500 550 -507 l 738 -507 b 792 -454 772 -507 792 -489 l 792 -106 b 769 -83 792 -92 783 -83 z "},"Ġ":{"ha":1413,"x_min":0,"x_max":0,"o":"m 633 1058 l 781 1058 b 803 1081 794 1058 803 1067 l 803 1228 b 781 1250 803 1242 794 1250 l 633 1250 b 611 1228 619 1250 611 1242 l 611 1081 b 633 1058 611 1067 619 1058 z m 340 -6 l 1088 -6 b 1336 247 1260 -6 1336 88 l 1336 482 b 1306 511 1336 500 1325 511 l 754 511 b 724 481 733 511 724 501 l 724 369 b 754 339 724 350 733 339 l 1140 339 l 1140 263 b 1043 167 1140 192 1110 167 l 385 167 b 279 263 319 167 279 192 l 279 710 b 385 806 279 781 319 806 l 1046 806 b 1138 710 1111 806 1138 781 l 1138 656 b 1160 633 1138 640 1144 633 l 1310 633 b 1333 656 1325 633 1333 640 l 1333 725 b 1086 978 1333 885 1258 978 l 340 978 b 83 725 168 978 83 885 l 83 247 b 340 -6 83 88 168 -6 z "},"H":{"ha":1388,"x_min":0,"x_max":0,"o":"m 1276 972 l 1124 972 b 1101 951 1110 972 1101 965 l 1101 572 l 286 572 l 286 951 b 264 972 286 965 278 972 l 111 972 b 90 951 97 972 90 965 l 90 21 b 111 0 90 7 97 0 l 264 0 b 286 21 278 0 286 7 l 286 400 l 1101 400 l 1101 21 b 1124 0 1101 7 1110 0 l 1276 0 b 1297 21 1290 0 1297 7 l 1297 951 b 1276 972 1297 965 1290 972 z "},"Ħ":{"ha":1388,"x_min":0,"x_max":0,"o":"m 1276 972 l 1124 972 b 1101 951 1110 972 1101 965 l 1101 829 l 286 829 l 286 951 b 264 972 286 965 278 972 l 111 972 b 90 951 97 972 90 965 l 90 21 b 111 0 90 7 97 0 l 264 0 b 286 21 278 0 286 7 l 286 400 l 1101 400 l 1101 21 b 1124 0 1101 7 1110 0 l 1276 0 b 1297 21 1290 0 1297 7 l 1297 951 b 1276 972 1297 965 1290 972 z m 286 572 l 286 658 l 1101 658 l 1101 572 z "},"I":{"ha":376,"x_min":0,"x_max":0,"o":"m 90 951 l 90 21 b 111 0 90 7 97 0 l 264 0 b 286 21 278 0 286 7 l 286 951 b 264 972 286 965 278 972 l 111 972 b 90 951 97 972 90 965 z "},"Ĳ":{"ha":1735,"x_min":0,"x_max":0,"o":"m 90 951 l 90 21 b 111 0 90 7 97 0 l 264 0 b 286 21 278 0 286 7 l 286 951 b 264 972 286 965 278 972 l 111 972 b 90 951 97 972 90 965 z m 474 0 l 1394 0 b 1644 253 1567 0 1644 93 l 1644 951 b 1624 972 1644 965 1638 972 l 1471 972 b 1449 951 1457 972 1449 965 l 1449 268 b 1353 172 1449 197 1418 172 l 474 172 b 453 150 460 172 453 164 l 453 21 b 474 0 453 7 460 0 z "},"Í":{"ha":376,"x_min":0,"x_max":0,"o":"m 186 1225 l 121 1065 b 133 1040 113 1049 118 1040 l 256 1040 b 290 1065 269 1040 282 1051 l 414 1225 b 407 1250 426 1240 421 1250 l 215 1250 b 186 1225 201 1250 194 1242 z m 90 951 l 90 21 b 111 0 90 7 97 0 l 264 0 b 286 21 278 0 286 7 l 286 951 b 264 972 286 965 278 972 l 111 972 b 90 951 97 972 90 965 z "},"Ǐ":{"ha":376,"x_min":0,"x_max":0,"o":"m 111 1039 l 265 1039 b 304 1060 281 1039 293 1047 l 446 1222 b 435 1250 458 1235 449 1250 l 297 1250 b 253 1222 276 1250 265 1239 l 196 1154 l 182 1154 l 125 1222 b 79 1250 111 1239 100 1250 l -57 1250 b -69 1222 -71 1250 -81 1235 l 72 1060 b 111 1039 83 1046 96 1039 z m 90 951 l 90 21 b 111 0 90 7 97 0 l 264 0 b 286 21 278 0 286 7 l 286 951 b 264 972 286 965 278 972 l 111 972 b 90 951 97 972 90 965 z "},"Î":{"ha":376,"x_min":0,"x_max":0,"o":"m 111 1250 b 72 1231 96 1250 83 1244 l -69 1067 b -57 1039 -81 1054 -71 1039 l 79 1039 b 125 1068 100 1039 111 1051 l 182 1135 l 196 1135 l 253 1068 b 297 1039 265 1051 276 1039 l 435 1039 b 446 1067 449 1039 458 1054 l 304 1231 b 265 1250 293 1242 281 1250 z m 90 951 l 90 21 b 111 0 90 7 97 0 l 264 0 b 286 21 278 0 286 7 l 286 951 b 264 972 286 965 278 972 l 111 972 b 90 951 97 972 90 965 z "},"Ï":{"ha":376,"x_min":0,"x_max":0,"o":"m -72 1058 l 75 1058 b 97 1081 89 1058 97 1067 l 97 1228 b 75 1250 97 1242 89 1250 l -72 1250 b -94 1228 -86 1250 -94 1242 l -94 1081 b -72 1058 -94 1067 -86 1058 z m 279 1058 l 426 1058 b 449 1081 440 1058 449 1067 l 449 1228 b 426 1250 449 1242 440 1250 l 279 1250 b 257 1228 265 1250 257 1242 l 257 1081 b 279 1058 257 1067 265 1058 z m 90 951 l 90 21 b 111 0 90 7 97 0 l 264 0 b 286 21 278 0 286 7 l 286 951 b 264 972 286 965 278 972 l 111 972 b 90 951 97 972 90 965 z "},"İ":{"ha":376,"x_min":0,"x_max":0,"o":"m 114 1058 l 261 1058 b 283 1081 275 1058 283 1067 l 283 1228 b 261 1250 283 1242 275 1250 l 114 1250 b 92 1228 100 1250 92 1242 l 92 1081 b 114 1058 92 1067 100 1058 z m 90 951 l 90 21 b 111 0 90 7 97 0 l 264 0 b 286 21 278 0 286 7 l 286 951 b 264 972 286 965 278 972 l 111 972 b 90 951 97 972 90 965 z "},"Ì":{"ha":376,"x_min":0,"x_max":0,"o":"m 190 1225 b 161 1250 183 1242 175 1250 l -22 1250 b -36 1225 -37 1250 -49 1240 l 88 1067 b 121 1040 96 1053 107 1040 l 243 1040 b 257 1065 258 1040 265 1049 z m 90 951 l 90 21 b 111 0 90 7 97 0 l 264 0 b 286 21 278 0 286 7 l 286 951 b 264 972 286 965 278 972 l 111 972 b 90 951 97 972 90 965 z "},"Ī":{"ha":376,"x_min":0,"x_max":0,"o":"m -37 1082 l 413 1082 b 433 1103 425 1082 433 1089 l 433 1229 b 413 1250 433 1243 425 1250 l -37 1250 b -58 1229 -51 1250 -58 1243 l -58 1103 b -37 1082 -58 1089 -51 1082 z m 90 951 l 90 21 b 111 0 90 7 97 0 l 264 0 b 286 21 278 0 286 7 l 286 951 b 264 972 286 965 278 972 l 111 972 b 90 951 97 972 90 965 z "},"Į":{"ha":379,"x_min":0,"x_max":0,"o":"m 268 972 l 115 972 b 93 951 101 972 93 965 l 93 0 b 50 -35 93 -35 81 -33 l 0 -40 b -99 -161 -76 -49 -99 -68 b 47 -287 -99 -268 -67 -287 l 249 -287 b 263 -274 258 -287 263 -282 l 263 -185 b 249 -167 263 -175 257 -167 l 82 -167 b 69 -157 74 -167 69 -162 b 85 -144 69 -150 72 -146 l 186 -132 b 289 -50 254 -125 289 -119 l 289 951 b 268 972 289 965 282 972 z "},"J":{"ha":1358,"x_min":0,"x_max":0,"o":"m 97 0 l 1018 0 b 1268 253 1190 0 1268 93 l 1268 951 b 1247 972 1268 965 1261 972 l 1094 972 b 1072 951 1081 972 1072 965 l 1072 268 b 976 172 1072 197 1042 172 l 97 172 b 76 150 83 172 76 164 l 76 21 b 97 0 76 7 83 0 z "},"K":{"ha":1401,"x_min":0,"x_max":0,"o":"m 1346 36 l 719 569 l 1303 935 b 1299 972 1324 949 1315 972 l 1086 972 b 1022 947 1063 972 1043 960 l 286 492 l 286 951 b 264 972 286 965 278 972 l 111 972 b 90 951 97 972 90 965 l 90 21 b 111 0 90 7 97 0 l 264 0 b 286 21 278 0 286 7 l 286 299 l 567 474 l 1096 24 b 1144 0 1114 8 1124 0 l 1333 0 b 1346 36 1356 0 1358 24 z "},"Ķ":{"ha":1401,"x_min":0,"x_max":0,"o":"m 1346 36 l 719 569 l 1303 935 b 1299 972 1324 949 1315 972 l 1086 972 b 1022 947 1063 972 1043 960 l 286 492 l 286 951 b 264 972 286 965 278 972 l 111 972 b 90 951 97 972 90 965 l 90 21 b 111 0 90 7 97 0 l 264 0 b 286 21 278 0 286 7 l 286 299 l 567 474 l 1096 24 b 1144 0 1114 8 1124 0 l 1333 0 b 1346 36 1356 0 1358 24 z m 758 -83 l 638 -83 b 617 -106 624 -83 617 -92 l 617 -351 l 553 -351 b 531 -374 539 -351 531 -360 l 531 -486 b 553 -507 531 -500 539 -507 l 726 -507 b 781 -454 761 -507 781 -489 l 781 -106 b 758 -83 781 -92 772 -83 z "},"L":{"ha":1300,"x_min":0,"x_max":0,"o":"m 1210 172 l 286 172 l 286 951 b 264 972 286 965 278 972 l 111 972 b 90 951 97 972 90 965 l 90 21 b 111 0 90 7 97 0 l 1210 0 b 1231 21 1224 0 1231 7 l 1231 150 b 1210 172 1231 164 1224 172 z "},"Ĺ":{"ha":1300,"x_min":0,"x_max":0,"o":"m 125 1040 l 247 1040 b 282 1065 261 1040 274 1051 l 406 1225 b 399 1250 418 1240 413 1250 l 207 1250 b 178 1225 193 1250 186 1242 l 113 1065 b 125 1040 104 1049 110 1040 z m 1210 172 l 286 172 l 286 951 b 264 972 286 965 278 972 l 111 972 b 90 951 97 972 90 965 l 90 21 b 111 0 90 7 97 0 l 1210 0 b 1231 21 1224 0 1231 7 l 1231 150 b 1210 172 1231 164 1224 172 z "},"Ľ":{"ha":1300,"x_min":0,"x_max":0,"o":"m 1210 172 l 286 172 l 286 951 b 264 972 286 965 278 972 l 111 972 b 90 951 97 972 90 965 l 90 21 b 111 0 90 7 97 0 l 1210 0 b 1231 21 1224 0 1231 7 l 1231 150 b 1210 172 1231 164 1224 172 z m 432 549 l 607 549 b 660 601 642 549 660 567 l 660 950 b 639 972 660 964 653 972 l 518 972 b 496 950 504 972 496 964 l 496 704 l 432 704 b 411 682 418 704 411 696 l 411 569 b 432 549 411 556 418 549 z "},"Ļ":{"ha":1300,"x_min":0,"x_max":0,"o":"m 1210 172 l 286 172 l 286 951 b 264 972 286 965 278 972 l 111 972 b 90 951 97 972 90 965 l 90 21 b 111 0 90 7 97 0 l 1210 0 b 1231 21 1224 0 1231 7 l 1231 150 b 1210 172 1231 164 1224 172 z m 713 -83 l 592 -83 b 571 -106 578 -83 571 -92 l 571 -351 l 507 -351 b 485 -374 493 -351 485 -360 l 485 -486 b 507 -507 485 -500 493 -507 l 681 -507 b 735 -454 715 -507 735 -489 l 735 -106 b 713 -83 735 -92 726 -83 z "},"Ŀ":{"ha":1300,"x_min":0,"x_max":0,"o":"m 1210 172 l 286 172 l 286 951 b 264 972 286 965 278 972 l 111 972 b 90 951 97 972 90 965 l 90 21 b 111 0 90 7 97 0 l 1210 0 b 1231 21 1224 0 1231 7 l 1231 150 b 1210 172 1231 164 1224 172 z m 525 408 l 674 408 b 694 429 688 408 694 415 l 694 578 b 674 599 694 592 688 599 l 525 599 b 504 578 511 599 504 592 l 504 429 b 525 408 504 415 511 408 z "},"Ł":{"ha":1426,"x_min":0,"x_max":0,"o":"m 1336 172 l 413 172 l 413 435 l 586 626 b 574 653 599 640 590 653 l 413 653 l 413 951 b 390 972 413 965 404 972 l 238 972 b 217 951 224 972 217 965 l 217 457 l 11 232 b 25 206 -1 218 8 206 l 194 206 b 217 218 203 206 207 208 l 217 21 b 238 0 217 7 224 0 l 1336 0 b 1357 21 1350 0 1357 7 l 1357 150 b 1336 172 1357 164 1350 172 z "},"M":{"ha":1649,"x_min":0,"x_max":0,"o":"m 111 0 l 264 0 b 286 21 278 0 286 7 l 286 715 l 300 715 l 725 21 b 757 0 733 7 743 0 l 892 0 b 924 21 906 0 915 7 l 1347 715 l 1363 715 l 1363 21 b 1383 0 1363 7 1369 0 l 1536 0 b 1558 21 1550 0 1558 7 l 1558 951 b 1536 972 1558 965 1550 972 l 1310 972 b 1281 951 1296 972 1289 965 l 833 224 l 815 224 l 368 951 b 339 972 360 965 353 972 l 111 972 b 90 951 97 972 90 965 l 90 21 b 111 0 90 7 97 0 z "},"Ḿ":{"ha":1649,"x_min":0,"x_max":0,"o":"m 828 1225 l 763 1065 b 775 1040 754 1049 760 1040 l 897 1040 b 932 1065 911 1040 924 1051 l 1056 1225 b 1049 1250 1068 1240 1063 1250 l 857 1250 b 828 1225 843 1250 836 1242 z m 111 0 l 264 0 b 286 21 278 0 286 7 l 286 715 l 300 715 l 725 21 b 757 0 733 7 743 0 l 892 0 b 924 21 906 0 915 7 l 1347 715 l 1363 715 l 1363 21 b 1383 0 1363 7 1369 0 l 1536 0 b 1558 21 1550 0 1558 7 l 1558 951 b 1536 972 1558 965 1550 972 l 1310 972 b 1281 951 1296 972 1289 965 l 833 224 l 815 224 l 368 951 b 339 972 360 965 353 972 l 111 972 b 90 951 97 972 90 965 l 90 21 b 111 0 90 7 97 0 z "},"N":{"ha":1401,"x_min":0,"x_max":0,"o":"m 111 0 l 264 0 b 286 21 278 0 286 7 l 286 743 l 303 743 l 1075 15 b 1106 0 1088 6 1093 0 l 1290 0 b 1311 21 1304 0 1311 7 l 1311 951 b 1290 972 1311 965 1304 972 l 1138 972 b 1115 951 1124 972 1115 965 l 1115 229 l 1099 229 l 326 957 b 296 972 314 967 308 972 l 111 972 b 90 951 97 972 90 965 l 90 21 b 111 0 90 7 97 0 z "},"Ń":{"ha":1401,"x_min":0,"x_max":0,"o":"m 701 1225 l 636 1065 b 649 1040 628 1049 633 1040 l 771 1040 b 806 1065 785 1040 797 1051 l 929 1225 b 922 1250 942 1240 936 1250 l 731 1250 b 701 1225 717 1250 710 1242 z m 111 0 l 264 0 b 286 21 278 0 286 7 l 286 743 l 303 743 l 1075 15 b 1106 0 1088 6 1093 0 l 1290 0 b 1311 21 1304 0 1311 7 l 1311 951 b 1290 972 1311 965 1304 972 l 1138 972 b 1115 951 1124 972 1115 965 l 1115 229 l 1099 229 l 326 957 b 296 972 314 967 308 972 l 111 972 b 90 951 97 972 90 965 l 90 21 b 111 0 90 7 97 0 z "},"Ň":{"ha":1401,"x_min":0,"x_max":0,"o":"m 625 1039 l 779 1039 b 818 1060 794 1039 807 1047 l 960 1222 b 949 1250 972 1235 963 1250 l 811 1250 b 767 1222 790 1250 779 1239 l 710 1154 l 696 1154 l 639 1222 b 593 1250 625 1239 614 1250 l 457 1250 b 444 1222 443 1250 433 1235 l 586 1060 b 625 1039 597 1046 610 1039 z m 111 0 l 264 0 b 286 21 278 0 286 7 l 286 743 l 303 743 l 1075 15 b 1106 0 1088 6 1093 0 l 1290 0 b 1311 21 1304 0 1311 7 l 1311 951 b 1290 972 1311 965 1304 972 l 1138 972 b 1115 951 1124 972 1115 965 l 1115 229 l 1099 229 l 326 957 b 296 972 314 967 308 972 l 111 972 b 90 951 97 972 90 965 l 90 21 b 111 0 90 7 97 0 z "},"Ņ":{"ha":1401,"x_min":0,"x_max":0,"o":"m 111 0 l 264 0 b 286 21 278 0 286 7 l 286 743 l 303 743 l 1075 15 b 1106 0 1088 6 1093 0 l 1290 0 b 1311 21 1304 0 1311 7 l 1311 951 b 1290 972 1311 965 1304 972 l 1138 972 b 1115 951 1124 972 1115 965 l 1115 229 l 1099 229 l 326 957 b 296 972 314 967 308 972 l 111 972 b 90 951 97 972 90 965 l 90 21 b 111 0 90 7 97 0 z m 764 -83 l 643 -83 b 622 -106 629 -83 622 -92 l 622 -351 l 558 -351 b 536 -374 544 -351 536 -360 l 536 -486 b 558 -507 536 -500 544 -507 l 732 -507 b 786 -454 767 -507 786 -489 l 786 -106 b 764 -83 786 -92 778 -83 z "},"Ŋ":{"ha":1401,"x_min":0,"x_max":0,"o":"m 1290 972 l 1138 972 b 1115 951 1124 972 1115 965 l 1115 229 l 1099 229 l 326 957 b 296 972 314 967 308 972 l 111 972 b 90 951 97 972 90 965 l 90 21 b 111 0 90 7 97 0 l 264 0 b 286 21 278 0 286 7 l 286 743 l 303 743 l 1075 15 b 1106 0 1088 6 1093 0 l 1115 0 l 1115 -11 b 1019 -106 1115 -81 1085 -106 l 111 -106 b 90 -128 97 -106 90 -114 l 90 -257 b 111 -278 90 -271 97 -278 l 1061 -278 b 1311 -25 1233 -278 1311 -185 l 1311 951 b 1290 972 1311 965 1304 972 z "},"Ñ":{"ha":1401,"x_min":0,"x_max":0,"o":"m 792 1040 b 933 1089 839 1040 882 1050 b 947 1122 944 1099 953 1107 l 907 1224 b 881 1231 903 1232 893 1238 b 794 1203 846 1213 831 1203 b 611 1257 728 1203 710 1257 b 469 1208 564 1257 521 1249 b 456 1175 458 1200 450 1190 l 496 1074 b 524 1068 500 1065 510 1060 b 608 1094 556 1088 572 1094 b 792 1040 675 1094 693 1040 z m 111 0 l 264 0 b 286 21 278 0 286 7 l 286 743 l 303 743 l 1075 15 b 1106 0 1088 6 1093 0 l 1290 0 b 1311 21 1304 0 1311 7 l 1311 951 b 1290 972 1311 965 1304 972 l 1138 972 b 1115 951 1124 972 1115 965 l 1115 229 l 1099 229 l 326 957 b 296 972 314 967 308 972 l 111 972 b 90 951 97 972 90 965 l 90 21 b 111 0 90 7 97 0 z "},"O":{"ha":1419,"x_min":0,"x_max":0,"o":"m 340 -6 l 1078 -6 b 1336 247 1250 -6 1336 88 l 1336 725 b 1078 978 1336 885 1250 978 l 340 978 b 83 725 168 978 83 885 l 83 247 b 340 -6 83 88 168 -6 z m 385 167 b 279 263 319 167 279 192 l 279 710 b 385 806 279 781 319 806 l 1035 806 b 1140 710 1100 806 1140 781 l 1140 263 b 1035 167 1140 192 1100 167 z "},"Ó":{"ha":1419,"x_min":0,"x_max":0,"o":"m 707 1225 l 642 1065 b 654 1040 633 1049 639 1040 l 776 1040 b 811 1065 790 1040 803 1051 l 935 1225 b 928 1250 947 1240 942 1250 l 736 1250 b 707 1225 722 1250 715 1242 z m 340 -6 l 1078 -6 b 1336 247 1250 -6 1336 88 l 1336 725 b 1078 978 1336 885 1250 978 l 340 978 b 83 725 168 978 83 885 l 83 247 b 340 -6 83 88 168 -6 z m 385 167 b 279 263 319 167 279 192 l 279 710 b 385 806 279 781 319 806 l 1035 806 b 1140 710 1100 806 1140 781 l 1140 263 b 1035 167 1140 192 1100 167 z "},"Ǒ":{"ha":1419,"x_min":0,"x_max":0,"o":"m 632 1039 l 786 1039 b 825 1060 801 1039 814 1047 l 967 1222 b 956 1250 979 1235 969 1250 l 818 1250 b 774 1222 797 1250 786 1239 l 717 1154 l 703 1154 l 646 1222 b 600 1250 632 1239 621 1250 l 464 1250 b 451 1222 450 1250 440 1235 l 593 1060 b 632 1039 604 1046 617 1039 z m 340 -6 l 1078 -6 b 1336 247 1250 -6 1336 88 l 1336 725 b 1078 978 1336 885 1250 978 l 340 978 b 83 725 168 978 83 885 l 83 247 b 340 -6 83 88 168 -6 z m 385 167 b 279 263 319 167 279 192 l 279 710 b 385 806 279 781 319 806 l 1035 806 b 1140 710 1100 806 1140 781 l 1140 263 b 1035 167 1140 192 1100 167 z "},"Ô":{"ha":1419,"x_min":0,"x_max":0,"o":"m 632 1250 b 593 1231 617 1250 604 1244 l 451 1067 b 464 1039 440 1054 450 1039 l 600 1039 b 646 1068 621 1039 632 1051 l 703 1135 l 717 1135 l 774 1068 b 818 1039 786 1051 797 1039 l 956 1039 b 967 1067 969 1039 979 1054 l 825 1231 b 786 1250 814 1242 801 1250 z m 340 -6 l 1078 -6 b 1336 247 1250 -6 1336 88 l 1336 725 b 1078 978 1336 885 1250 978 l 340 978 b 83 725 168 978 83 885 l 83 247 b 340 -6 83 88 168 -6 z m 385 167 b 279 263 319 167 279 192 l 279 710 b 385 806 279 781 319 806 l 1035 806 b 1140 710 1100 806 1140 781 l 1140 263 b 1035 167 1140 192 1100 167 z "},"Ö":{"ha":1419,"x_min":0,"x_max":0,"o":"m 449 1058 l 596 1058 b 618 1081 610 1058 618 1067 l 618 1228 b 596 1250 618 1242 610 1250 l 449 1250 b 426 1228 435 1250 426 1242 l 426 1081 b 449 1058 426 1067 435 1058 z m 800 1058 l 947 1058 b 969 1081 961 1058 969 1067 l 969 1228 b 947 1250 969 1242 961 1250 l 800 1250 b 778 1228 786 1250 778 1242 l 778 1081 b 800 1058 778 1067 786 1058 z m 340 -6 l 1078 -6 b 1336 247 1250 -6 1336 88 l 1336 725 b 1078 978 1336 885 1250 978 l 340 978 b 83 725 168 978 83 885 l 83 247 b 340 -6 83 88 168 -6 z m 385 167 b 279 263 319 167 279 192 l 279 710 b 385 806 279 781 319 806 l 1035 806 b 1140 710 1100 806 1140 781 l 1140 263 b 1035 167 1140 192 1100 167 z "},"Ò":{"ha":1419,"x_min":0,"x_max":0,"o":"m 711 1225 b 682 1250 704 1242 696 1250 l 499 1250 b 485 1225 483 1250 472 1240 l 608 1067 b 642 1040 617 1053 628 1040 l 764 1040 b 778 1065 779 1040 786 1049 z m 340 -6 l 1078 -6 b 1336 247 1250 -6 1336 88 l 1336 725 b 1078 978 1336 885 1250 978 l 340 978 b 83 725 168 978 83 885 l 83 247 b 340 -6 83 88 168 -6 z m 385 167 b 279 263 319 167 279 192 l 279 710 b 385 806 279 781 319 806 l 1035 806 b 1140 710 1100 806 1140 781 l 1140 263 b 1035 167 1140 192 1100 167 z "},"Ő":{"ha":1419,"x_min":0,"x_max":0,"o":"m 557 1225 l 492 1065 b 504 1040 483 1049 489 1040 l 626 1040 b 661 1065 640 1040 653 1051 l 785 1225 b 778 1250 797 1240 792 1250 l 586 1250 b 557 1225 572 1250 565 1242 z m 842 1225 l 775 1065 b 789 1040 767 1049 772 1040 l 911 1040 b 946 1065 925 1040 936 1051 l 1068 1225 b 1061 1250 1081 1240 1075 1250 l 869 1250 b 842 1225 856 1250 849 1242 z m 340 -6 l 1078 -6 b 1336 247 1250 -6 1336 88 l 1336 725 b 1078 978 1336 885 1250 978 l 340 978 b 83 725 168 978 83 885 l 83 247 b 340 -6 83 88 168 -6 z m 385 167 b 279 263 319 167 279 192 l 279 710 b 385 806 279 781 319 806 l 1035 806 b 1140 710 1100 806 1140 781 l 1140 263 b 1035 167 1140 192 1100 167 z "},"Ō":{"ha":1419,"x_min":0,"x_max":0,"o":"m 485 1082 l 935 1082 b 956 1103 947 1082 956 1089 l 956 1229 b 935 1250 956 1243 947 1250 l 485 1250 b 464 1229 471 1250 464 1243 l 464 1103 b 485 1082 464 1089 471 1082 z m 340 -6 l 1078 -6 b 1336 247 1250 -6 1336 88 l 1336 725 b 1078 978 1336 885 1250 978 l 340 978 b 83 725 168 978 83 885 l 83 247 b 340 -6 83 88 168 -6 z m 385 167 b 279 263 319 167 279 192 l 279 710 b 385 806 279 781 319 806 l 1035 806 b 1140 710 1100 806 1140 781 l 1140 263 b 1035 167 1140 192 1100 167 z "},"Ø":{"ha":1419,"x_min":0,"x_max":0,"o":"m 1078 978 l 1010 978 l 1018 997 b 1004 1019 1024 1011 1018 1019 l 858 1019 b 829 999 844 1019 835 1013 l 821 978 l 340 978 b 83 725 168 978 83 885 l 83 247 b 340 -6 83 88 168 -6 l 407 -6 l 400 -24 b 414 -47 394 -37 400 -47 l 561 -47 b 589 -26 575 -47 583 -40 l 597 -6 l 1078 -6 b 1336 247 1250 -6 1336 88 l 1336 725 b 1078 978 1336 885 1250 978 z m 385 167 b 279 263 319 167 279 192 l 279 710 b 385 806 279 781 319 806 l 749 806 l 481 167 z m 1140 263 b 1035 167 1140 192 1100 167 l 669 167 l 938 806 l 1035 806 b 1140 710 1100 806 1140 781 z "},"Õ":{"ha":1419,"x_min":0,"x_max":0,"o":"m 799 1040 b 940 1089 846 1040 889 1050 b 954 1122 951 1099 960 1107 l 914 1224 b 888 1231 910 1232 900 1238 b 801 1203 853 1213 838 1203 b 618 1257 735 1203 717 1257 b 476 1208 571 1257 528 1249 b 463 1175 465 1200 457 1190 l 503 1074 b 531 1068 507 1065 517 1060 b 615 1094 563 1088 579 1094 b 799 1040 682 1094 700 1040 z m 340 -6 l 1078 -6 b 1336 247 1250 -6 1336 88 l 1336 725 b 1078 978 1336 885 1250 978 l 340 978 b 83 725 168 978 83 885 l 83 247 b 340 -6 83 88 168 -6 z m 385 167 b 279 263 319 167 279 192 l 279 710 b 385 806 279 781 319 806 l 1035 806 b 1140 710 1100 806 1140 781 l 1140 263 b 1035 167 1140 192 1100 167 z "},"Œ":{"ha":2353,"x_min":0,"x_max":0,"o":"m 2256 172 l 1336 172 l 1336 400 l 2235 400 b 2256 421 2249 400 2256 407 l 2256 551 b 2235 572 2256 565 2249 572 l 1336 572 l 1336 800 l 2249 800 b 2269 821 2263 800 2269 807 l 2269 951 b 2249 972 2269 965 2263 972 l 1161 972 b 1153 971 1158 972 1156 972 b 1078 978 1129 975 1104 978 l 340 978 b 83 725 168 978 83 885 l 83 247 b 340 -6 83 88 168 -6 l 1078 -6 b 1153 1 1104 -6 1129 -3 b 1161 0 1156 0 1158 0 l 2256 0 b 2276 21 2269 0 2276 7 l 2276 151 b 2256 172 2276 165 2269 172 z m 1035 167 l 385 167 b 279 263 319 167 279 192 l 279 710 b 385 806 279 781 319 806 l 1035 806 b 1140 710 1100 806 1140 781 l 1140 263 b 1035 167 1140 192 1100 167 z "},"P":{"ha":1349,"x_min":0,"x_max":0,"o":"m 1017 972 l 111 972 b 90 951 97 972 90 965 l 90 21 b 111 0 90 7 97 0 l 264 0 b 286 21 278 0 286 7 l 286 199 l 1017 199 b 1265 451 1189 199 1265 292 l 1265 719 b 1017 972 1265 879 1189 972 z m 1069 465 b 974 369 1069 396 1039 369 l 286 369 l 286 800 l 974 800 b 1069 706 1039 800 1069 775 z "},"Þ":{"ha":1335,"x_min":0,"x_max":0,"o":"m 1003 786 l 286 786 l 286 951 b 264 972 286 965 278 972 l 111 972 b 90 951 97 972 90 965 l 90 21 b 111 0 90 7 97 0 l 264 0 b 286 21 278 0 286 7 l 286 186 l 1003 186 b 1251 439 1175 186 1251 279 l 1251 533 b 1003 786 1251 693 1175 786 z m 1056 454 b 960 358 1056 383 1025 358 l 286 358 l 286 614 l 960 614 b 1056 518 1025 614 1056 589 z "},"Q":{"ha":1419,"x_min":0,"x_max":0,"o":"m 1078 978 l 340 978 b 83 725 168 978 83 885 l 83 247 b 340 -6 83 88 168 -6 l 611 -6 l 611 -124 b 633 -144 611 -137 619 -144 l 786 -144 b 807 -124 800 -144 807 -137 l 807 -6 l 1078 -6 b 1336 247 1250 -6 1336 88 l 1336 725 b 1078 978 1336 885 1250 978 z m 1140 263 b 1035 167 1140 192 1100 167 l 385 167 b 279 263 319 167 279 192 l 279 710 b 385 806 279 781 319 806 l 1035 806 b 1140 710 1100 806 1140 781 z "},"R":{"ha":1365,"x_min":0,"x_max":0,"o":"m 1278 35 l 1119 272 b 1265 511 1219 304 1265 388 l 1265 719 b 1017 972 1265 879 1189 972 l 111 972 b 90 951 97 972 90 965 l 90 21 b 111 0 90 7 97 0 l 264 0 b 286 21 278 0 286 7 l 286 258 l 918 258 l 1078 22 b 1114 0 1088 8 1097 0 l 1253 0 b 1278 35 1275 0 1290 15 z m 286 800 l 974 800 b 1069 706 1039 800 1069 775 l 1069 525 b 974 429 1069 456 1039 429 l 286 429 z "},"Ŕ":{"ha":1365,"x_min":0,"x_max":0,"o":"m 621 1040 l 743 1040 b 778 1065 757 1040 769 1051 l 901 1225 b 894 1250 914 1240 908 1250 l 703 1250 b 674 1225 689 1250 682 1242 l 608 1065 b 621 1040 600 1049 606 1040 z m 1278 35 l 1119 272 b 1265 511 1219 304 1265 388 l 1265 719 b 1017 972 1265 879 1189 972 l 111 972 b 90 951 97 972 90 965 l 90 21 b 111 0 90 7 97 0 l 264 0 b 286 21 278 0 286 7 l 286 258 l 918 258 l 1078 22 b 1114 0 1088 8 1097 0 l 1253 0 b 1278 35 1275 0 1290 15 z m 286 800 l 974 800 b 1069 706 1039 800 1069 775 l 1069 525 b 974 429 1069 456 1039 429 l 286 429 z "},"Ř":{"ha":1365,"x_min":0,"x_max":0,"o":"m 560 1060 b 599 1039 571 1046 583 1039 l 753 1039 b 792 1060 768 1039 781 1047 l 933 1222 b 922 1250 946 1235 936 1250 l 785 1250 b 740 1222 764 1250 753 1239 l 683 1154 l 669 1154 l 613 1222 b 567 1250 599 1239 588 1250 l 431 1250 b 418 1222 417 1250 407 1235 z m 1278 35 l 1119 272 b 1265 511 1219 304 1265 388 l 1265 719 b 1017 972 1265 879 1189 972 l 111 972 b 90 951 97 972 90 965 l 90 21 b 111 0 90 7 97 0 l 264 0 b 286 21 278 0 286 7 l 286 258 l 918 258 l 1078 22 b 1114 0 1088 8 1097 0 l 1253 0 b 1278 35 1275 0 1290 15 z m 286 800 l 974 800 b 1069 706 1039 800 1069 775 l 1069 525 b 974 429 1069 456 1039 429 l 286 429 z "},"Ŗ":{"ha":1365,"x_min":0,"x_max":0,"o":"m 1278 35 l 1119 272 b 1265 511 1219 304 1265 388 l 1265 719 b 1017 972 1265 879 1189 972 l 111 972 b 90 951 97 972 90 965 l 90 21 b 111 0 90 7 97 0 l 264 0 b 286 21 278 0 286 7 l 286 258 l 918 258 l 1078 22 b 1114 0 1088 8 1097 0 l 1253 0 b 1278 35 1275 0 1290 15 z m 286 800 l 974 800 b 1069 706 1039 800 1069 775 l 1069 525 b 974 429 1069 456 1039 429 l 286 429 z m 738 -83 l 617 -83 b 596 -106 603 -83 596 -92 l 596 -351 l 532 -351 b 510 -374 518 -351 510 -360 l 510 -486 b 532 -507 510 -500 518 -507 l 706 -507 b 760 -454 740 -507 760 -489 l 760 -106 b 738 -83 760 -92 751 -83 z "},"S":{"ha":1397,"x_min":0,"x_max":0,"o":"m 1021 549 l 393 582 b 275 701 294 588 275 640 b 390 806 275 776 314 806 l 997 806 b 1100 733 1054 806 1090 782 b 1136 703 1104 714 1115 703 l 1260 703 b 1292 733 1282 703 1292 714 b 1019 978 1292 889 1214 978 l 379 978 b 83 707 182 978 83 899 b 376 424 83 536 172 435 l 1004 390 b 1122 271 1103 385 1122 332 b 1007 167 1122 196 1083 167 l 379 167 b 275 239 321 167 285 190 b 239 269 272 258 261 269 l 115 269 b 83 239 94 269 83 258 b 357 -6 83 83 163 -6 l 1018 -6 b 1314 265 1215 -6 1314 74 b 1021 549 1314 436 1225 538 z "},"Ś":{"ha":1397,"x_min":0,"x_max":0,"o":"m 679 1225 l 614 1065 b 626 1040 606 1049 611 1040 l 749 1040 b 783 1065 763 1040 775 1051 l 907 1225 b 900 1250 919 1240 914 1250 l 708 1250 b 679 1225 694 1250 688 1242 z m 1021 549 l 393 582 b 275 701 294 588 275 640 b 390 806 275 776 314 806 l 997 806 b 1100 733 1054 806 1090 782 b 1136 703 1104 714 1115 703 l 1260 703 b 1292 733 1282 703 1292 714 b 1019 978 1292 889 1214 978 l 379 978 b 83 707 182 978 83 899 b 376 424 83 536 172 435 l 1004 390 b 1122 271 1103 385 1122 332 b 1007 167 1122 196 1083 167 l 379 167 b 275 239 321 167 285 190 b 239 269 272 258 261 269 l 115 269 b 83 239 94 269 83 258 b 357 -6 83 83 163 -6 l 1018 -6 b 1314 265 1215 -6 1314 74 b 1021 549 1314 436 1225 538 z "},"Š":{"ha":1397,"x_min":0,"x_max":0,"o":"m 604 1039 l 758 1039 b 797 1060 774 1039 786 1047 l 939 1222 b 928 1250 951 1235 942 1250 l 790 1250 b 746 1222 769 1250 758 1239 l 689 1154 l 675 1154 l 618 1222 b 572 1250 604 1239 593 1250 l 436 1250 b 424 1222 422 1250 413 1235 l 565 1060 b 604 1039 576 1046 589 1039 z m 1021 549 l 393 582 b 275 701 294 588 275 640 b 390 806 275 776 314 806 l 997 806 b 1100 733 1054 806 1090 782 b 1136 703 1104 714 1115 703 l 1260 703 b 1292 733 1282 703 1292 714 b 1019 978 1292 889 1214 978 l 379 978 b 83 707 182 978 83 899 b 376 424 83 536 172 435 l 1004 390 b 1122 271 1103 385 1122 332 b 1007 167 1122 196 1083 167 l 379 167 b 275 239 321 167 285 190 b 239 269 272 258 261 269 l 115 269 b 83 239 94 269 83 258 b 357 -6 83 83 163 -6 l 1018 -6 b 1314 265 1215 -6 1314 74 b 1021 549 1314 436 1225 538 z "},"Ş":{"ha":1397,"x_min":0,"x_max":0,"o":"m 1021 549 l 393 582 b 275 701 294 588 275 640 b 390 806 275 776 314 806 l 997 806 b 1100 733 1054 806 1090 782 b 1136 703 1104 714 1115 703 l 1260 703 b 1292 733 1282 703 1292 714 b 1019 978 1292 889 1214 978 l 379 978 b 83 707 182 978 83 899 b 376 424 83 536 172 435 l 1004 390 b 1122 271 1103 385 1122 332 b 1007 167 1122 196 1083 167 l 379 167 b 275 239 321 167 285 190 b 239 269 272 258 261 269 l 115 269 b 83 239 94 269 83 258 b 357 -6 83 83 163 -6 l 631 -6 b 572 -82 590 -42 572 -56 b 629 -131 572 -117 597 -128 b 771 -164 750 -142 771 -146 b 733 -182 771 -178 754 -182 l 706 -182 b 672 -168 689 -182 678 -174 b 657 -154 671 -160 665 -154 l 544 -154 b 531 -174 533 -154 531 -161 b 654 -287 531 -240 561 -287 l 774 -287 b 913 -162 865 -287 913 -240 b 792 -37 913 -76 889 -47 b 786 -6 764 -36 733 -31 l 1018 -6 b 1314 265 1215 -6 1314 74 b 1021 549 1314 436 1225 538 z "},"Ș":{"ha":1397,"x_min":0,"x_max":0,"o":"m 1021 549 l 393 582 b 275 701 294 588 275 640 b 390 806 275 776 314 806 l 997 806 b 1100 733 1054 806 1090 782 b 1136 703 1104 714 1115 703 l 1260 703 b 1292 733 1282 703 1292 714 b 1019 978 1292 889 1214 978 l 379 978 b 83 707 182 978 83 899 b 376 424 83 536 172 435 l 1004 390 b 1122 271 1103 385 1122 332 b 1007 167 1122 196 1083 167 l 379 167 b 275 239 321 167 285 190 b 239 269 272 258 261 269 l 115 269 b 83 239 94 269 83 258 b 357 -6 83 83 163 -6 l 1018 -6 b 1314 265 1215 -6 1314 74 b 1021 549 1314 436 1225 538 z m 743 -83 l 622 -83 b 601 -106 608 -83 601 -92 l 601 -351 l 538 -351 b 515 -374 524 -351 515 -360 l 515 -486 b 538 -507 515 -500 524 -507 l 711 -507 b 765 -454 746 -507 765 -489 l 765 -106 b 743 -83 765 -92 757 -83 z "},"T":{"ha":1351,"x_min":0,"x_max":0,"o":"m 1268 972 l 83 972 b 63 951 69 972 63 965 l 63 822 b 83 800 63 808 69 800 l 581 800 l 581 21 b 601 0 581 7 588 0 l 750 0 b 772 21 764 0 772 7 l 772 800 l 1268 800 b 1289 822 1282 800 1289 808 l 1289 951 b 1268 972 1289 965 1282 972 z "},"Ŧ":{"ha":1389,"x_min":0,"x_max":0,"o":"m 1268 972 l 83 972 b 63 951 69 972 63 965 l 63 822 b 83 800 63 808 69 800 l 581 800 l 581 672 l 451 672 b 431 651 438 672 431 665 l 431 525 b 451 504 431 511 438 504 l 581 504 l 581 21 b 601 0 581 7 588 0 l 750 0 b 772 21 764 0 772 7 l 772 504 l 901 504 b 922 525 914 504 922 511 l 922 651 b 901 672 922 665 914 672 l 772 672 l 772 800 l 1268 800 b 1289 822 1282 800 1289 808 l 1289 951 b 1268 972 1289 965 1282 972 z "},"Ť":{"ha":1351,"x_min":0,"x_max":0,"o":"m 561 1060 b 600 1039 572 1046 585 1039 l 754 1039 b 793 1060 769 1039 782 1047 l 935 1222 b 924 1250 947 1235 938 1250 l 786 1250 b 742 1222 765 1250 754 1239 l 685 1154 l 671 1154 l 614 1222 b 568 1250 600 1239 589 1250 l 432 1250 b 419 1222 418 1250 408 1235 z m 1268 972 l 83 972 b 63 951 69 972 63 965 l 63 822 b 83 800 63 808 69 800 l 581 800 l 581 21 b 601 0 581 7 588 0 l 750 0 b 772 21 764 0 772 7 l 772 800 l 1268 800 b 1289 822 1282 800 1289 808 l 1289 951 b 1268 972 1289 965 1282 972 z "},"Ţ":{"ha":1351,"x_min":0,"x_max":0,"o":"m 1268 972 l 83 972 b 63 951 69 972 63 965 l 63 822 b 83 800 63 808 69 800 l 581 800 l 581 21 b 601 0 581 7 588 0 l 633 0 b 569 -82 589 -40 569 -54 b 626 -131 569 -117 594 -128 b 768 -164 747 -142 768 -146 b 731 -182 768 -178 751 -182 l 703 -182 b 669 -168 686 -182 675 -174 b 654 -154 668 -160 663 -154 l 542 -154 b 528 -174 531 -154 528 -161 b 651 -287 528 -240 558 -287 l 771 -287 b 910 -162 863 -287 910 -240 b 789 -37 910 -76 886 -47 b 796 0 760 -36 726 -31 l 750 0 b 772 21 764 0 772 7 l 772 800 l 1268 800 b 1289 822 1282 800 1289 808 l 1289 951 b 1268 972 1289 965 1282 972 z "},"Ț":{"ha":1351,"x_min":0,"x_max":0,"o":"m 1268 972 l 83 972 b 63 951 69 972 63 965 l 63 822 b 83 800 63 808 69 800 l 581 800 l 581 21 b 601 0 581 7 588 0 l 750 0 b 772 21 764 0 772 7 l 772 800 l 1268 800 b 1289 822 1282 800 1289 808 l 1289 951 b 1268 972 1289 965 1282 972 z m 739 -83 l 618 -83 b 597 -106 604 -83 597 -92 l 597 -351 l 533 -351 b 511 -374 519 -351 511 -360 l 511 -486 b 533 -507 511 -500 519 -507 l 707 -507 b 761 -454 742 -507 761 -489 l 761 -106 b 739 -83 761 -92 753 -83 z "},"U":{"ha":1433,"x_min":0,"x_max":0,"o":"m 339 0 l 1094 0 b 1343 253 1267 0 1343 93 l 1343 951 b 1321 972 1343 965 1335 972 l 1168 972 b 1147 951 1154 972 1147 965 l 1147 268 b 1050 172 1147 197 1117 172 l 383 172 b 286 268 317 172 286 197 l 286 951 b 264 972 286 965 278 972 l 111 972 b 90 951 97 972 90 965 l 90 253 b 339 0 90 93 167 0 z "},"Ú":{"ha":1433,"x_min":0,"x_max":0,"o":"m 714 1225 l 649 1065 b 661 1040 640 1049 646 1040 l 783 1040 b 818 1065 797 1040 810 1051 l 942 1225 b 935 1250 954 1240 949 1250 l 743 1250 b 714 1225 729 1250 722 1242 z m 339 0 l 1094 0 b 1343 253 1267 0 1343 93 l 1343 951 b 1321 972 1343 965 1335 972 l 1168 972 b 1147 951 1154 972 1147 965 l 1147 268 b 1050 172 1147 197 1117 172 l 383 172 b 286 268 317 172 286 197 l 286 951 b 264 972 286 965 278 972 l 111 972 b 90 951 97 972 90 965 l 90 253 b 339 0 90 93 167 0 z "},"Ŭ":{"ha":1433,"x_min":0,"x_max":0,"o":"m 671 1024 l 761 1024 b 957 1228 896 1024 957 1090 b 936 1250 957 1242 950 1250 l 826 1250 b 806 1228 813 1250 807 1242 b 733 1151 800 1189 790 1151 l 699 1151 b 626 1228 642 1151 631 1189 b 604 1250 625 1242 618 1250 l 496 1250 b 474 1228 482 1250 474 1242 b 671 1024 474 1090 535 1024 z m 339 0 l 1094 0 b 1343 253 1267 0 1343 93 l 1343 951 b 1321 972 1343 965 1335 972 l 1168 972 b 1147 951 1154 972 1147 965 l 1147 268 b 1050 172 1147 197 1117 172 l 383 172 b 286 268 317 172 286 197 l 286 951 b 264 972 286 965 278 972 l 111 972 b 90 951 97 972 90 965 l 90 253 b 339 0 90 93 167 0 z "},"Û":{"ha":1433,"x_min":0,"x_max":0,"o":"m 639 1250 b 600 1231 624 1250 611 1244 l 458 1067 b 471 1039 447 1054 457 1039 l 607 1039 b 653 1068 628 1039 639 1051 l 710 1135 l 724 1135 l 781 1068 b 825 1039 793 1051 804 1039 l 963 1039 b 974 1067 976 1039 986 1054 l 832 1231 b 793 1250 821 1242 808 1250 z m 339 0 l 1094 0 b 1343 253 1267 0 1343 93 l 1343 951 b 1321 972 1343 965 1335 972 l 1168 972 b 1147 951 1154 972 1147 965 l 1147 268 b 1050 172 1147 197 1117 172 l 383 172 b 286 268 317 172 286 197 l 286 951 b 264 972 286 965 278 972 l 111 972 b 90 951 97 972 90 965 l 90 253 b 339 0 90 93 167 0 z "},"Ü":{"ha":1433,"x_min":0,"x_max":0,"o":"m 456 1058 l 603 1058 b 625 1081 617 1058 625 1067 l 625 1228 b 603 1250 625 1242 617 1250 l 456 1250 b 433 1228 442 1250 433 1242 l 433 1081 b 456 1058 433 1067 442 1058 z m 807 1058 l 954 1058 b 976 1081 968 1058 976 1067 l 976 1228 b 954 1250 976 1242 968 1250 l 807 1250 b 785 1228 793 1250 785 1242 l 785 1081 b 807 1058 785 1067 793 1058 z m 339 0 l 1094 0 b 1343 253 1267 0 1343 93 l 1343 951 b 1321 972 1343 965 1335 972 l 1168 972 b 1147 951 1154 972 1147 965 l 1147 268 b 1050 172 1147 197 1117 172 l 383 172 b 286 268 317 172 286 197 l 286 951 b 264 972 286 965 278 972 l 111 972 b 90 951 97 972 90 965 l 90 253 b 339 0 90 93 167 0 z "},"Ù":{"ha":1433,"x_min":0,"x_max":0,"o":"m 718 1225 b 689 1250 711 1242 703 1250 l 506 1250 b 492 1225 490 1250 479 1240 l 615 1067 b 649 1040 624 1053 635 1040 l 771 1040 b 785 1065 786 1040 793 1049 z m 339 0 l 1094 0 b 1343 253 1267 0 1343 93 l 1343 951 b 1321 972 1343 965 1335 972 l 1168 972 b 1147 951 1154 972 1147 965 l 1147 268 b 1050 172 1147 197 1117 172 l 383 172 b 286 268 317 172 286 197 l 286 951 b 264 972 286 965 278 972 l 111 972 b 90 951 97 972 90 965 l 90 253 b 339 0 90 93 167 0 z "},"Ű":{"ha":1433,"x_min":0,"x_max":0,"o":"m 564 1225 l 499 1065 b 511 1040 490 1049 496 1040 l 633 1040 b 668 1065 647 1040 660 1051 l 792 1225 b 785 1250 804 1240 799 1250 l 593 1250 b 564 1225 579 1250 572 1242 z m 849 1225 l 782 1065 b 796 1040 774 1049 779 1040 l 918 1040 b 953 1065 932 1040 943 1051 l 1075 1225 b 1068 1250 1088 1240 1082 1250 l 876 1250 b 849 1225 863 1250 856 1242 z m 339 0 l 1094 0 b 1343 253 1267 0 1343 93 l 1343 951 b 1321 972 1343 965 1335 972 l 1168 972 b 1147 951 1154 972 1147 965 l 1147 268 b 1050 172 1147 197 1117 172 l 383 172 b 286 268 317 172 286 197 l 286 951 b 264 972 286 965 278 972 l 111 972 b 90 951 97 972 90 965 l 90 253 b 339 0 90 93 167 0 z "},"Ū":{"ha":1433,"x_min":0,"x_max":0,"o":"m 492 1082 l 942 1082 b 963 1103 954 1082 963 1089 l 963 1229 b 942 1250 963 1243 954 1250 l 492 1250 b 471 1229 478 1250 471 1243 l 471 1103 b 492 1082 471 1089 478 1082 z m 339 0 l 1094 0 b 1343 253 1267 0 1343 93 l 1343 951 b 1321 972 1343 965 1335 972 l 1168 972 b 1147 951 1154 972 1147 965 l 1147 268 b 1050 172 1147 197 1117 172 l 383 172 b 286 268 317 172 286 197 l 286 951 b 264 972 286 965 278 972 l 111 972 b 90 951 97 972 90 965 l 90 253 b 339 0 90 93 167 0 z "},"Ų":{"ha":1433,"x_min":0,"x_max":0,"o":"m 1321 972 l 1168 972 b 1147 951 1154 972 1147 965 l 1147 268 b 1050 172 1147 197 1117 172 l 383 172 b 286 268 317 172 286 197 l 286 951 b 264 972 286 965 278 972 l 111 972 b 90 951 97 972 90 965 l 90 253 b 339 0 90 93 167 0 l 718 0 b 674 -15 711 -15 696 -14 l 622 -21 b 525 -142 547 -29 525 -49 b 669 -268 525 -249 557 -268 l 872 -268 b 886 -254 882 -268 886 -262 l 886 -165 b 872 -147 886 -156 881 -147 l 704 -147 b 692 -137 696 -147 692 -143 b 707 -125 692 -131 694 -126 l 806 -112 b 908 -31 874 -104 908 -100 l 908 0 l 1094 0 b 1343 253 1267 0 1343 93 l 1343 951 b 1321 972 1343 965 1335 972 z "},"Ů":{"ha":1433,"x_min":0,"x_max":0,"o":"m 725 1272 l 707 1272 b 590 1156 639 1272 590 1221 l 590 1140 b 707 1025 590 1075 639 1025 l 725 1025 b 842 1140 793 1025 842 1075 l 842 1156 b 725 1272 842 1221 793 1272 z m 746 1154 l 746 1144 b 722 1121 746 1133 736 1121 l 710 1121 b 688 1144 699 1121 688 1133 l 688 1154 b 710 1176 688 1165 699 1176 l 722 1176 b 746 1154 736 1176 746 1165 z m 339 0 l 1094 0 b 1343 253 1267 0 1343 93 l 1343 951 b 1321 972 1343 965 1335 972 l 1168 972 b 1147 951 1154 972 1147 965 l 1147 268 b 1050 172 1147 197 1117 172 l 383 172 b 286 268 317 172 286 197 l 286 951 b 264 972 286 965 278 972 l 111 972 b 90 951 97 972 90 965 l 90 253 b 339 0 90 93 167 0 z "},"Ũ":{"ha":1433,"x_min":0,"x_max":0,"o":"m 806 1040 b 947 1089 853 1040 896 1050 b 961 1122 958 1099 967 1107 l 921 1224 b 894 1231 917 1232 907 1238 b 808 1203 860 1213 844 1203 b 625 1257 742 1203 724 1257 b 483 1208 578 1257 535 1249 b 469 1175 472 1200 464 1190 l 510 1074 b 538 1068 514 1065 524 1060 b 622 1094 569 1088 586 1094 b 806 1040 689 1094 707 1040 z m 339 0 l 1094 0 b 1343 253 1267 0 1343 93 l 1343 951 b 1321 972 1343 965 1335 972 l 1168 972 b 1147 951 1154 972 1147 965 l 1147 268 b 1050 172 1147 197 1117 172 l 383 172 b 286 268 317 172 286 197 l 286 951 b 264 972 286 965 278 972 l 111 972 b 90 951 97 972 90 965 l 90 253 b 339 0 90 93 167 0 z "},"V":{"ha":1538,"x_min":0,"x_max":0,"o":"m 688 0 l 851 0 b 881 22 865 0 872 8 l 1478 944 b 1467 972 1490 961 1481 972 l 1288 972 b 1256 949 1272 972 1265 964 l 778 207 l 760 207 l 282 949 b 250 972 272 964 267 972 l 72 972 b 60 944 58 972 49 961 l 657 22 b 688 0 665 8 672 0 z "},"W":{"ha":2560,"x_min":0,"x_max":0,"o":"m 619 0 l 781 0 b 811 22 796 0 803 8 l 1281 776 l 1749 22 b 1779 0 1757 8 1764 0 l 1940 0 b 1969 22 1954 0 1961 8 l 2500 944 b 2488 972 2510 961 2501 972 l 2311 972 b 2279 949 2296 972 2288 964 l 1865 225 l 1849 225 l 1396 949 b 1365 972 1386 964 1381 972 l 1194 972 b 1164 949 1179 972 1174 964 l 711 225 l 694 225 l 281 949 b 249 972 272 964 264 972 l 72 972 b 60 944 58 972 50 961 l 590 22 b 619 0 599 8 606 0 z "},"Ẃ":{"ha":2560,"x_min":0,"x_max":0,"o":"m 1278 1225 l 1213 1065 b 1225 1040 1204 1049 1210 1040 l 1347 1040 b 1382 1065 1361 1040 1374 1051 l 1506 1225 b 1499 1250 1518 1240 1513 1250 l 1307 1250 b 1278 1225 1293 1250 1286 1242 z m 619 0 l 781 0 b 811 22 796 0 803 8 l 1281 776 l 1749 22 b 1779 0 1757 8 1764 0 l 1940 0 b 1969 22 1954 0 1961 8 l 2500 944 b 2488 972 2510 961 2501 972 l 2311 972 b 2279 949 2296 972 2288 964 l 1865 225 l 1849 225 l 1396 949 b 1365 972 1386 964 1381 972 l 1194 972 b 1164 949 1179 972 1174 964 l 711 225 l 694 225 l 281 949 b 249 972 272 964 264 972 l 72 972 b 60 944 58 972 50 961 l 590 22 b 619 0 599 8 606 0 z "},"Ŵ":{"ha":2560,"x_min":0,"x_max":0,"o":"m 1203 1250 b 1164 1231 1188 1250 1175 1244 l 1022 1067 b 1035 1039 1011 1054 1021 1039 l 1171 1039 b 1217 1068 1192 1039 1203 1051 l 1274 1135 l 1288 1135 l 1344 1068 b 1389 1039 1357 1051 1368 1039 l 1526 1039 b 1538 1067 1540 1039 1550 1054 l 1396 1231 b 1357 1250 1385 1242 1372 1250 z m 619 0 l 781 0 b 811 22 796 0 803 8 l 1281 776 l 1749 22 b 1779 0 1757 8 1764 0 l 1940 0 b 1969 22 1954 0 1961 8 l 2500 944 b 2488 972 2510 961 2501 972 l 2311 972 b 2279 949 2296 972 2288 964 l 1865 225 l 1849 225 l 1396 949 b 1365 972 1386 964 1381 972 l 1194 972 b 1164 949 1179 972 1174 964 l 711 225 l 694 225 l 281 949 b 249 972 272 964 264 972 l 72 972 b 60 944 58 972 50 961 l 590 22 b 619 0 599 8 606 0 z "},"Ẅ":{"ha":2560,"x_min":0,"x_max":0,"o":"m 1019 1058 l 1167 1058 b 1189 1081 1181 1058 1189 1067 l 1189 1228 b 1167 1250 1189 1242 1181 1250 l 1019 1250 b 997 1228 1006 1250 997 1242 l 997 1081 b 1019 1058 997 1067 1006 1058 z m 1371 1058 l 1518 1058 b 1540 1081 1532 1058 1540 1067 l 1540 1228 b 1518 1250 1540 1242 1532 1250 l 1371 1250 b 1349 1228 1357 1250 1349 1242 l 1349 1081 b 1371 1058 1349 1067 1357 1058 z m 619 0 l 781 0 b 811 22 796 0 803 8 l 1281 776 l 1749 22 b 1779 0 1757 8 1764 0 l 1940 0 b 1969 22 1954 0 1961 8 l 2500 944 b 2488 972 2510 961 2501 972 l 2311 972 b 2279 949 2296 972 2288 964 l 1865 225 l 1849 225 l 1396 949 b 1365 972 1386 964 1381 972 l 1194 972 b 1164 949 1179 972 1174 964 l 711 225 l 694 225 l 281 949 b 249 972 272 964 264 972 l 72 972 b 60 944 58 972 50 961 l 590 22 b 619 0 599 8 606 0 z "},"Ẁ":{"ha":2560,"x_min":0,"x_max":0,"o":"m 1282 1225 b 1253 1250 1275 1242 1267 1250 l 1069 1250 b 1056 1225 1054 1250 1043 1240 l 1179 1067 b 1213 1040 1188 1053 1199 1040 l 1335 1040 b 1349 1065 1350 1040 1357 1049 z m 619 0 l 781 0 b 811 22 796 0 803 8 l 1281 776 l 1749 22 b 1779 0 1757 8 1764 0 l 1940 0 b 1969 22 1954 0 1961 8 l 2500 944 b 2488 972 2510 961 2501 972 l 2311 972 b 2279 949 2296 972 2288 964 l 1865 225 l 1849 225 l 1396 949 b 1365 972 1386 964 1381 972 l 1194 972 b 1164 949 1179 972 1174 964 l 711 225 l 694 225 l 281 949 b 249 972 272 964 264 972 l 72 972 b 60 944 58 972 50 961 l 590 22 b 619 0 599 8 606 0 z "},"X":{"ha":1401,"x_min":0,"x_max":0,"o":"m 1333 35 l 832 486 l 1333 938 b 1325 972 1360 963 1340 972 l 1124 972 b 1083 951 1111 972 1100 967 l 700 606 l 317 951 b 275 972 301 965 289 972 l 75 972 b 69 938 60 972 43 963 l 569 486 l 69 35 b 75 0 43 10 60 0 l 275 0 b 317 22 289 0 301 8 l 700 368 l 1083 22 b 1124 0 1100 7 1113 0 l 1326 0 b 1333 35 1342 0 1360 10 z "},"Y":{"ha":1368,"x_min":0,"x_max":0,"o":"m 1294 972 l 1121 972 b 1081 951 1103 972 1093 964 l 692 524 l 676 524 l 288 951 b 247 972 275 964 265 972 l 75 972 b 63 947 60 972 47 963 l 589 371 l 589 21 b 610 0 589 7 596 0 l 758 0 b 781 21 772 0 781 7 l 781 371 l 1306 947 b 1294 972 1321 963 1308 972 z "},"Ý":{"ha":1368,"x_min":0,"x_max":0,"o":"m 682 1225 l 617 1065 b 629 1040 608 1049 614 1040 l 751 1040 b 786 1065 765 1040 778 1051 l 910 1225 b 903 1250 922 1240 917 1250 l 711 1250 b 682 1225 697 1250 690 1242 z m 1294 972 l 1121 972 b 1081 951 1103 972 1093 964 l 692 524 l 676 524 l 288 951 b 247 972 275 964 265 972 l 75 972 b 63 947 60 972 47 963 l 589 371 l 589 21 b 610 0 589 7 596 0 l 758 0 b 781 21 772 0 781 7 l 781 371 l 1306 947 b 1294 972 1321 963 1308 972 z "},"Ŷ":{"ha":1368,"x_min":0,"x_max":0,"o":"m 607 1250 b 568 1231 592 1250 579 1244 l 426 1067 b 439 1039 415 1054 425 1039 l 575 1039 b 621 1068 596 1039 607 1051 l 678 1135 l 692 1135 l 749 1068 b 793 1039 761 1051 772 1039 l 931 1039 b 942 1067 944 1039 954 1054 l 800 1231 b 761 1250 789 1242 776 1250 z m 1294 972 l 1121 972 b 1081 951 1103 972 1093 964 l 692 524 l 676 524 l 288 951 b 247 972 275 964 265 972 l 75 972 b 63 947 60 972 47 963 l 589 371 l 589 21 b 610 0 589 7 596 0 l 758 0 b 781 21 772 0 781 7 l 781 371 l 1306 947 b 1294 972 1321 963 1308 972 z "},"Ÿ":{"ha":1368,"x_min":0,"x_max":0,"o":"m 424 1058 l 571 1058 b 593 1081 585 1058 593 1067 l 593 1228 b 571 1250 593 1242 585 1250 l 424 1250 b 401 1228 410 1250 401 1242 l 401 1081 b 424 1058 401 1067 410 1058 z m 775 1058 l 922 1058 b 944 1081 936 1058 944 1067 l 944 1228 b 922 1250 944 1242 936 1250 l 775 1250 b 753 1228 761 1250 753 1242 l 753 1081 b 775 1058 753 1067 761 1058 z m 1294 972 l 1121 972 b 1081 951 1103 972 1093 964 l 692 524 l 676 524 l 288 951 b 247 972 275 964 265 972 l 75 972 b 63 947 60 972 47 963 l 589 371 l 589 21 b 610 0 589 7 596 0 l 758 0 b 781 21 772 0 781 7 l 781 371 l 1306 947 b 1294 972 1321 963 1308 972 z "},"Ỳ":{"ha":1368,"x_min":0,"x_max":0,"o":"m 686 1225 b 657 1250 679 1242 671 1250 l 474 1250 b 460 1225 458 1250 447 1240 l 583 1067 b 617 1040 592 1053 603 1040 l 739 1040 b 753 1065 754 1040 761 1049 z m 1294 972 l 1121 972 b 1081 951 1103 972 1093 964 l 692 524 l 676 524 l 288 951 b 247 972 275 964 265 972 l 75 972 b 63 947 60 972 47 963 l 589 371 l 589 21 b 610 0 589 7 596 0 l 758 0 b 781 21 772 0 781 7 l 781 371 l 1306 947 b 1294 972 1321 963 1308 972 z "},"Z":{"ha":1264,"x_min":0,"x_max":0,"o":"m 90 0 l 1174 0 b 1194 21 1188 0 1194 7 l 1194 150 b 1174 172 1194 164 1188 172 l 354 172 l 354 186 l 1178 778 b 1193 813 1193 790 1193 803 l 1193 951 b 1172 972 1193 965 1186 972 l 92 972 b 71 951 78 972 71 965 l 71 822 b 92 800 71 808 78 800 l 908 800 l 908 786 l 85 194 b 69 160 69 182 69 169 l 69 21 b 90 0 69 7 76 0 z "},"Ź":{"ha":1264,"x_min":0,"x_max":0,"o":"m 632 1225 l 567 1065 b 579 1040 558 1049 564 1040 l 701 1040 b 736 1065 715 1040 728 1051 l 860 1225 b 853 1250 872 1240 867 1250 l 661 1250 b 632 1225 647 1250 640 1242 z m 90 0 l 1174 0 b 1194 21 1188 0 1194 7 l 1194 150 b 1174 172 1194 164 1188 172 l 354 172 l 354 186 l 1178 778 b 1193 813 1193 790 1193 803 l 1193 951 b 1172 972 1193 965 1186 972 l 92 972 b 71 951 78 972 71 965 l 71 822 b 92 800 71 808 78 800 l 908 800 l 908 786 l 85 194 b 69 160 69 182 69 169 l 69 21 b 90 0 69 7 76 0 z "},"Ž":{"ha":1264,"x_min":0,"x_max":0,"o":"m 557 1039 l 711 1039 b 750 1060 726 1039 739 1047 l 892 1222 b 881 1250 904 1235 894 1250 l 743 1250 b 699 1222 722 1250 711 1239 l 642 1154 l 628 1154 l 571 1222 b 525 1250 557 1239 546 1250 l 389 1250 b 376 1222 375 1250 365 1235 l 518 1060 b 557 1039 529 1046 542 1039 z m 90 0 l 1174 0 b 1194 21 1188 0 1194 7 l 1194 150 b 1174 172 1194 164 1188 172 l 354 172 l 354 186 l 1178 778 b 1193 813 1193 790 1193 803 l 1193 951 b 1172 972 1193 965 1186 972 l 92 972 b 71 951 78 972 71 965 l 71 822 b 92 800 71 808 78 800 l 908 800 l 908 786 l 85 194 b 69 160 69 182 69 169 l 69 21 b 90 0 69 7 76 0 z "},"Ż":{"ha":1264,"x_min":0,"x_max":0,"o":"m 560 1058 l 707 1058 b 729 1081 721 1058 729 1067 l 729 1228 b 707 1250 729 1242 721 1250 l 560 1250 b 538 1228 546 1250 538 1242 l 538 1081 b 560 1058 538 1067 546 1058 z m 90 0 l 1174 0 b 1194 21 1188 0 1194 7 l 1194 150 b 1174 172 1194 164 1188 172 l 354 172 l 354 186 l 1178 778 b 1193 813 1193 790 1193 803 l 1193 951 b 1172 972 1193 965 1186 972 l 92 972 b 71 951 78 972 71 965 l 71 822 b 92 800 71 808 78 800 l 908 800 l 908 786 l 85 194 b 69 160 69 182 69 169 l 69 21 b 90 0 69 7 76 0 z "},"a":{"ha":1036,"x_min":0,"x_max":0,"o":"m 272 -7 l 575 -7 b 768 92 678 -7 731 38 l 779 92 l 779 21 b 801 0 779 7 788 0 l 946 0 b 967 21 960 0 967 7 l 967 467 b 699 700 967 625 881 700 l 315 700 b 89 515 163 700 89 644 b 128 475 89 489 99 475 l 244 475 b 276 499 264 475 271 485 b 361 536 289 525 321 536 l 667 536 b 779 460 740 536 779 526 l 779 415 l 269 415 b 42 213 107 415 42 354 b 272 -7 42 71 132 -7 z m 276 160 b 226 217 250 160 226 174 b 276 274 226 263 250 274 l 779 274 l 779 231 b 697 160 779 201 786 160 z "},"á":{"ha":1036,"x_min":0,"x_max":0,"o":"m 511 947 l 446 788 b 458 763 438 771 443 763 l 581 763 b 615 788 594 763 607 774 l 739 947 b 732 972 751 963 746 972 l 540 972 b 511 947 526 972 519 964 z m 272 -7 l 575 -7 b 768 92 678 -7 731 38 l 779 92 l 779 21 b 801 0 779 7 788 0 l 946 0 b 967 21 960 0 967 7 l 967 467 b 699 700 967 625 881 700 l 315 700 b 89 515 163 700 89 644 b 128 475 89 489 99 475 l 244 475 b 276 499 264 475 271 485 b 361 536 289 525 321 536 l 667 536 b 779 460 740 536 779 526 l 779 415 l 269 415 b 42 213 107 415 42 354 b 272 -7 42 71 132 -7 z m 276 160 b 226 217 250 160 226 174 b 276 274 226 263 250 274 l 779 274 l 779 231 b 697 160 779 201 786 160 z "},"ă":{"ha":1036,"x_min":0,"x_max":0,"o":"m 468 746 l 558 746 b 754 950 693 746 754 813 b 733 972 754 964 747 972 l 624 972 b 603 950 610 972 604 964 b 531 874 597 911 588 874 l 496 874 b 424 950 439 874 428 911 b 401 972 422 964 415 972 l 293 972 b 271 950 279 972 271 964 b 468 746 271 813 332 746 z m 272 -7 l 575 -7 b 768 92 678 -7 731 38 l 779 92 l 779 21 b 801 0 779 7 788 0 l 946 0 b 967 21 960 0 967 7 l 967 467 b 699 700 967 625 881 700 l 315 700 b 89 515 163 700 89 644 b 128 475 89 489 99 475 l 244 475 b 276 499 264 475 271 485 b 361 536 289 525 321 536 l 667 536 b 779 460 740 536 779 526 l 779 415 l 269 415 b 42 213 107 415 42 354 b 272 -7 42 71 132 -7 z m 276 160 b 226 217 250 160 226 174 b 276 274 226 263 250 274 l 779 274 l 779 231 b 697 160 779 201 786 160 z "},"ǎ":{"ha":1036,"x_min":0,"x_max":0,"o":"m 436 761 l 590 761 b 629 782 606 761 618 769 l 771 944 b 760 972 783 957 774 972 l 622 972 b 578 944 601 972 590 961 l 521 876 l 507 876 l 450 944 b 404 972 436 961 425 972 l 268 972 b 256 944 254 972 244 957 l 397 782 b 436 761 408 768 421 761 z m 272 -7 l 575 -7 b 768 92 678 -7 731 38 l 779 92 l 779 21 b 801 0 779 7 788 0 l 946 0 b 967 21 960 0 967 7 l 967 467 b 699 700 967 625 881 700 l 315 700 b 89 515 163 700 89 644 b 128 475 89 489 99 475 l 244 475 b 276 499 264 475 271 485 b 361 536 289 525 321 536 l 667 536 b 779 460 740 536 779 526 l 779 415 l 269 415 b 42 213 107 415 42 354 b 272 -7 42 71 132 -7 z m 276 160 b 226 217 250 160 226 174 b 276 274 226 263 250 274 l 779 274 l 779 231 b 697 160 779 201 786 160 z "},"â":{"ha":1036,"x_min":0,"x_max":0,"o":"m 436 972 b 397 953 421 972 408 967 l 256 789 b 268 761 244 776 254 761 l 404 761 b 450 790 425 761 436 774 l 507 857 l 521 857 l 578 790 b 622 761 590 774 601 761 l 760 761 b 771 789 774 761 783 776 l 629 953 b 590 972 618 964 606 972 z m 272 -7 l 575 -7 b 768 92 678 -7 731 38 l 779 92 l 779 21 b 801 0 779 7 788 0 l 946 0 b 967 21 960 0 967 7 l 967 467 b 699 700 967 625 881 700 l 315 700 b 89 515 163 700 89 644 b 128 475 89 489 99 475 l 244 475 b 276 499 264 475 271 485 b 361 536 289 525 321 536 l 667 536 b 779 460 740 536 779 526 l 779 415 l 269 415 b 42 213 107 415 42 354 b 272 -7 42 71 132 -7 z m 276 160 b 226 217 250 160 226 174 b 276 274 226 263 250 274 l 779 274 l 779 231 b 697 160 779 201 786 160 z "},"ä":{"ha":1036,"x_min":0,"x_max":0,"o":"m 253 781 l 400 781 b 422 803 414 781 422 789 l 422 950 b 400 972 422 964 414 972 l 253 972 b 231 950 239 972 231 964 l 231 803 b 253 781 231 789 239 781 z m 604 781 l 751 781 b 774 803 765 781 774 789 l 774 950 b 751 972 774 964 765 972 l 604 972 b 582 950 590 972 582 964 l 582 803 b 604 781 582 789 590 781 z m 272 -7 l 575 -7 b 768 92 678 -7 731 38 l 779 92 l 779 21 b 801 0 779 7 788 0 l 946 0 b 967 21 960 0 967 7 l 967 467 b 699 700 967 625 881 700 l 315 700 b 89 515 163 700 89 644 b 128 475 89 489 99 475 l 244 475 b 276 499 264 475 271 485 b 361 536 289 525 321 536 l 667 536 b 779 460 740 536 779 526 l 779 415 l 269 415 b 42 213 107 415 42 354 b 272 -7 42 71 132 -7 z m 276 160 b 226 217 250 160 226 174 b 276 274 226 263 250 274 l 779 274 l 779 231 b 697 160 779 201 786 160 z "},"à":{"ha":1036,"x_min":0,"x_max":0,"o":"m 515 947 b 486 972 508 964 500 972 l 303 972 b 289 947 288 972 276 963 l 413 789 b 446 763 421 775 432 763 l 568 763 b 582 788 583 763 590 771 z m 272 -7 l 575 -7 b 768 92 678 -7 731 38 l 779 92 l 779 21 b 801 0 779 7 788 0 l 946 0 b 967 21 960 0 967 7 l 967 467 b 699 700 967 625 881 700 l 315 700 b 89 515 163 700 89 644 b 128 475 89 489 99 475 l 244 475 b 276 499 264 475 271 485 b 361 536 289 525 321 536 l 667 536 b 779 460 740 536 779 526 l 779 415 l 269 415 b 42 213 107 415 42 354 b 272 -7 42 71 132 -7 z m 276 160 b 226 217 250 160 226 174 b 276 274 226 263 250 274 l 779 274 l 779 231 b 697 160 779 201 786 160 z "},"ā":{"ha":1036,"x_min":0,"x_max":0,"o":"m 288 804 l 738 804 b 758 825 750 804 758 811 l 758 951 b 738 972 758 965 750 972 l 288 972 b 267 951 274 972 267 965 l 267 825 b 288 804 267 811 274 804 z m 272 -7 l 575 -7 b 768 92 678 -7 731 38 l 779 92 l 779 21 b 801 0 779 7 788 0 l 946 0 b 967 21 960 0 967 7 l 967 467 b 699 700 967 625 881 700 l 315 700 b 89 515 163 700 89 644 b 128 475 89 489 99 475 l 244 475 b 276 499 264 475 271 485 b 361 536 289 525 321 536 l 667 536 b 779 460 740 536 779 526 l 779 415 l 269 415 b 42 213 107 415 42 354 b 272 -7 42 71 132 -7 z m 276 160 b 226 217 250 160 226 174 b 276 274 226 263 250 274 l 779 274 l 779 231 b 697 160 779 201 786 160 z "},"ą":{"ha":1036,"x_min":0,"x_max":0,"o":"m 699 700 l 315 700 b 89 515 163 700 89 644 b 128 475 89 489 99 475 l 244 475 b 276 499 264 475 271 485 b 361 536 289 525 321 536 l 667 536 b 779 460 740 536 779 526 l 779 415 l 269 415 b 42 213 107 415 42 354 b 272 -7 42 71 132 -7 l 575 -7 b 768 92 678 -7 731 38 l 779 92 l 779 14 b 732 -21 779 -21 761 -19 l 681 -26 b 583 -147 606 -35 583 -54 b 729 -274 583 -254 615 -274 l 931 -274 b 944 -260 940 -274 944 -268 l 944 -171 b 931 -153 944 -161 939 -153 l 763 -153 b 750 -143 754 -153 750 -149 b 765 -131 750 -136 753 -132 l 864 -118 b 967 -36 932 -110 967 -106 l 967 467 b 699 700 967 625 881 700 z m 697 160 l 276 160 b 226 217 250 160 226 174 b 276 274 226 263 250 274 l 779 274 l 779 231 b 697 160 779 201 786 160 z "},"å":{"ha":1036,"x_min":0,"x_max":0,"o":"m 521 994 l 503 994 b 386 878 435 994 386 943 l 386 863 b 503 747 386 797 435 747 l 521 747 b 638 863 589 747 638 797 l 638 878 b 521 994 638 943 589 994 z m 542 876 l 542 867 b 518 843 542 856 532 843 l 506 843 b 483 867 494 843 483 856 l 483 876 b 506 899 483 888 494 899 l 518 899 b 542 876 532 899 542 888 z m 272 -7 l 575 -7 b 768 92 678 -7 731 38 l 779 92 l 779 21 b 801 0 779 7 788 0 l 946 0 b 967 21 960 0 967 7 l 967 467 b 699 700 967 625 881 700 l 315 700 b 89 515 163 700 89 644 b 128 475 89 489 99 475 l 244 475 b 276 499 264 475 271 485 b 361 536 289 525 321 536 l 667 536 b 779 460 740 536 779 526 l 779 415 l 269 415 b 42 213 107 415 42 354 b 272 -7 42 71 132 -7 z m 276 160 b 226 217 250 160 226 174 b 276 274 226 263 250 274 l 779 274 l 779 231 b 697 160 779 201 786 160 z "},"ã":{"ha":1036,"x_min":0,"x_max":0,"o":"m 603 763 b 744 811 650 763 693 772 b 758 844 756 821 764 829 l 718 946 b 692 953 714 954 704 960 b 606 925 657 935 642 925 b 422 979 539 925 521 979 b 281 931 375 979 332 971 b 267 897 269 922 261 913 l 307 796 b 335 790 311 788 321 782 b 419 817 367 810 383 817 b 603 763 486 817 504 763 z m 272 -7 l 575 -7 b 768 92 678 -7 731 38 l 779 92 l 779 21 b 801 0 779 7 788 0 l 946 0 b 967 21 960 0 967 7 l 967 467 b 699 700 967 625 881 700 l 315 700 b 89 515 163 700 89 644 b 128 475 89 489 99 475 l 244 475 b 276 499 264 475 271 485 b 361 536 289 525 321 536 l 667 536 b 779 460 740 536 779 526 l 779 415 l 269 415 b 42 213 107 415 42 354 b 272 -7 42 71 132 -7 z m 276 160 b 226 217 250 160 226 174 b 276 274 226 263 250 274 l 779 274 l 779 231 b 697 160 779 201 786 160 z "},"æ":{"ha":1738,"x_min":0,"x_max":0,"o":"m 1583 279 b 1675 372 1643 279 1675 314 l 1675 467 b 1436 700 1675 611 1588 700 l 1018 700 b 868 658 957 700 907 685 b 699 700 831 686 776 700 l 315 700 b 89 518 163 700 89 646 b 128 478 89 492 99 478 l 244 478 b 276 501 264 478 271 488 b 361 536 289 528 321 536 l 667 536 b 779 460 740 536 779 526 l 779 415 l 269 415 b 42 213 107 415 42 354 b 272 -7 42 71 132 -7 l 624 -7 b 814 88 725 -7 776 36 l 818 88 b 1018 -7 857 28 926 -7 l 1389 -7 b 1661 118 1546 -7 1611 28 b 1650 154 1669 132 1671 144 l 1597 178 b 1547 183 1576 189 1563 189 b 1379 158 1476 160 1465 158 l 1046 158 b 967 228 997 158 967 183 l 967 279 z m 1046 533 l 1408 533 b 1488 464 1457 533 1488 508 l 1488 411 l 967 411 l 967 464 b 1046 533 967 508 997 533 z m 697 160 l 276 160 b 226 217 250 160 226 174 b 276 274 226 263 250 274 l 779 274 l 779 229 l 779 219 b 697 160 779 193 776 160 z "},"b":{"ha":1044,"x_min":0,"x_max":0,"o":"m 744 -7 b 982 229 894 -7 982 85 l 982 467 b 744 700 982 611 894 700 l 435 700 b 269 631 331 700 306 676 l 257 631 l 257 951 b 238 972 257 965 246 972 l 90 972 b 69 951 76 972 69 965 l 69 21 b 90 0 69 7 76 0 l 235 0 b 257 21 249 0 257 7 l 257 64 l 269 64 b 435 -7 306 17 331 -7 z m 722 160 l 314 160 b 257 229 283 160 257 185 l 257 464 b 314 533 257 508 283 533 l 722 533 b 794 464 764 533 794 508 l 794 229 b 722 160 794 185 764 160 z "},"c":{"ha":1013,"x_min":0,"x_max":0,"o":"m 301 -7 l 671 -7 b 944 118 828 -7 893 28 b 933 154 953 132 953 144 l 881 178 b 829 183 860 189 844 189 b 663 158 760 160 749 158 l 329 158 b 250 228 281 158 250 183 l 250 464 b 329 533 250 508 281 533 l 699 533 b 774 472 751 533 774 515 l 774 439 b 803 415 774 424 786 415 l 928 415 b 957 443 946 415 957 425 l 957 476 b 725 700 957 617 890 700 l 301 700 b 63 467 150 700 63 611 l 63 229 b 301 -7 63 85 150 -7 z "},"ć":{"ha":1013,"x_min":0,"x_max":0,"o":"m 504 947 l 439 788 b 451 763 431 771 436 763 l 574 763 b 608 788 588 763 600 774 l 732 947 b 725 972 744 963 739 972 l 533 972 b 504 947 519 972 513 964 z m 301 -7 l 671 -7 b 944 118 828 -7 893 28 b 933 154 953 132 953 144 l 881 178 b 829 183 860 189 844 189 b 663 158 760 160 749 158 l 329 158 b 250 228 281 158 250 183 l 250 464 b 329 533 250 508 281 533 l 699 533 b 774 472 751 533 774 515 l 774 439 b 803 415 774 424 786 415 l 928 415 b 957 443 946 415 957 425 l 957 476 b 725 700 957 617 890 700 l 301 700 b 63 467 150 700 63 611 l 63 229 b 301 -7 63 85 150 -7 z "},"č":{"ha":1013,"x_min":0,"x_max":0,"o":"m 428 761 l 582 761 b 621 782 597 761 610 769 l 763 944 b 751 972 775 957 765 972 l 614 972 b 569 944 593 972 582 961 l 513 876 l 499 876 l 442 944 b 396 972 428 961 417 972 l 260 972 b 247 944 246 972 236 957 l 389 782 b 428 761 400 768 413 761 z m 301 -7 l 671 -7 b 944 118 828 -7 893 28 b 933 154 953 132 953 144 l 881 178 b 829 183 860 189 844 189 b 663 158 760 160 749 158 l 329 158 b 250 228 281 158 250 183 l 250 464 b 329 533 250 508 281 533 l 699 533 b 774 472 751 533 774 515 l 774 439 b 803 415 774 424 786 415 l 928 415 b 957 443 946 415 957 425 l 957 476 b 725 700 957 617 890 700 l 301 700 b 63 467 150 700 63 611 l 63 229 b 301 -7 63 85 150 -7 z "},"ç":{"ha":1013,"x_min":0,"x_max":0,"o":"m 803 415 l 928 415 b 957 443 946 415 957 425 l 957 476 b 725 700 957 617 890 700 l 301 700 b 63 467 150 700 63 611 l 63 229 b 301 -7 63 85 150 -7 l 453 -7 b 397 -82 414 -42 397 -56 b 454 -131 397 -117 422 -128 b 596 -164 575 -142 596 -146 b 558 -182 596 -178 579 -182 l 531 -182 b 497 -168 514 -182 503 -174 b 482 -154 496 -160 490 -154 l 369 -154 b 356 -174 358 -154 356 -161 b 479 -287 356 -240 386 -287 l 599 -287 b 738 -162 690 -287 738 -240 b 617 -37 738 -76 714 -47 b 608 -7 590 -36 560 -32 l 671 -7 b 944 118 828 -7 893 28 b 933 154 953 132 953 144 l 881 178 b 829 183 860 189 844 189 b 663 158 760 160 749 158 l 329 158 b 250 228 281 158 250 183 l 250 464 b 329 533 250 508 281 533 l 699 533 b 774 472 751 533 774 515 l 774 439 b 803 415 774 424 786 415 z "},"ċ":{"ha":1013,"x_min":0,"x_max":0,"o":"m 432 781 l 579 781 b 601 803 593 781 601 789 l 601 950 b 579 972 601 964 593 972 l 432 972 b 410 950 418 972 410 964 l 410 803 b 432 781 410 789 418 781 z m 301 -7 l 671 -7 b 944 118 828 -7 893 28 b 933 154 953 132 953 144 l 881 178 b 829 183 860 189 844 189 b 663 158 760 160 749 158 l 329 158 b 250 228 281 158 250 183 l 250 464 b 329 533 250 508 281 533 l 699 533 b 774 472 751 533 774 515 l 774 439 b 803 415 774 424 786 415 l 928 415 b 957 443 946 415 957 425 l 957 476 b 725 700 957 617 890 700 l 301 700 b 63 467 150 700 63 611 l 63 229 b 301 -7 63 85 150 -7 z "},"d":{"ha":1044,"x_min":0,"x_max":0,"o":"m 300 -7 l 610 -7 b 775 64 714 -7 739 17 l 788 64 l 788 21 b 810 0 788 7 796 0 l 954 0 b 975 21 968 0 975 7 l 975 951 b 954 972 975 965 968 972 l 807 972 b 788 951 799 972 788 965 l 788 631 l 775 631 b 610 700 739 676 714 700 l 300 700 b 63 467 150 700 63 611 l 63 229 b 300 -7 63 85 150 -7 z m 322 160 b 250 229 281 160 250 185 l 250 464 b 322 533 250 508 281 533 l 731 533 b 788 464 761 533 788 508 l 788 229 b 731 160 788 185 761 160 z "},"ð":{"ha":1081,"x_min":0,"x_max":0,"o":"m 993 1007 l 888 1007 b 842 983 872 1007 860 1003 l 817 957 b 713 972 786 967 751 972 l 324 972 b 301 951 310 972 301 965 l 301 826 b 324 806 301 813 310 806 l 667 806 l 621 758 b 636 733 610 746 619 733 l 742 733 b 783 753 754 733 768 739 b 788 717 786 742 788 731 l 788 631 l 775 631 b 610 700 739 676 714 700 l 300 700 b 63 467 150 700 63 611 l 63 229 b 300 -7 63 85 150 -7 l 610 -7 b 775 64 714 -7 739 17 l 788 64 l 788 21 b 810 0 788 7 796 0 l 954 0 b 975 21 968 0 975 7 l 975 725 b 918 892 975 793 956 850 l 1006 982 b 993 1007 1018 996 1010 1007 z m 788 229 b 731 160 788 185 761 160 l 322 160 b 250 229 281 160 250 185 l 250 464 b 322 533 250 508 281 533 l 731 533 b 788 464 761 533 788 508 z "},"ď":{"ha":1242,"x_min":0,"x_max":0,"o":"m 300 -7 l 610 -7 b 775 64 714 -7 739 17 l 788 64 l 788 21 b 810 0 788 7 796 0 l 954 0 b 975 21 968 0 975 7 l 975 951 b 954 972 975 965 968 972 l 807 972 b 788 951 799 972 788 965 l 788 631 l 775 631 b 610 700 739 676 714 700 l 300 700 b 63 467 150 700 63 611 l 63 229 b 300 -7 63 85 150 -7 z m 1264 972 l 1143 972 b 1122 950 1129 972 1122 964 l 1122 704 l 1058 704 b 1036 682 1044 704 1036 696 l 1036 569 b 1058 549 1036 556 1044 549 l 1232 549 b 1286 601 1267 549 1286 567 l 1286 950 b 1264 972 1286 964 1278 972 z m 322 160 b 250 229 281 160 250 185 l 250 464 b 322 533 250 508 281 533 l 731 533 b 788 464 761 533 788 508 l 788 229 b 731 160 788 185 761 160 z "},"đ":{"ha":1063,"x_min":0,"x_max":0,"o":"m 1021 889 l 975 889 l 975 951 b 954 972 975 965 968 972 l 807 972 b 788 951 799 972 788 965 l 788 889 l 571 889 b 550 868 557 889 550 882 l 550 742 b 571 721 550 728 557 721 l 788 721 l 788 631 l 775 631 b 610 700 739 676 714 700 l 300 700 b 63 467 150 700 63 611 l 63 229 b 300 -7 63 85 150 -7 l 610 -7 b 775 64 714 -7 739 17 l 788 64 l 788 21 b 810 0 788 7 796 0 l 954 0 b 975 21 968 0 975 7 l 975 721 l 1021 721 b 1042 742 1033 721 1042 728 l 1042 868 b 1021 889 1042 882 1033 889 z m 788 229 b 731 160 788 185 761 160 l 322 160 b 250 229 281 160 250 185 l 250 464 b 322 533 250 508 281 533 l 731 533 b 788 464 761 533 788 508 z "},"e":{"ha":1021,"x_min":0,"x_max":0,"o":"m 867 279 b 958 372 926 279 958 314 l 958 467 b 719 700 958 611 869 700 l 301 700 b 63 467 150 700 63 611 l 63 229 b 301 -7 63 85 150 -7 l 671 -7 b 944 118 828 -7 893 28 b 933 154 953 132 953 144 l 881 178 b 829 183 860 189 844 189 b 663 158 760 160 749 158 l 329 158 b 250 228 281 158 250 183 l 250 279 z m 329 533 l 692 533 b 771 464 740 533 771 508 l 771 411 l 250 411 l 250 464 b 329 533 250 508 281 533 z "},"é":{"ha":1021,"x_min":0,"x_max":0,"o":"m 451 763 l 574 763 b 608 788 588 763 600 774 l 732 947 b 725 972 744 963 739 972 l 533 972 b 504 947 519 972 513 964 l 439 788 b 451 763 431 771 436 763 z m 867 279 b 958 372 926 279 958 314 l 958 467 b 719 700 958 611 869 700 l 301 700 b 63 467 150 700 63 611 l 63 229 b 301 -7 63 85 150 -7 l 671 -7 b 944 118 828 -7 893 28 b 933 154 953 132 953 144 l 881 178 b 829 183 860 189 844 189 b 663 158 760 160 749 158 l 329 158 b 250 228 281 158 250 183 l 250 279 z m 329 533 l 692 533 b 771 464 740 533 771 508 l 771 411 l 250 411 l 250 464 b 329 533 250 508 281 533 z "},"ě":{"ha":1021,"x_min":0,"x_max":0,"o":"m 390 782 b 429 761 401 768 414 761 l 583 761 b 622 782 599 761 611 769 l 764 944 b 753 972 776 957 767 972 l 615 972 b 571 944 594 972 583 961 l 514 876 l 500 876 l 443 944 b 397 972 429 961 418 972 l 261 972 b 249 944 247 972 238 957 z m 867 279 b 958 372 926 279 958 314 l 958 467 b 719 700 958 611 869 700 l 301 700 b 63 467 150 700 63 611 l 63 229 b 301 -7 63 85 150 -7 l 671 -7 b 944 118 828 -7 893 28 b 933 154 953 132 953 144 l 881 178 b 829 183 860 189 844 189 b 663 158 760 160 749 158 l 329 158 b 250 228 281 158 250 183 l 250 279 z m 329 533 l 692 533 b 771 464 740 533 771 508 l 771 411 l 250 411 l 250 464 b 329 533 250 508 281 533 z "},"ȩ":{"ha":1021,"x_min":0,"x_max":0,"o":"m 867 279 b 958 372 926 279 958 314 l 958 467 b 719 700 958 611 869 700 l 301 700 b 63 467 150 700 63 611 l 63 229 b 301 -7 63 85 150 -7 l 453 -7 b 397 -82 414 -42 397 -56 b 454 -131 397 -117 422 -128 b 596 -164 575 -142 596 -146 b 558 -182 596 -178 579 -182 l 531 -182 b 497 -168 514 -182 503 -174 b 482 -154 496 -160 490 -154 l 369 -154 b 356 -174 358 -154 356 -161 b 479 -287 356 -240 386 -287 l 599 -287 b 738 -162 690 -287 738 -240 b 617 -37 738 -76 714 -47 b 608 -7 590 -36 560 -32 l 671 -7 b 944 118 828 -7 893 28 b 933 154 953 132 953 144 l 881 178 b 829 183 860 189 844 189 b 663 158 760 160 749 158 l 329 158 b 250 228 281 158 250 183 l 250 279 z m 329 533 l 692 533 b 771 464 740 533 771 508 l 771 411 l 250 411 l 250 464 b 329 533 250 508 281 533 z "},"ê":{"ha":1021,"x_min":0,"x_max":0,"o":"m 261 761 l 397 761 b 443 790 418 761 429 774 l 500 857 l 514 857 l 571 790 b 615 761 583 774 594 761 l 753 761 b 764 789 767 761 776 776 l 622 953 b 583 972 611 964 599 972 l 429 972 b 390 953 414 972 401 967 l 249 789 b 261 761 238 776 247 761 z m 867 279 b 958 372 926 279 958 314 l 958 467 b 719 700 958 611 869 700 l 301 700 b 63 467 150 700 63 611 l 63 229 b 301 -7 63 85 150 -7 l 671 -7 b 944 118 828 -7 893 28 b 933 154 953 132 953 144 l 881 178 b 829 183 860 189 844 189 b 663 158 760 160 749 158 l 329 158 b 250 228 281 158 250 183 l 250 279 z m 329 533 l 692 533 b 771 464 740 533 771 508 l 771 411 l 250 411 l 250 464 b 329 533 250 508 281 533 z "},"ë":{"ha":1021,"x_min":0,"x_max":0,"o":"m 246 781 l 393 781 b 415 803 407 781 415 789 l 415 950 b 393 972 415 964 407 972 l 246 972 b 224 950 232 972 224 964 l 224 803 b 246 781 224 789 232 781 z m 597 781 l 744 781 b 767 803 758 781 767 789 l 767 950 b 744 972 767 964 758 972 l 597 972 b 575 950 583 972 575 964 l 575 803 b 597 781 575 789 583 781 z m 867 279 b 958 372 926 279 958 314 l 958 467 b 719 700 958 611 869 700 l 301 700 b 63 467 150 700 63 611 l 63 229 b 301 -7 63 85 150 -7 l 671 -7 b 944 118 828 -7 893 28 b 933 154 953 132 953 144 l 881 178 b 829 183 860 189 844 189 b 663 158 760 160 749 158 l 329 158 b 250 228 281 158 250 183 l 250 279 z m 329 533 l 692 533 b 771 464 740 533 771 508 l 771 411 l 250 411 l 250 464 b 329 533 250 508 281 533 z "},"ė":{"ha":1021,"x_min":0,"x_max":0,"o":"m 432 781 l 579 781 b 601 803 593 781 601 789 l 601 950 b 579 972 601 964 593 972 l 432 972 b 410 950 418 972 410 964 l 410 803 b 432 781 410 789 418 781 z m 867 279 b 958 372 926 279 958 314 l 958 467 b 719 700 958 611 869 700 l 301 700 b 63 467 150 700 63 611 l 63 229 b 301 -7 63 85 150 -7 l 671 -7 b 944 118 828 -7 893 28 b 933 154 953 132 953 144 l 881 178 b 829 183 860 189 844 189 b 663 158 760 160 749 158 l 329 158 b 250 228 281 158 250 183 l 250 279 z m 329 533 l 692 533 b 771 464 740 533 771 508 l 771 411 l 250 411 l 250 464 b 329 533 250 508 281 533 z "},"è":{"ha":1021,"x_min":0,"x_max":0,"o":"m 406 789 b 439 763 414 775 425 763 l 561 763 b 575 788 576 763 583 771 l 508 947 b 479 972 501 964 493 972 l 296 972 b 282 947 281 972 269 963 z m 867 279 b 958 372 926 279 958 314 l 958 467 b 719 700 958 611 869 700 l 301 700 b 63 467 150 700 63 611 l 63 229 b 301 -7 63 85 150 -7 l 671 -7 b 944 118 828 -7 893 28 b 933 154 953 132 953 144 l 881 178 b 829 183 860 189 844 189 b 663 158 760 160 749 158 l 329 158 b 250 228 281 158 250 183 l 250 279 z m 329 533 l 692 533 b 771 464 740 533 771 508 l 771 411 l 250 411 l 250 464 b 329 533 250 508 281 533 z "},"ē":{"ha":1021,"x_min":0,"x_max":0,"o":"m 281 804 l 731 804 b 751 825 743 804 751 811 l 751 951 b 731 972 751 965 743 972 l 281 972 b 260 951 267 972 260 965 l 260 825 b 281 804 260 811 267 804 z m 867 279 b 958 372 926 279 958 314 l 958 467 b 719 700 958 611 869 700 l 301 700 b 63 467 150 700 63 611 l 63 229 b 301 -7 63 85 150 -7 l 671 -7 b 944 118 828 -7 893 28 b 933 154 953 132 953 144 l 881 178 b 829 183 860 189 844 189 b 663 158 760 160 749 158 l 329 158 b 250 228 281 158 250 183 l 250 279 z m 329 533 l 692 533 b 771 464 740 533 771 508 l 771 411 l 250 411 l 250 464 b 329 533 250 508 281 533 z "},"ę":{"ha":1021,"x_min":0,"x_max":0,"o":"m 867 279 b 958 372 926 279 958 314 l 958 467 b 719 700 958 611 869 700 l 301 700 b 63 467 150 700 63 611 l 63 229 b 301 -7 63 85 150 -7 l 476 -7 b 429 -35 474 -35 456 -33 l 378 -40 b 281 -161 303 -49 281 -68 b 426 -287 281 -268 313 -287 l 628 -287 b 642 -274 638 -287 642 -282 l 642 -185 b 628 -167 642 -175 636 -167 l 460 -167 b 447 -157 451 -167 447 -162 b 463 -144 447 -150 450 -146 l 561 -132 b 664 -50 629 -124 664 -119 l 664 -7 l 671 -7 b 944 118 828 -7 893 28 b 933 154 953 132 953 144 l 881 178 b 829 183 860 189 844 189 b 663 158 760 160 749 158 l 329 158 b 250 228 281 158 250 183 l 250 279 z m 329 533 l 692 533 b 771 464 740 533 771 508 l 771 411 l 250 411 l 250 464 b 329 533 250 508 281 533 z "},"f":{"ha":857,"x_min":0,"x_max":0,"o":"m 788 972 l 390 972 b 153 739 239 972 153 883 l 153 694 l 76 694 b 56 674 63 694 56 688 l 56 549 b 76 528 56 535 63 528 l 153 528 l 153 21 b 174 0 153 7 160 0 l 318 0 b 339 21 332 0 339 7 l 339 528 l 774 528 b 794 549 788 528 794 535 l 794 674 b 774 694 794 688 788 694 l 339 694 l 339 736 b 411 806 339 781 369 806 l 788 806 b 808 826 801 806 808 813 l 808 951 b 788 972 808 965 801 972 z "},"g":{"ha":1044,"x_min":0,"x_max":0,"o":"m 253 -251 l 738 -251 b 975 -18 888 -251 975 -162 l 975 674 b 954 694 975 688 968 694 l 807 694 b 788 674 799 694 788 688 l 788 631 l 775 631 b 610 700 739 676 714 700 l 300 700 b 63 467 150 700 63 611 l 63 229 b 300 -7 63 85 150 -7 l 610 -7 b 775 64 714 -7 739 17 l 788 64 l 788 -8 b 681 -97 788 -69 757 -97 l 253 -97 b 232 -121 239 -97 232 -106 l 232 -231 b 253 -251 232 -244 239 -251 z m 322 160 b 250 229 281 160 250 185 l 250 464 b 322 533 250 508 281 533 l 731 533 b 788 464 761 533 788 508 l 788 229 b 731 160 788 185 761 160 z "},"ğ":{"ha":1044,"x_min":0,"x_max":0,"o":"m 483 746 l 574 746 b 769 950 708 746 769 813 b 749 972 769 964 763 972 l 639 972 b 618 950 625 972 619 964 b 546 874 613 911 603 874 l 511 874 b 439 950 454 874 443 911 b 417 972 438 964 431 972 l 308 972 b 286 950 294 972 286 964 b 483 746 286 813 347 746 z m 253 -251 l 738 -251 b 975 -18 888 -251 975 -162 l 975 674 b 954 694 975 688 968 694 l 807 694 b 788 674 799 694 788 688 l 788 631 l 775 631 b 610 700 739 676 714 700 l 300 700 b 63 467 150 700 63 611 l 63 229 b 300 -7 63 85 150 -7 l 610 -7 b 775 64 714 -7 739 17 l 788 64 l 788 -8 b 681 -97 788 -69 757 -97 l 253 -97 b 232 -121 239 -97 232 -106 l 232 -231 b 253 -251 232 -244 239 -251 z m 322 160 b 250 229 281 160 250 185 l 250 464 b 322 533 250 508 281 533 l 731 533 b 788 464 761 533 788 508 l 788 229 b 731 160 788 185 761 160 z "},"ǧ":{"ha":1044,"x_min":0,"x_max":0,"o":"m 451 761 l 606 761 b 644 782 621 761 633 769 l 786 944 b 775 972 799 957 789 972 l 638 972 b 593 944 617 972 606 961 l 536 876 l 522 876 l 465 944 b 419 972 451 961 440 972 l 283 972 b 271 944 269 972 260 957 l 413 782 b 451 761 424 768 436 761 z m 253 -251 l 738 -251 b 975 -18 888 -251 975 -162 l 975 674 b 954 694 975 688 968 694 l 807 694 b 788 674 799 694 788 688 l 788 631 l 775 631 b 610 700 739 676 714 700 l 300 700 b 63 467 150 700 63 611 l 63 229 b 300 -7 63 85 150 -7 l 610 -7 b 775 64 714 -7 739 17 l 788 64 l 788 -8 b 681 -97 788 -69 757 -97 l 253 -97 b 232 -121 239 -97 232 -106 l 232 -231 b 253 -251 232 -244 239 -251 z m 322 160 b 250 229 281 160 250 185 l 250 464 b 322 533 250 508 281 533 l 731 533 b 788 464 761 533 788 508 l 788 229 b 731 160 788 185 761 160 z "},"ģ":{"ha":1058,"x_min":0,"x_max":0,"o":"m 414 779 l 535 779 b 557 801 549 779 557 788 l 557 1047 l 621 1047 b 642 1069 635 1047 642 1056 l 642 1182 b 621 1203 642 1196 635 1203 l 446 1203 b 393 1150 411 1203 393 1185 l 393 801 b 414 779 393 788 400 779 z m 253 -251 l 738 -251 b 975 -18 888 -251 975 -162 l 975 674 b 954 694 975 688 968 694 l 807 694 b 788 674 799 694 788 688 l 788 631 l 775 631 b 610 700 739 676 714 700 l 300 700 b 63 467 150 700 63 611 l 63 229 b 300 -7 63 85 150 -7 l 610 -7 b 775 64 714 -7 739 17 l 788 64 l 788 -8 b 681 -97 788 -69 757 -97 l 253 -97 b 232 -121 239 -97 232 -106 l 232 -231 b 253 -251 232 -244 239 -251 z m 322 160 b 250 229 281 160 250 185 l 250 464 b 322 533 250 508 281 533 l 731 533 b 788 464 761 533 788 508 l 788 229 b 731 160 788 185 761 160 z "},"ġ":{"ha":1044,"x_min":0,"x_max":0,"o":"m 454 781 l 601 781 b 624 803 615 781 624 789 l 624 950 b 601 972 624 964 615 972 l 454 972 b 432 950 440 972 432 964 l 432 803 b 454 781 432 789 440 781 z m 253 -251 l 738 -251 b 975 -18 888 -251 975 -162 l 975 674 b 954 694 975 688 968 694 l 807 694 b 788 674 799 694 788 688 l 788 631 l 775 631 b 610 700 739 676 714 700 l 300 700 b 63 467 150 700 63 611 l 63 229 b 300 -7 63 85 150 -7 l 610 -7 b 775 64 714 -7 739 17 l 788 64 l 788 -8 b 681 -97 788 -69 757 -97 l 253 -97 b 232 -121 239 -97 232 -106 l 232 -231 b 253 -251 232 -244 239 -251 z m 322 160 b 250 229 281 160 250 185 l 250 464 b 322 533 250 508 281 533 l 731 533 b 788 464 761 533 788 508 l 788 229 b 731 160 788 185 761 160 z "},"h":{"ha":1051,"x_min":0,"x_max":0,"o":"m 744 700 l 435 700 b 269 631 331 700 306 676 l 257 631 l 257 951 b 235 972 257 965 249 972 l 90 972 b 69 951 76 972 69 965 l 69 21 b 90 0 69 7 76 0 l 235 0 b 257 21 249 0 257 7 l 257 464 b 332 533 257 508 283 533 l 715 533 b 794 464 764 533 794 508 l 794 21 b 817 0 794 7 803 0 l 961 0 b 982 21 975 0 982 7 l 982 467 b 744 700 982 611 894 700 z "},"ħ":{"ha":1093,"x_min":0,"x_max":0,"o":"m 786 700 l 476 700 b 311 631 372 700 347 676 l 299 631 l 299 739 l 407 739 b 428 760 421 739 428 746 l 428 876 b 407 897 428 890 421 897 l 299 897 l 299 951 b 276 972 299 965 290 972 l 132 972 b 111 951 118 972 111 965 l 111 897 l 63 897 b 42 876 49 897 42 890 l 42 760 b 63 739 42 746 49 739 l 111 739 l 111 21 b 132 0 111 7 118 0 l 276 0 b 299 21 290 0 299 7 l 299 464 b 374 533 299 508 325 533 l 757 533 b 836 464 806 533 836 508 l 836 21 b 858 0 836 7 844 0 l 1003 0 b 1024 21 1017 0 1024 7 l 1024 467 b 786 700 1024 611 936 700 z "},"i":{"ha":326,"x_min":0,"x_max":0,"o":"m 69 951 l 69 813 b 90 790 69 799 76 790 l 235 790 b 257 813 249 790 257 799 l 257 951 b 235 972 257 965 249 972 l 90 972 b 69 951 76 972 69 965 z m 69 674 l 69 21 b 90 0 69 7 76 0 l 235 0 b 257 21 249 0 257 7 l 257 674 b 235 694 257 688 249 694 l 90 694 b 69 674 76 694 69 688 z "},"ı":{"ha":326,"x_min":0,"x_max":0,"o":"m 69 674 l 69 21 b 90 0 69 7 76 0 l 235 0 b 257 21 249 0 257 7 l 257 674 b 235 694 257 688 249 694 l 90 694 b 69 674 76 694 69 688 z "},"í":{"ha":326,"x_min":0,"x_max":0,"o":"m 158 947 l 93 788 b 106 763 85 771 90 763 l 228 763 b 263 788 242 763 254 774 l 386 947 b 379 972 399 963 393 972 l 188 972 b 158 947 174 972 167 964 z m 69 674 l 69 21 b 90 0 69 7 76 0 l 235 0 b 257 21 249 0 257 7 l 257 674 b 235 694 257 688 249 694 l 90 694 b 69 674 76 694 69 688 z "},"ǐ":{"ha":326,"x_min":0,"x_max":0,"o":"m 83 761 l 238 761 b 276 782 253 761 265 769 l 418 944 b 407 972 431 957 421 972 l 269 972 b 225 944 249 972 238 961 l 168 876 l 154 876 l 97 944 b 51 972 83 961 72 972 l -85 972 b -97 944 -99 972 -108 957 l 44 782 b 83 761 56 768 68 761 z m 69 674 l 69 21 b 90 0 69 7 76 0 l 235 0 b 257 21 249 0 257 7 l 257 674 b 235 694 257 688 249 694 l 90 694 b 69 674 76 694 69 688 z "},"î":{"ha":326,"x_min":0,"x_max":0,"o":"m 83 972 b 44 953 68 972 56 967 l -97 789 b -85 761 -108 776 -99 761 l 51 761 b 97 790 72 761 83 774 l 154 857 l 168 857 l 225 790 b 269 761 238 774 249 761 l 407 761 b 418 789 421 761 431 776 l 276 953 b 238 972 265 964 253 972 z m 69 674 l 69 21 b 90 0 69 7 76 0 l 235 0 b 257 21 249 0 257 7 l 257 674 b 235 694 257 688 249 694 l 90 694 b 69 674 76 694 69 688 z "},"ï":{"ha":326,"x_min":0,"x_max":0,"o":"m -100 781 l 47 781 b 69 803 61 781 69 789 l 69 950 b 47 972 69 964 61 972 l -100 972 b -122 950 -114 972 -122 964 l -122 803 b -100 781 -122 789 -114 781 z m 251 781 l 399 781 b 421 803 413 781 421 789 l 421 950 b 399 972 421 964 413 972 l 251 972 b 229 950 238 972 229 964 l 229 803 b 251 781 229 789 238 781 z m 69 674 l 69 21 b 90 0 69 7 76 0 l 235 0 b 257 21 249 0 257 7 l 257 674 b 235 694 257 688 249 694 l 90 694 b 69 674 76 694 69 688 z "},"ì":{"ha":326,"x_min":0,"x_max":0,"o":"m 163 947 b 133 972 156 964 147 972 l -50 972 b -64 947 -65 972 -76 963 l 60 789 b 93 763 68 775 79 763 l 215 763 b 229 788 231 763 238 771 z m 69 674 l 69 21 b 90 0 69 7 76 0 l 235 0 b 257 21 249 0 257 7 l 257 674 b 235 694 257 688 249 694 l 90 694 b 69 674 76 694 69 688 z "},"ĳ":{"ha":682,"x_min":0,"x_max":0,"o":"m 69 951 l 69 813 b 90 790 69 799 76 790 l 235 790 b 257 813 249 790 257 799 l 257 951 b 235 972 257 965 249 972 l 90 972 b 69 951 76 972 69 965 z m 447 790 l 592 790 b 614 813 606 790 614 799 l 614 951 b 592 972 614 965 606 972 l 447 972 b 426 951 433 972 426 965 l 426 813 b 447 790 426 799 433 790 z m 69 674 l 69 21 b 90 0 69 7 76 0 l 235 0 b 257 21 249 0 257 7 l 257 674 b 235 694 257 688 249 694 l 90 694 b 69 674 76 694 69 688 z m 372 -251 b 614 -18 525 -251 614 -162 l 614 674 b 592 694 614 688 606 694 l 447 694 b 426 674 433 694 426 688 l 426 3 b 317 -87 426 -60 396 -87 l 238 -87 b 201 -118 217 -87 201 -96 l 201 -200 b 236 -243 201 -229 214 -240 b 372 -251 267 -249 307 -251 z "},"ī":{"ha":326,"x_min":0,"x_max":0,"o":"m -65 804 l 385 804 b 406 825 397 804 406 811 l 406 951 b 385 972 406 965 397 972 l -65 972 b -86 951 -79 972 -86 965 l -86 825 b -65 804 -86 811 -79 804 z m 69 674 l 69 21 b 90 0 69 7 76 0 l 235 0 b 257 21 249 0 257 7 l 257 674 b 235 694 257 688 249 694 l 90 694 b 69 674 76 694 69 688 z "},"į":{"ha":326,"x_min":0,"x_max":0,"o":"m 86 781 l 233 781 b 256 803 247 781 256 789 l 256 950 b 233 972 256 964 247 972 l 86 972 b 64 950 72 972 64 964 l 64 803 b 86 781 64 789 72 781 z m 235 694 l 90 694 b 69 674 76 694 69 688 l 69 0 b 22 -35 69 -35 51 -33 l -29 -40 b -126 -161 -104 -49 -126 -68 b 19 -287 -126 -268 -94 -287 l 221 -287 b 235 -274 231 -287 235 -282 l 235 -185 b 221 -167 235 -175 229 -167 l 53 -167 b 40 -157 44 -167 40 -162 b 56 -144 40 -150 43 -146 l 154 -132 b 257 -50 222 -124 257 -119 l 257 674 b 235 694 257 688 249 694 z "},"j":{"ha":329,"x_min":0,"x_max":0,"o":"m 93 790 l 238 790 b 260 813 251 790 260 799 l 260 951 b 238 972 260 965 251 972 l 93 972 b 72 951 79 972 72 965 l 72 813 b 93 790 72 799 79 790 z m 18 -251 b 260 -18 171 -251 260 -162 l 260 674 b 238 694 260 688 251 694 l 93 694 b 72 674 79 694 72 688 l 72 3 b -37 -87 72 -60 42 -87 l -117 -87 b -153 -118 -139 -87 -153 -96 l -153 -200 b -118 -243 -153 -229 -140 -240 b 18 -251 -87 -249 -47 -251 z "},"ȷ":{"ha":329,"x_min":0,"x_max":0,"o":"m 18 -251 b 260 -18 171 -251 260 -162 l 260 674 b 238 694 260 688 251 694 l 93 694 b 72 674 79 694 72 688 l 72 3 b -37 -87 72 -60 42 -87 l -117 -87 b -153 -118 -139 -87 -153 -96 l -153 -200 b -118 -243 -153 -229 -140 -240 b 18 -251 -87 -249 -47 -251 z "},"k":{"ha":1053,"x_min":0,"x_max":0,"o":"m 1003 39 l 538 407 l 964 644 b 960 694 994 663 986 694 l 774 694 b 724 681 750 694 738 689 l 257 415 l 257 951 b 235 972 257 965 249 972 l 90 972 b 69 951 76 972 69 965 l 69 21 b 90 0 69 7 76 0 l 235 0 b 257 21 249 0 257 7 l 257 249 l 393 325 l 774 25 b 838 0 790 10 810 0 l 982 0 b 1003 39 1010 0 1018 26 z "},"ķ":{"ha":1053,"x_min":0,"x_max":0,"o":"m 1003 39 l 538 407 l 964 644 b 960 694 994 663 986 694 l 774 694 b 724 681 750 694 738 689 l 257 415 l 257 951 b 235 972 257 965 249 972 l 90 972 b 69 951 76 972 69 965 l 69 21 b 90 0 69 7 76 0 l 235 0 b 257 21 249 0 257 7 l 257 249 l 393 325 l 774 25 b 838 0 790 10 810 0 l 982 0 b 1003 39 1010 0 1018 26 z m 539 -83 l 418 -83 b 397 -106 404 -83 397 -92 l 397 -351 l 333 -351 b 311 -374 319 -351 311 -360 l 311 -486 b 333 -507 311 -500 319 -507 l 507 -507 b 561 -454 542 -507 561 -489 l 561 -106 b 539 -83 561 -92 553 -83 z "},"l":{"ha":326,"x_min":0,"x_max":0,"o":"m 69 951 l 69 21 b 90 0 69 7 76 0 l 235 0 b 257 21 249 0 257 7 l 257 951 b 235 972 257 965 249 972 l 90 972 b 69 951 76 972 69 965 z "},"ĺ":{"ha":326,"x_min":0,"x_max":0,"o":"m 163 1225 l 97 1065 b 110 1040 89 1049 94 1040 l 232 1040 b 267 1065 246 1040 258 1051 l 390 1225 b 383 1250 403 1240 397 1250 l 192 1250 b 163 1225 178 1250 171 1242 z m 69 951 l 69 21 b 90 0 69 7 76 0 l 235 0 b 257 21 249 0 257 7 l 257 951 b 235 972 257 965 249 972 l 90 972 b 69 951 76 972 69 965 z "},"ľ":{"ha":506,"x_min":0,"x_max":0,"o":"m 69 951 l 69 21 b 90 0 69 7 76 0 l 235 0 b 257 21 249 0 257 7 l 257 951 b 235 972 257 965 249 972 l 90 972 b 69 951 76 972 69 965 z m 539 972 l 419 972 b 397 950 406 972 397 964 l 397 704 l 333 704 b 313 682 319 704 313 696 l 313 569 b 333 549 313 556 319 549 l 508 549 b 561 601 543 549 561 567 l 561 950 b 539 972 561 964 553 972 z "},"ļ":{"ha":326,"x_min":0,"x_max":0,"o":"m 69 951 l 69 21 b 90 0 69 7 76 0 l 235 0 b 257 21 249 0 257 7 l 257 951 b 235 972 257 965 249 972 l 90 972 b 69 951 76 972 69 965 z m 226 -83 l 106 -83 b 85 -106 92 -83 85 -92 l 85 -351 l 21 -351 b -1 -374 7 -351 -1 -360 l -1 -486 b 21 -507 -1 -500 7 -507 l 194 -507 b 249 -454 229 -507 249 -489 l 249 -106 b 226 -83 249 -92 240 -83 z "},"ŀ":{"ha":493,"x_min":0,"x_max":0,"o":"m 69 951 l 69 21 b 90 0 69 7 76 0 l 235 0 b 257 21 249 0 257 7 l 257 951 b 235 972 257 965 249 972 l 90 972 b 69 951 76 972 69 965 z m 353 392 l 500 392 b 522 413 514 392 522 399 l 522 561 b 500 582 522 575 514 582 l 353 582 b 331 561 339 582 331 575 l 331 413 b 353 392 331 399 339 392 z "},"ł":{"ha":382,"x_min":0,"x_max":0,"o":"m 371 624 l 285 624 l 285 951 b 264 972 285 965 278 972 l 119 972 b 99 951 106 972 99 965 l 99 476 l -1 375 b 13 350 -12 363 -4 350 l 99 350 l 99 21 b 119 0 99 7 106 0 l 264 0 b 285 21 278 0 285 7 l 285 497 l 383 599 b 371 624 396 614 388 624 z "},"m":{"ha":1588,"x_min":0,"x_max":0,"o":"m 1279 700 l 1051 700 b 860 617 949 700 896 678 l 843 617 b 649 700 803 669 736 700 l 435 700 b 269 631 331 700 306 676 l 257 631 l 257 674 b 238 694 257 688 246 694 l 90 694 b 69 674 76 694 69 688 l 69 21 b 90 0 69 7 76 0 l 235 0 b 257 21 249 0 257 7 l 257 464 b 332 533 257 508 283 533 l 621 533 b 700 464 669 533 700 508 l 700 21 b 721 0 700 7 707 0 l 865 0 b 888 21 879 0 888 7 l 888 464 b 963 533 888 508 914 533 l 1251 533 b 1331 464 1300 533 1331 508 l 1331 21 b 1351 0 1331 7 1338 0 l 1496 0 b 1518 21 1510 0 1518 7 l 1518 467 b 1279 700 1518 611 1431 700 z "},"ḿ":{"ha":1588,"x_min":0,"x_max":0,"o":"m 740 763 l 863 763 b 897 788 876 763 889 774 l 1021 947 b 1014 972 1033 963 1028 972 l 822 972 b 793 947 808 972 801 964 l 728 788 b 740 763 719 771 725 763 z m 1279 700 l 1051 700 b 860 617 949 700 896 678 l 843 617 b 649 700 803 669 736 700 l 435 700 b 269 631 331 700 306 676 l 257 631 l 257 674 b 238 694 257 688 246 694 l 90 694 b 69 674 76 694 69 688 l 69 21 b 90 0 69 7 76 0 l 235 0 b 257 21 249 0 257 7 l 257 464 b 332 533 257 508 283 533 l 621 533 b 700 464 669 533 700 508 l 700 21 b 721 0 700 7 707 0 l 865 0 b 888 21 879 0 888 7 l 888 464 b 963 533 888 508 914 533 l 1251 533 b 1331 464 1300 533 1331 508 l 1331 21 b 1351 0 1331 7 1338 0 l 1496 0 b 1518 21 1510 0 1518 7 l 1518 467 b 1279 700 1518 611 1431 700 z "},"n":{"ha":1051,"x_min":0,"x_max":0,"o":"m 90 0 l 235 0 b 257 21 249 0 257 7 l 257 464 b 332 533 257 508 283 533 l 715 533 b 794 464 764 533 794 508 l 794 21 b 817 0 794 7 803 0 l 961 0 b 982 21 975 0 982 7 l 982 467 b 744 700 982 611 894 700 l 435 700 b 269 631 331 700 306 676 l 257 631 l 257 674 b 238 694 257 688 246 694 l 90 694 b 69 674 76 694 69 688 l 69 21 b 90 0 69 7 76 0 z "},"ń":{"ha":1051,"x_min":0,"x_max":0,"o":"m 525 947 l 460 788 b 472 763 451 771 457 763 l 594 763 b 629 788 608 763 621 774 l 753 947 b 746 972 765 963 760 972 l 554 972 b 525 947 540 972 533 964 z m 90 0 l 235 0 b 257 21 249 0 257 7 l 257 464 b 332 533 257 508 283 533 l 715 533 b 794 464 764 533 794 508 l 794 21 b 817 0 794 7 803 0 l 961 0 b 982 21 975 0 982 7 l 982 467 b 744 700 982 611 894 700 l 435 700 b 269 631 331 700 306 676 l 257 631 l 257 674 b 238 694 257 688 246 694 l 90 694 b 69 674 76 694 69 688 l 69 21 b 90 0 69 7 76 0 z "},"ň":{"ha":1051,"x_min":0,"x_max":0,"o":"m 449 761 l 603 761 b 642 782 618 761 631 769 l 783 944 b 772 972 796 957 786 972 l 635 972 b 590 944 614 972 603 961 l 533 876 l 519 876 l 463 944 b 417 972 449 961 438 972 l 281 972 b 268 944 267 972 257 957 l 410 782 b 449 761 421 768 433 761 z m 90 0 l 235 0 b 257 21 249 0 257 7 l 257 464 b 332 533 257 508 283 533 l 715 533 b 794 464 764 533 794 508 l 794 21 b 817 0 794 7 803 0 l 961 0 b 982 21 975 0 982 7 l 982 467 b 744 700 982 611 894 700 l 435 700 b 269 631 331 700 306 676 l 257 631 l 257 674 b 238 694 257 688 246 694 l 90 694 b 69 674 76 694 69 688 l 69 21 b 90 0 69 7 76 0 z "},"ņ":{"ha":1051,"x_min":0,"x_max":0,"o":"m 90 0 l 235 0 b 257 21 249 0 257 7 l 257 464 b 332 533 257 508 283 533 l 715 533 b 794 464 764 533 794 508 l 794 21 b 817 0 794 7 803 0 l 961 0 b 982 21 975 0 982 7 l 982 467 b 744 700 982 611 894 700 l 435 700 b 269 631 331 700 306 676 l 257 631 l 257 674 b 238 694 257 688 246 694 l 90 694 b 69 674 76 694 69 688 l 69 21 b 90 0 69 7 76 0 z m 589 -83 l 468 -83 b 447 -106 454 -83 447 -92 l 447 -351 l 383 -351 b 361 -374 369 -351 361 -360 l 361 -486 b 383 -507 361 -500 369 -507 l 557 -507 b 611 -454 592 -507 611 -489 l 611 -106 b 589 -83 611 -92 603 -83 z "},"ŋ":{"ha":1051,"x_min":0,"x_max":0,"o":"m 744 700 l 435 700 b 269 631 331 700 306 676 l 257 631 l 257 674 b 238 694 257 688 246 694 l 90 694 b 69 674 76 694 69 688 l 69 21 b 90 0 69 7 76 0 l 235 0 b 257 21 249 0 257 7 l 257 464 b 332 533 257 508 283 533 l 715 533 b 794 464 764 533 794 508 l 794 -25 b 685 -114 794 -86 764 -114 l 606 -114 b 569 -144 585 -114 569 -122 l 569 -226 b 604 -269 569 -256 583 -267 b 742 -278 636 -275 676 -278 b 982 -44 894 -278 982 -189 l 982 467 b 744 700 982 611 894 700 z "},"ñ":{"ha":1051,"x_min":0,"x_max":0,"o":"m 617 763 b 758 811 664 763 707 772 b 772 844 769 821 778 829 l 732 946 b 706 953 728 954 718 960 b 619 925 671 935 656 925 b 436 979 553 925 535 979 b 294 931 389 979 346 971 b 281 897 283 922 275 913 l 321 796 b 349 790 325 788 335 782 b 433 817 381 810 397 817 b 617 763 500 817 518 763 z m 90 0 l 235 0 b 257 21 249 0 257 7 l 257 464 b 332 533 257 508 283 533 l 715 533 b 794 464 764 533 794 508 l 794 21 b 817 0 794 7 803 0 l 961 0 b 982 21 975 0 982 7 l 982 467 b 744 700 982 611 894 700 l 435 700 b 269 631 331 700 306 676 l 257 631 l 257 674 b 238 694 257 688 246 694 l 90 694 b 69 674 76 694 69 688 l 69 21 b 90 0 69 7 76 0 z "},"o":{"ha":1038,"x_min":0,"x_max":0,"o":"m 301 -7 l 736 -7 b 975 228 888 -7 975 83 l 975 467 b 736 700 975 611 888 700 l 301 700 b 63 467 150 700 63 611 l 63 229 b 301 -7 63 85 150 -7 z m 329 160 b 250 229 281 160 250 185 l 250 464 b 329 533 250 508 281 533 l 708 533 b 788 464 757 533 788 508 l 788 229 b 708 160 788 185 757 160 z "},"ó":{"ha":1038,"x_min":0,"x_max":0,"o":"m 504 947 l 439 788 b 451 763 431 771 436 763 l 574 763 b 608 788 588 763 600 774 l 732 947 b 725 972 744 963 739 972 l 533 972 b 504 947 519 972 513 964 z m 301 -7 l 736 -7 b 975 228 888 -7 975 83 l 975 467 b 736 700 975 611 888 700 l 301 700 b 63 467 150 700 63 611 l 63 229 b 301 -7 63 85 150 -7 z m 329 160 b 250 229 281 160 250 185 l 250 464 b 329 533 250 508 281 533 l 708 533 b 788 464 757 533 788 508 l 788 229 b 708 160 788 185 757 160 z "},"ǒ":{"ha":1038,"x_min":0,"x_max":0,"o":"m 428 761 l 582 761 b 621 782 597 761 610 769 l 763 944 b 751 972 775 957 765 972 l 614 972 b 569 944 593 972 582 961 l 513 876 l 499 876 l 442 944 b 396 972 428 961 417 972 l 260 972 b 247 944 246 972 236 957 l 389 782 b 428 761 400 768 413 761 z m 301 -7 l 736 -7 b 975 228 888 -7 975 83 l 975 467 b 736 700 975 611 888 700 l 301 700 b 63 467 150 700 63 611 l 63 229 b 301 -7 63 85 150 -7 z m 329 160 b 250 229 281 160 250 185 l 250 464 b 329 533 250 508 281 533 l 708 533 b 788 464 757 533 788 508 l 788 229 b 708 160 788 185 757 160 z "},"ô":{"ha":1038,"x_min":0,"x_max":0,"o":"m 428 972 b 389 953 413 972 400 967 l 247 789 b 260 761 236 776 246 761 l 396 761 b 442 790 417 761 428 774 l 499 857 l 513 857 l 569 790 b 614 761 582 774 593 761 l 751 761 b 763 789 765 761 775 776 l 621 953 b 582 972 610 964 597 972 z m 301 -7 l 736 -7 b 975 228 888 -7 975 83 l 975 467 b 736 700 975 611 888 700 l 301 700 b 63 467 150 700 63 611 l 63 229 b 301 -7 63 85 150 -7 z m 329 160 b 250 229 281 160 250 185 l 250 464 b 329 533 250 508 281 533 l 708 533 b 788 464 757 533 788 508 l 788 229 b 708 160 788 185 757 160 z "},"ö":{"ha":1038,"x_min":0,"x_max":0,"o":"m 244 781 l 392 781 b 414 803 406 781 414 789 l 414 950 b 392 972 414 964 406 972 l 244 972 b 222 950 231 972 222 964 l 222 803 b 244 781 222 789 231 781 z m 596 781 l 743 781 b 765 803 757 781 765 789 l 765 950 b 743 972 765 964 757 972 l 596 972 b 574 950 582 972 574 964 l 574 803 b 596 781 574 789 582 781 z m 301 -7 l 736 -7 b 975 228 888 -7 975 83 l 975 467 b 736 700 975 611 888 700 l 301 700 b 63 467 150 700 63 611 l 63 229 b 301 -7 63 85 150 -7 z m 329 160 b 250 229 281 160 250 185 l 250 464 b 329 533 250 508 281 533 l 708 533 b 788 464 757 533 788 508 l 788 229 b 708 160 788 185 757 160 z "},"ò":{"ha":1038,"x_min":0,"x_max":0,"o":"m 508 947 b 479 972 501 964 493 972 l 296 972 b 282 947 281 972 269 963 l 406 789 b 439 763 414 775 425 763 l 561 763 b 575 788 576 763 583 771 z m 301 -7 l 736 -7 b 975 228 888 -7 975 83 l 975 467 b 736 700 975 611 888 700 l 301 700 b 63 467 150 700 63 611 l 63 229 b 301 -7 63 85 150 -7 z m 329 160 b 250 229 281 160 250 185 l 250 464 b 329 533 250 508 281 533 l 708 533 b 788 464 757 533 788 508 l 788 229 b 708 160 788 185 757 160 z "},"ő":{"ha":1038,"x_min":0,"x_max":0,"o":"m 353 947 l 288 788 b 300 763 279 771 285 763 l 422 763 b 457 788 436 763 449 774 l 581 947 b 574 972 593 963 588 972 l 382 972 b 353 947 368 972 361 964 z m 638 947 l 571 788 b 585 763 563 771 568 763 l 707 763 b 742 788 721 763 732 774 l 864 947 b 857 972 876 963 871 972 l 665 972 b 638 947 651 972 644 964 z m 301 -7 l 736 -7 b 975 228 888 -7 975 83 l 975 467 b 736 700 975 611 888 700 l 301 700 b 63 467 150 700 63 611 l 63 229 b 301 -7 63 85 150 -7 z m 329 160 b 250 229 281 160 250 185 l 250 464 b 329 533 250 508 281 533 l 708 533 b 788 464 757 533 788 508 l 788 229 b 708 160 788 185 757 160 z "},"ō":{"ha":1038,"x_min":0,"x_max":0,"o":"m 281 804 l 731 804 b 751 825 743 804 751 811 l 751 951 b 731 972 751 965 743 972 l 281 972 b 260 951 267 972 260 965 l 260 825 b 281 804 260 811 267 804 z m 301 -7 l 736 -7 b 975 228 888 -7 975 83 l 975 467 b 736 700 975 611 888 700 l 301 700 b 63 467 150 700 63 611 l 63 229 b 301 -7 63 85 150 -7 z m 329 160 b 250 229 281 160 250 185 l 250 464 b 329 533 250 508 281 533 l 708 533 b 788 464 757 533 788 508 l 788 229 b 708 160 788 185 757 160 z "},"ø":{"ha":1038,"x_min":0,"x_max":0,"o":"m 760 700 l 768 719 b 754 740 774 733 768 740 l 625 740 b 597 719 611 740 603 733 l 589 701 l 301 701 b 63 468 150 701 63 613 l 63 231 b 279 -6 63 93 142 4 l 271 -24 b 285 -44 265 -37 271 -44 l 414 -44 b 442 -24 428 -44 436 -37 l 450 -6 l 736 -6 b 975 229 888 -6 975 85 l 975 468 b 760 700 975 604 897 692 z m 329 161 b 250 232 281 161 250 186 l 250 465 b 329 535 250 510 281 535 l 517 535 l 351 161 z m 788 232 b 708 161 788 186 757 161 l 522 161 l 688 535 l 708 535 b 788 465 757 535 788 510 z "},"õ":{"ha":1038,"x_min":0,"x_max":0,"o":"m 594 763 b 736 811 642 763 685 772 b 750 844 747 821 756 829 l 710 946 b 683 953 706 954 696 960 b 597 925 649 935 633 925 b 414 979 531 925 513 979 b 272 931 367 979 324 971 b 258 897 261 922 253 913 l 299 796 b 326 790 303 788 313 782 b 411 817 358 810 375 817 b 594 763 478 817 496 763 z m 301 -7 l 736 -7 b 975 228 888 -7 975 83 l 975 467 b 736 700 975 611 888 700 l 301 700 b 63 467 150 700 63 611 l 63 229 b 301 -7 63 85 150 -7 z m 329 160 b 250 229 281 160 250 185 l 250 464 b 329 533 250 508 281 533 l 708 533 b 788 464 757 533 788 508 l 788 229 b 708 160 788 185 757 160 z "},"œ":{"ha":1746,"x_min":0,"x_max":0,"o":"m 1592 279 b 1683 372 1651 279 1683 314 l 1683 467 b 1444 700 1683 611 1596 700 l 1026 700 b 882 663 968 700 919 688 b 736 700 843 688 794 700 l 301 700 b 63 467 150 700 63 611 l 63 229 b 301 -7 63 85 150 -7 l 736 -7 b 882 32 794 -7 843 7 b 1026 -7 919 7 968 -7 l 1397 -7 b 1669 118 1554 -7 1619 28 b 1658 154 1678 132 1679 144 l 1606 178 b 1556 183 1585 189 1571 189 b 1388 158 1485 160 1474 158 l 1054 158 b 975 228 1006 158 975 183 l 975 279 z m 708 160 l 329 160 b 250 229 281 160 250 185 l 250 464 b 329 533 250 508 281 533 l 708 533 b 788 464 757 533 788 508 l 788 229 b 708 160 788 185 757 160 z m 1054 533 l 1417 533 b 1496 464 1465 533 1496 508 l 1496 411 l 975 411 l 975 464 b 1054 533 975 508 1006 533 z "},"p":{"ha":1044,"x_min":0,"x_max":0,"o":"m 238 -246 b 257 -225 246 -246 257 -239 l 257 64 l 269 64 b 435 -7 306 17 331 -7 l 744 -7 b 982 226 894 -7 982 82 l 982 464 b 744 700 982 610 894 700 l 435 700 b 269 631 331 700 306 676 l 257 631 l 257 674 b 236 694 257 688 250 694 l 90 694 b 69 674 76 694 69 688 l 69 -225 b 90 -246 69 -239 76 -246 z m 722 160 l 314 160 b 257 229 283 160 257 185 l 257 464 b 314 533 257 508 283 533 l 722 533 b 794 464 765 533 794 508 l 794 229 b 722 160 794 185 765 160 z "},"þ":{"ha":1044,"x_min":0,"x_max":0,"o":"m 740 700 l 375 700 b 257 643 317 700 281 675 l 257 988 b 236 1008 257 1001 250 1008 l 90 1008 b 69 988 76 1008 69 1001 l 69 -257 b 90 -278 69 -271 76 -278 l 243 -278 b 257 -257 251 -278 257 -269 l 257 53 b 375 -7 281 19 317 -7 l 740 -7 b 982 240 894 -7 982 94 l 982 449 b 740 700 982 594 894 700 z m 794 218 b 739 160 794 176 769 160 l 313 160 b 257 218 282 160 257 176 l 257 478 b 313 533 257 519 282 533 l 739 533 b 794 478 769 533 794 519 z "},"q":{"ha":1044,"x_min":0,"x_max":0,"o":"m 807 -246 l 954 -246 b 975 -225 968 -246 975 -239 l 975 674 b 954 694 975 688 968 694 l 810 694 b 788 674 796 694 788 688 l 788 631 l 775 631 b 610 700 739 676 714 700 l 300 700 b 63 464 150 700 63 610 l 63 226 b 300 -7 63 82 150 -7 l 610 -7 b 775 64 714 -7 739 17 l 788 64 l 788 -225 b 807 -246 788 -239 799 -246 z m 322 160 b 250 229 281 160 250 185 l 250 464 b 322 533 250 508 281 533 l 731 533 b 788 464 761 533 788 508 l 788 229 b 731 160 788 185 761 160 z "},"r":{"ha":1036,"x_min":0,"x_max":0,"o":"m 90 0 l 235 0 b 257 21 249 0 257 7 l 257 464 b 332 533 257 508 283 533 l 692 533 b 775 496 731 533 763 525 b 807 472 781 481 788 472 l 924 472 b 963 513 953 472 963 486 b 736 700 963 644 889 700 l 435 700 b 269 631 331 700 306 676 l 257 631 l 257 674 b 238 694 257 688 246 694 l 90 694 b 69 674 76 694 69 688 l 69 21 b 90 0 69 7 76 0 z "},"ŕ":{"ha":1036,"x_min":0,"x_max":0,"o":"m 524 947 l 458 788 b 471 763 450 771 456 763 l 593 763 b 628 788 607 763 619 774 l 751 947 b 744 972 764 963 758 972 l 553 972 b 524 947 539 972 532 964 z m 90 0 l 235 0 b 257 21 249 0 257 7 l 257 464 b 332 533 257 508 283 533 l 692 533 b 775 496 731 533 763 525 b 807 472 781 481 788 472 l 924 472 b 963 513 953 472 963 486 b 736 700 963 644 889 700 l 435 700 b 269 631 331 700 306 676 l 257 631 l 257 674 b 238 694 257 688 246 694 l 90 694 b 69 674 76 694 69 688 l 69 21 b 90 0 69 7 76 0 z "},"ř":{"ha":1036,"x_min":0,"x_max":0,"o":"m 447 761 l 601 761 b 640 782 617 761 629 769 l 782 944 b 771 972 794 957 785 972 l 633 972 b 589 944 613 972 601 961 l 532 876 l 518 876 l 461 944 b 415 972 447 961 436 972 l 279 972 b 267 944 265 972 256 957 l 408 782 b 447 761 419 768 432 761 z m 90 0 l 235 0 b 257 21 249 0 257 7 l 257 464 b 332 533 257 508 283 533 l 692 533 b 775 496 731 533 763 525 b 807 472 781 481 788 472 l 924 472 b 963 513 953 472 963 486 b 736 700 963 644 889 700 l 435 700 b 269 631 331 700 306 676 l 257 631 l 257 674 b 238 694 257 688 246 694 l 90 694 b 69 674 76 694 69 688 l 69 21 b 90 0 69 7 76 0 z "},"ŗ":{"ha":1036,"x_min":0,"x_max":0,"o":"m 90 0 l 235 0 b 257 21 249 0 257 7 l 257 464 b 332 533 257 508 283 533 l 692 533 b 775 496 731 533 763 525 b 807 472 781 481 788 472 l 924 472 b 963 513 953 472 963 486 b 736 700 963 644 889 700 l 435 700 b 269 631 331 700 306 676 l 257 631 l 257 674 b 238 694 257 688 246 694 l 90 694 b 69 674 76 694 69 688 l 69 21 b 90 0 69 7 76 0 z m 228 -83 l 107 -83 b 86 -106 93 -83 86 -92 l 86 -351 l 22 -351 b 0 -374 8 -351 0 -360 l 0 -486 b 22 -507 0 -500 8 -507 l 196 -507 b 250 -454 231 -507 250 -489 l 250 -106 b 228 -83 250 -92 242 -83 z "},"s":{"ha":1042,"x_min":0,"x_max":0,"o":"m 288 0 l 738 0 b 979 214 882 0 979 57 b 731 414 979 361 892 406 l 308 432 b 249 485 260 433 249 457 b 301 531 249 510 265 531 l 688 531 b 771 496 726 531 760 522 b 810 472 776 482 792 472 l 928 472 b 958 513 957 472 958 486 b 733 694 958 640 886 694 l 303 694 b 61 488 158 694 61 636 b 310 279 61 332 149 286 l 732 261 b 792 213 781 258 792 238 b 739 164 792 183 775 164 l 333 164 b 250 199 294 164 263 172 b 218 222 244 214 238 222 l 101 222 b 63 182 72 222 63 208 b 288 0 63 54 136 0 z "},"ś":{"ha":1042,"x_min":0,"x_max":0,"o":"m 519 947 l 454 788 b 467 763 446 771 451 763 l 589 763 b 624 788 603 763 615 774 l 747 947 b 740 972 760 963 754 972 l 549 972 b 519 947 535 972 528 964 z m 288 0 l 738 0 b 979 214 882 0 979 57 b 731 414 979 361 892 406 l 308 432 b 249 485 260 433 249 457 b 301 531 249 510 265 531 l 688 531 b 771 496 726 531 760 522 b 810 472 776 482 792 472 l 928 472 b 958 513 957 472 958 486 b 733 694 958 640 886 694 l 303 694 b 61 488 158 694 61 636 b 310 279 61 332 149 286 l 732 261 b 792 213 781 258 792 238 b 739 164 792 183 775 164 l 333 164 b 250 199 294 164 263 172 b 218 222 244 214 238 222 l 101 222 b 63 182 72 222 63 208 b 288 0 63 54 136 0 z "},"š":{"ha":1042,"x_min":0,"x_max":0,"o":"m 444 761 l 599 761 b 638 782 614 761 626 769 l 779 944 b 768 972 792 957 782 972 l 631 972 b 586 944 610 972 599 961 l 529 876 l 515 876 l 458 944 b 413 972 444 961 433 972 l 276 972 b 264 944 263 972 253 957 l 406 782 b 444 761 417 768 429 761 z m 288 0 l 738 0 b 979 214 882 0 979 57 b 731 414 979 361 892 406 l 308 432 b 249 485 260 433 249 457 b 301 531 249 510 265 531 l 688 531 b 771 496 726 531 760 522 b 810 472 776 482 792 472 l 928 472 b 958 513 957 472 958 486 b 733 694 958 640 886 694 l 303 694 b 61 488 158 694 61 636 b 310 279 61 332 149 286 l 732 261 b 792 213 781 258 792 238 b 739 164 792 183 775 164 l 333 164 b 250 199 294 164 263 172 b 218 222 244 214 238 222 l 101 222 b 63 182 72 222 63 208 b 288 0 63 54 136 0 z "},"ş":{"ha":1042,"x_min":0,"x_max":0,"o":"m 639 0 l 738 0 b 979 214 882 0 979 57 b 731 414 979 361 892 406 l 308 432 b 249 485 260 433 249 457 b 301 531 249 510 265 531 l 688 531 b 771 496 726 531 760 522 b 810 472 776 482 792 472 l 928 472 b 958 513 957 472 958 486 b 733 694 958 640 886 694 l 303 694 b 61 488 158 694 61 636 b 310 279 61 332 149 286 l 732 261 b 792 213 781 258 792 238 b 739 164 792 183 775 164 l 333 164 b 250 199 294 164 263 172 b 218 222 244 214 238 222 l 101 222 b 63 182 72 222 63 208 b 288 0 63 54 136 0 l 476 0 b 413 -82 432 -40 413 -54 b 469 -131 413 -117 438 -128 b 611 -164 590 -142 611 -146 b 574 -182 611 -178 594 -182 l 546 -182 b 513 -168 529 -182 518 -174 b 497 -154 511 -160 506 -154 l 385 -154 b 371 -174 374 -154 371 -161 b 494 -287 371 -240 401 -287 l 614 -287 b 753 -162 706 -287 753 -240 b 632 -37 753 -76 729 -47 b 639 0 603 -36 569 -31 z "},"ș":{"ha":1042,"x_min":0,"x_max":0,"o":"m 288 0 l 738 0 b 979 214 882 0 979 57 b 731 414 979 361 892 406 l 308 432 b 249 485 260 433 249 457 b 301 531 249 510 265 531 l 688 531 b 771 496 726 531 760 522 b 810 472 776 482 792 472 l 928 472 b 958 513 957 472 958 486 b 733 694 958 640 886 694 l 303 694 b 61 488 158 694 61 636 b 310 279 61 332 149 286 l 732 261 b 792 213 781 258 792 238 b 739 164 792 183 775 164 l 333 164 b 250 199 294 164 263 172 b 218 222 244 214 238 222 l 101 222 b 63 182 72 222 63 208 b 288 0 63 54 136 0 z m 583 -83 l 463 -83 b 442 -106 449 -83 442 -92 l 442 -351 l 378 -351 b 356 -374 364 -351 356 -360 l 356 -486 b 378 -507 356 -500 364 -507 l 551 -507 b 606 -454 586 -507 606 -489 l 606 -106 b 583 -83 606 -92 597 -83 z "},"ß":{"ha":1319,"x_min":0,"x_max":0,"o":"m 1115 513 b 1217 678 1203 532 1217 611 l 1217 742 b 975 968 1217 882 1114 968 l 338 968 b 90 743 192 968 90 882 l 92 21 b 113 0 92 7 99 0 l 257 0 b 278 21 271 0 278 7 l 279 743 b 338 801 279 786 306 801 l 975 801 b 1031 742 1025 801 1031 785 l 1031 665 b 969 593 1031 625 1024 593 l 425 593 b 404 572 411 593 404 586 l 404 447 b 425 426 404 433 411 426 l 969 426 b 1071 319 1046 426 1071 392 l 1071 271 b 965 167 1071 181 1032 167 l 425 167 b 404 146 411 167 404 160 l 404 21 b 425 0 404 7 411 0 l 964 0 b 1257 251 1168 0 1257 83 l 1257 319 b 1115 513 1257 419 1214 486 z "},"t":{"ha":819,"x_min":0,"x_max":0,"o":"m 418 0 l 736 0 b 757 21 744 0 757 7 l 757 146 b 735 167 757 160 750 167 l 439 167 b 367 236 397 167 367 192 l 367 528 l 736 528 b 757 549 744 528 757 535 l 757 674 b 735 694 757 688 750 694 l 367 694 l 367 785 b 346 807 367 799 360 807 l 201 807 b 179 785 188 807 179 799 l 179 694 l 63 694 b 42 672 49 694 42 688 l 42 549 b 63 528 42 535 49 528 l 179 528 l 179 236 b 418 0 179 92 267 0 z "},"ŧ":{"ha":826,"x_min":0,"x_max":0,"o":"m 743 447 l 367 447 l 367 528 l 736 528 b 757 549 744 528 757 535 l 757 674 b 735 694 757 688 750 694 l 367 694 l 367 785 b 346 807 367 799 360 807 l 201 807 b 179 785 188 807 179 799 l 179 694 l 63 694 b 42 672 49 694 42 688 l 42 549 b 63 528 42 535 49 528 l 179 528 l 179 447 l 69 447 b 49 426 56 447 49 440 l 49 301 b 69 281 49 288 56 281 l 179 281 l 179 236 b 418 0 179 92 267 0 l 736 0 b 757 21 744 0 757 7 l 757 146 b 735 167 757 160 750 167 l 439 167 b 367 236 397 167 367 192 l 367 281 l 743 281 b 764 301 756 281 764 288 l 764 426 b 743 447 764 440 756 447 z "},"ť":{"ha":819,"x_min":0,"x_max":0,"o":"m 649 1169 l 528 1169 b 507 1147 514 1169 507 1161 l 507 901 l 443 901 b 421 879 429 901 421 893 l 421 767 b 443 744 421 753 429 744 l 618 744 b 671 799 651 744 671 764 l 671 1147 b 649 1169 671 1161 663 1169 z m 418 0 l 736 0 b 757 21 744 0 757 7 l 757 146 b 735 167 757 160 750 167 l 439 167 b 367 236 397 167 367 192 l 367 528 l 736 528 b 757 549 744 528 757 535 l 757 674 b 735 694 757 688 750 694 l 367 694 l 367 785 b 346 807 367 799 360 807 l 201 807 b 179 785 188 807 179 799 l 179 694 l 63 694 b 42 672 49 694 42 688 l 42 549 b 63 528 42 535 49 528 l 179 528 l 179 236 b 418 0 179 92 267 0 z "},"ţ":{"ha":817,"x_min":0,"x_max":0,"o":"m 736 528 b 757 549 744 528 757 535 l 757 674 b 735 694 757 688 750 694 l 367 694 l 367 785 b 346 807 367 799 360 807 l 201 807 b 179 785 188 807 179 799 l 179 694 l 63 694 b 42 672 49 694 42 688 l 42 549 b 63 528 42 535 49 528 l 179 528 l 179 236 b 418 0 179 92 267 0 l 454 0 b 390 -82 410 -40 390 -54 b 447 -131 390 -117 415 -128 b 589 -164 568 -142 589 -146 b 551 -182 589 -178 572 -182 l 524 -182 b 490 -168 507 -182 496 -174 b 475 -154 489 -160 483 -154 l 363 -154 b 349 -174 351 -154 349 -161 b 472 -287 349 -240 379 -287 l 592 -287 b 731 -162 683 -287 731 -240 b 610 -37 731 -76 707 -47 b 617 0 581 -36 547 -31 l 736 0 b 757 21 744 0 757 7 l 757 146 b 735 167 757 160 750 167 l 439 167 b 367 236 397 167 367 192 l 367 528 z "},"ț":{"ha":819,"x_min":0,"x_max":0,"o":"m 418 0 l 736 0 b 757 21 744 0 757 7 l 757 146 b 735 167 757 160 750 167 l 439 167 b 367 236 397 167 367 192 l 367 528 l 736 528 b 757 549 744 528 757 535 l 757 674 b 735 694 757 688 750 694 l 367 694 l 367 785 b 346 807 367 799 360 807 l 201 807 b 179 785 188 807 179 799 l 179 694 l 63 694 b 42 672 49 694 42 688 l 42 549 b 63 528 42 535 49 528 l 179 528 l 179 236 b 418 0 179 92 267 0 z m 510 -83 l 389 -83 b 368 -106 375 -83 368 -92 l 368 -351 l 304 -351 b 282 -374 290 -351 282 -360 l 282 -486 b 304 -507 282 -500 290 -507 l 478 -507 b 532 -454 513 -507 532 -489 l 532 -106 b 510 -83 532 -92 524 -83 z "},"u":{"ha":1051,"x_min":0,"x_max":0,"o":"m 961 694 l 817 694 b 794 674 803 694 794 688 l 794 231 b 719 161 794 186 768 161 l 336 161 b 257 231 288 161 257 186 l 257 674 b 236 694 257 688 250 694 l 90 694 b 69 674 76 694 69 688 l 69 228 b 308 -6 69 83 157 -6 l 617 -6 b 782 65 721 -6 746 18 l 794 65 l 794 21 b 814 0 794 7 806 0 l 961 0 b 982 21 975 0 982 7 l 982 674 b 961 694 982 688 975 694 z "},"ú":{"ha":1051,"x_min":0,"x_max":0,"o":"m 525 947 l 460 788 b 472 763 451 771 457 763 l 594 763 b 629 788 608 763 621 774 l 753 947 b 746 972 765 963 760 972 l 554 972 b 525 947 540 972 533 964 z m 961 694 l 817 694 b 794 674 803 694 794 688 l 794 231 b 719 161 794 186 768 161 l 336 161 b 257 231 288 161 257 186 l 257 674 b 236 694 257 688 250 694 l 90 694 b 69 674 76 694 69 688 l 69 228 b 308 -6 69 83 157 -6 l 617 -6 b 782 65 721 -6 746 18 l 794 65 l 794 21 b 814 0 794 7 806 0 l 961 0 b 982 21 975 0 982 7 l 982 674 b 961 694 982 688 975 694 z "},"ŭ":{"ha":1051,"x_min":0,"x_max":0,"o":"m 481 746 l 571 746 b 767 950 706 746 767 813 b 746 972 767 964 760 972 l 636 972 b 615 950 622 972 617 964 b 543 874 610 911 600 874 l 508 874 b 436 950 451 874 440 911 b 414 972 435 964 428 972 l 306 972 b 283 950 292 972 283 964 b 481 746 283 813 344 746 z m 961 694 l 817 694 b 794 674 803 694 794 688 l 794 231 b 719 161 794 186 768 161 l 336 161 b 257 231 288 161 257 186 l 257 674 b 236 694 257 688 250 694 l 90 694 b 69 674 76 694 69 688 l 69 228 b 308 -6 69 83 157 -6 l 617 -6 b 782 65 721 -6 746 18 l 794 65 l 794 21 b 814 0 794 7 806 0 l 961 0 b 982 21 975 0 982 7 l 982 674 b 961 694 982 688 975 694 z "},"ǔ":{"ha":1051,"x_min":0,"x_max":0,"o":"m 449 761 l 603 761 b 642 782 618 761 631 769 l 783 944 b 772 972 796 957 786 972 l 635 972 b 590 944 614 972 603 961 l 533 876 l 519 876 l 463 944 b 417 972 449 961 438 972 l 281 972 b 268 944 267 972 257 957 l 410 782 b 449 761 421 768 433 761 z m 961 694 l 817 694 b 794 674 803 694 794 688 l 794 231 b 719 161 794 186 768 161 l 336 161 b 257 231 288 161 257 186 l 257 674 b 236 694 257 688 250 694 l 90 694 b 69 674 76 694 69 688 l 69 228 b 308 -6 69 83 157 -6 l 617 -6 b 782 65 721 -6 746 18 l 794 65 l 794 21 b 814 0 794 7 806 0 l 961 0 b 982 21 975 0 982 7 l 982 674 b 961 694 982 688 975 694 z "},"û":{"ha":1051,"x_min":0,"x_max":0,"o":"m 449 972 b 410 953 433 972 421 967 l 268 789 b 281 761 257 776 267 761 l 417 761 b 463 790 438 761 449 774 l 519 857 l 533 857 l 590 790 b 635 761 603 774 614 761 l 772 761 b 783 789 786 761 796 776 l 642 953 b 603 972 631 964 618 972 z m 961 694 l 817 694 b 794 674 803 694 794 688 l 794 231 b 719 161 794 186 768 161 l 336 161 b 257 231 288 161 257 186 l 257 674 b 236 694 257 688 250 694 l 90 694 b 69 674 76 694 69 688 l 69 228 b 308 -6 69 83 157 -6 l 617 -6 b 782 65 721 -6 746 18 l 794 65 l 794 21 b 814 0 794 7 806 0 l 961 0 b 982 21 975 0 982 7 l 982 674 b 961 694 982 688 975 694 z "},"ü":{"ha":1051,"x_min":0,"x_max":0,"o":"m 267 781 l 414 781 b 436 803 428 781 436 789 l 436 950 b 414 972 436 964 428 972 l 267 972 b 244 950 253 972 244 964 l 244 803 b 267 781 244 789 253 781 z m 618 781 l 765 781 b 788 803 779 781 788 789 l 788 950 b 765 972 788 964 779 972 l 618 972 b 596 950 604 972 596 964 l 596 803 b 618 781 596 789 604 781 z m 961 694 l 817 694 b 794 674 803 694 794 688 l 794 231 b 719 161 794 186 768 161 l 336 161 b 257 231 288 161 257 186 l 257 674 b 236 694 257 688 250 694 l 90 694 b 69 674 76 694 69 688 l 69 228 b 308 -6 69 83 157 -6 l 617 -6 b 782 65 721 -6 746 18 l 794 65 l 794 21 b 814 0 794 7 806 0 l 961 0 b 982 21 975 0 982 7 l 982 674 b 961 694 982 688 975 694 z "},"ù":{"ha":1051,"x_min":0,"x_max":0,"o":"m 529 947 b 500 972 522 964 514 972 l 317 972 b 303 947 301 972 290 963 l 426 789 b 460 763 435 775 446 763 l 582 763 b 596 788 597 763 604 771 z m 961 694 l 817 694 b 794 674 803 694 794 688 l 794 231 b 719 161 794 186 768 161 l 336 161 b 257 231 288 161 257 186 l 257 674 b 236 694 257 688 250 694 l 90 694 b 69 674 76 694 69 688 l 69 228 b 308 -6 69 83 157 -6 l 617 -6 b 782 65 721 -6 746 18 l 794 65 l 794 21 b 814 0 794 7 806 0 l 961 0 b 982 21 975 0 982 7 l 982 674 b 961 694 982 688 975 694 z "},"ű":{"ha":1051,"x_min":0,"x_max":0,"o":"m 374 947 l 308 788 b 321 763 300 771 306 763 l 443 763 b 478 788 457 763 469 774 l 601 947 b 594 972 614 963 608 972 l 403 972 b 374 947 389 972 382 964 z m 658 947 l 592 788 b 606 763 583 771 589 763 l 728 763 b 763 788 742 763 753 774 l 885 947 b 878 972 897 963 892 972 l 686 972 b 658 947 672 972 665 964 z m 961 694 l 817 694 b 794 674 803 694 794 688 l 794 231 b 719 161 794 186 768 161 l 336 161 b 257 231 288 161 257 186 l 257 674 b 236 694 257 688 250 694 l 90 694 b 69 674 76 694 69 688 l 69 228 b 308 -6 69 83 157 -6 l 617 -6 b 782 65 721 -6 746 18 l 794 65 l 794 21 b 814 0 794 7 806 0 l 961 0 b 982 21 975 0 982 7 l 982 674 b 961 694 982 688 975 694 z "},"ū":{"ha":1051,"x_min":0,"x_max":0,"o":"m 301 804 l 751 804 b 772 825 764 804 772 811 l 772 951 b 751 972 772 965 764 972 l 301 972 b 281 951 288 972 281 965 l 281 825 b 301 804 281 811 288 804 z m 961 694 l 817 694 b 794 674 803 694 794 688 l 794 231 b 719 161 794 186 768 161 l 336 161 b 257 231 288 161 257 186 l 257 674 b 236 694 257 688 250 694 l 90 694 b 69 674 76 694 69 688 l 69 228 b 308 -6 69 83 157 -6 l 617 -6 b 782 65 721 -6 746 18 l 794 65 l 794 21 b 814 0 794 7 806 0 l 961 0 b 982 21 975 0 982 7 l 982 674 b 961 694 982 688 975 694 z "},"ų":{"ha":1051,"x_min":0,"x_max":0,"o":"m 961 694 l 817 694 b 794 674 803 694 794 688 l 794 231 b 719 161 794 186 768 161 l 336 161 b 257 231 288 161 257 186 l 257 674 b 236 694 257 688 250 694 l 90 694 b 69 674 76 694 69 688 l 69 228 b 308 -6 69 83 157 -6 l 465 -6 b 407 -33 460 -22 444 -28 b 276 -149 331 -43 276 -51 b 418 -261 276 -242 329 -261 l 607 -261 b 621 -247 617 -261 621 -256 l 621 -162 b 607 -146 621 -153 615 -146 l 421 -146 b 403 -143 413 -146 403 -144 b 421 -135 403 -140 406 -136 b 539 -124 446 -132 490 -129 b 653 -4 596 -117 646 -99 b 782 65 728 1 750 24 l 794 65 l 794 21 b 814 0 794 7 806 0 l 961 0 b 982 21 975 0 982 7 l 982 674 b 961 694 982 688 975 694 z "},"ů":{"ha":1051,"x_min":0,"x_max":0,"o":"m 535 994 l 517 994 b 400 878 449 994 400 943 l 400 863 b 517 747 400 797 449 747 l 535 747 b 651 863 603 747 651 797 l 651 878 b 535 994 651 943 603 994 z m 556 876 l 556 867 b 532 843 556 856 546 843 l 519 843 b 497 867 508 843 497 856 l 497 876 b 519 899 497 888 508 899 l 532 899 b 556 876 546 899 556 888 z m 961 694 l 817 694 b 794 674 803 694 794 688 l 794 231 b 719 161 794 186 768 161 l 336 161 b 257 231 288 161 257 186 l 257 674 b 236 694 257 688 250 694 l 90 694 b 69 674 76 694 69 688 l 69 228 b 308 -6 69 83 157 -6 l 617 -6 b 782 65 721 -6 746 18 l 794 65 l 794 21 b 814 0 794 7 806 0 l 961 0 b 982 21 975 0 982 7 l 982 674 b 961 694 982 688 975 694 z "},"ũ":{"ha":1051,"x_min":0,"x_max":0,"o":"m 617 763 b 758 811 664 763 707 772 b 772 844 769 821 778 829 l 732 946 b 706 953 728 954 718 960 b 619 925 671 935 656 925 b 436 979 553 925 535 979 b 294 931 389 979 346 971 b 281 897 283 922 275 913 l 321 796 b 349 790 325 788 335 782 b 433 817 381 810 397 817 b 617 763 500 817 518 763 z m 961 694 l 817 694 b 794 674 803 694 794 688 l 794 231 b 719 161 794 186 768 161 l 336 161 b 257 231 288 161 257 186 l 257 674 b 236 694 257 688 250 694 l 90 694 b 69 674 76 694 69 688 l 69 228 b 308 -6 69 83 157 -6 l 617 -6 b 782 65 721 -6 746 18 l 794 65 l 794 21 b 814 0 794 7 806 0 l 961 0 b 982 21 975 0 982 7 l 982 674 b 961 694 982 688 975 694 z "},"v":{"ha":1146,"x_min":0,"x_max":0,"o":"m 51 671 l 468 29 b 503 0 482 8 485 0 l 643 0 b 678 29 661 0 664 8 l 1094 671 b 1076 694 1104 686 1090 694 l 913 694 b 876 671 897 694 888 689 l 582 224 l 564 224 l 269 671 b 233 694 258 689 249 694 l 69 694 b 51 671 56 694 42 686 z "},"w":{"ha":1828,"x_min":0,"x_max":0,"o":"m 1758 694 l 1596 694 b 1558 671 1579 694 1569 689 l 1304 226 l 1288 226 l 1032 671 b 996 694 1022 689 1013 694 l 832 694 b 796 671 815 694 804 688 l 540 226 l 522 226 l 268 671 b 232 694 258 689 247 694 l 69 694 b 51 671 56 694 43 686 l 426 29 b 460 0 438 8 442 0 l 600 0 b 633 29 618 0 622 8 l 914 504 l 1193 29 b 1228 0 1206 8 1210 0 l 1368 0 b 1401 29 1385 0 1390 8 l 1776 671 b 1758 694 1785 686 1772 694 z "},"ẃ":{"ha":1828,"x_min":0,"x_max":0,"o":"m 913 947 l 847 788 b 860 763 839 771 844 763 l 982 763 b 1017 788 996 763 1008 774 l 1140 947 b 1133 972 1153 963 1147 972 l 942 972 b 913 947 928 972 921 964 z m 1758 694 l 1596 694 b 1558 671 1579 694 1569 689 l 1304 226 l 1288 226 l 1032 671 b 996 694 1022 689 1013 694 l 832 694 b 796 671 815 694 804 688 l 540 226 l 522 226 l 268 671 b 232 694 258 689 247 694 l 69 694 b 51 671 56 694 43 686 l 426 29 b 460 0 438 8 442 0 l 600 0 b 633 29 618 0 622 8 l 914 504 l 1193 29 b 1228 0 1206 8 1210 0 l 1368 0 b 1401 29 1385 0 1390 8 l 1776 671 b 1758 694 1785 686 1772 694 z "},"ŵ":{"ha":1828,"x_min":0,"x_max":0,"o":"m 838 972 b 799 953 822 972 810 967 l 657 789 b 669 761 646 776 656 761 l 806 761 b 851 790 826 761 838 774 l 908 857 l 922 857 l 979 790 b 1024 761 992 774 1003 761 l 1161 761 b 1172 789 1175 761 1185 776 l 1031 953 b 992 972 1019 964 1007 972 z m 1758 694 l 1596 694 b 1558 671 1579 694 1569 689 l 1304 226 l 1288 226 l 1032 671 b 996 694 1022 689 1013 694 l 832 694 b 796 671 815 694 804 688 l 540 226 l 522 226 l 268 671 b 232 694 258 689 247 694 l 69 694 b 51 671 56 694 43 686 l 426 29 b 460 0 438 8 442 0 l 600 0 b 633 29 618 0 622 8 l 914 504 l 1193 29 b 1228 0 1206 8 1210 0 l 1368 0 b 1401 29 1385 0 1390 8 l 1776 671 b 1758 694 1785 686 1772 694 z "},"ẅ":{"ha":1828,"x_min":0,"x_max":0,"o":"m 654 781 l 801 781 b 824 803 815 781 824 789 l 824 950 b 801 972 824 964 815 972 l 654 972 b 632 950 640 972 632 964 l 632 803 b 654 781 632 789 640 781 z m 1006 781 l 1153 781 b 1175 803 1167 781 1175 789 l 1175 950 b 1153 972 1175 964 1167 972 l 1006 972 b 983 950 992 972 983 964 l 983 803 b 1006 781 983 789 992 781 z m 1758 694 l 1596 694 b 1558 671 1579 694 1569 689 l 1304 226 l 1288 226 l 1032 671 b 996 694 1022 689 1013 694 l 832 694 b 796 671 815 694 804 688 l 540 226 l 522 226 l 268 671 b 232 694 258 689 247 694 l 69 694 b 51 671 56 694 43 686 l 426 29 b 460 0 438 8 442 0 l 600 0 b 633 29 618 0 622 8 l 914 504 l 1193 29 b 1228 0 1206 8 1210 0 l 1368 0 b 1401 29 1385 0 1390 8 l 1776 671 b 1758 694 1785 686 1772 694 z "},"ẁ":{"ha":1828,"x_min":0,"x_max":0,"o":"m 917 947 b 888 972 910 964 901 972 l 704 972 b 690 947 689 972 678 963 l 814 789 b 847 763 822 775 833 763 l 969 763 b 983 788 985 763 992 771 z m 1758 694 l 1596 694 b 1558 671 1579 694 1569 689 l 1304 226 l 1288 226 l 1032 671 b 996 694 1022 689 1013 694 l 832 694 b 796 671 815 694 804 688 l 540 226 l 522 226 l 268 671 b 232 694 258 689 247 694 l 69 694 b 51 671 56 694 43 686 l 426 29 b 460 0 438 8 442 0 l 600 0 b 633 29 618 0 622 8 l 914 504 l 1193 29 b 1228 0 1206 8 1210 0 l 1368 0 b 1401 29 1385 0 1390 8 l 1776 671 b 1758 694 1785 686 1772 694 z "},"x":{"ha":1024,"x_min":0,"x_max":0,"o":"m 636 347 l 969 668 b 954 694 982 681 971 694 l 768 694 b 724 669 757 694 744 689 l 513 465 l 300 669 b 256 694 279 689 267 694 l 69 694 b 56 668 53 694 42 681 l 389 347 l 56 26 b 71 0 40 13 54 0 l 257 0 b 301 25 268 0 281 6 l 513 228 l 722 25 b 767 0 743 6 756 0 l 953 0 b 969 26 969 0 982 13 z "},"y":{"ha":1146,"x_min":0,"x_max":0,"o":"m 1076 694 l 913 694 b 876 671 897 694 888 689 l 582 224 l 564 224 l 269 671 b 233 694 258 689 249 694 l 69 694 b 51 671 56 694 42 686 l 463 39 l 289 -228 b 307 -251 279 -243 293 -251 l 472 -251 b 508 -228 488 -251 496 -246 l 668 14 l 675 25 l 678 29 l 1094 671 b 1076 694 1104 686 1090 694 z "},"ý":{"ha":1146,"x_min":0,"x_max":0,"o":"m 518 763 l 640 763 b 675 788 654 763 667 774 l 799 947 b 792 972 811 963 806 972 l 600 972 b 571 947 586 972 579 964 l 506 788 b 518 763 497 771 503 763 z m 1076 694 l 913 694 b 876 671 897 694 888 689 l 582 224 l 564 224 l 269 671 b 233 694 258 689 249 694 l 69 694 b 51 671 56 694 42 686 l 463 39 l 289 -228 b 307 -251 279 -243 293 -251 l 472 -251 b 508 -228 488 -251 496 -246 l 668 14 l 675 25 l 678 29 l 1094 671 b 1076 694 1104 686 1090 694 z "},"ŷ":{"ha":1146,"x_min":0,"x_max":0,"o":"m 328 761 l 464 761 b 510 790 485 761 496 774 l 567 857 l 581 857 l 638 790 b 682 761 650 774 661 761 l 819 761 b 831 789 833 761 843 776 l 689 953 b 650 972 678 964 665 972 l 496 972 b 457 953 481 972 468 967 l 315 789 b 328 761 304 776 314 761 z m 1076 694 l 913 694 b 876 671 897 694 888 689 l 582 224 l 564 224 l 269 671 b 233 694 258 689 249 694 l 69 694 b 51 671 56 694 42 686 l 463 39 l 289 -228 b 307 -251 279 -243 293 -251 l 472 -251 b 508 -228 488 -251 496 -246 l 668 14 l 675 25 l 678 29 l 1094 671 b 1076 694 1104 686 1090 694 z "},"ÿ":{"ha":1146,"x_min":0,"x_max":0,"o":"m 313 781 l 460 781 b 482 803 474 781 482 789 l 482 950 b 460 972 482 964 474 972 l 313 972 b 290 950 299 972 290 964 l 290 803 b 313 781 290 789 299 781 z m 664 781 l 811 781 b 833 803 825 781 833 789 l 833 950 b 811 972 833 964 825 972 l 664 972 b 642 950 650 972 642 964 l 642 803 b 664 781 642 789 650 781 z m 1076 694 l 913 694 b 876 671 897 694 888 689 l 582 224 l 564 224 l 269 671 b 233 694 258 689 249 694 l 69 694 b 51 671 56 694 42 686 l 463 39 l 289 -228 b 307 -251 279 -243 293 -251 l 472 -251 b 508 -228 488 -251 496 -246 l 668 14 l 675 25 l 678 29 l 1094 671 b 1076 694 1104 686 1090 694 z "},"ỳ":{"ha":1146,"x_min":0,"x_max":0,"o":"m 472 789 b 506 763 481 775 492 763 l 628 763 b 642 788 643 763 650 771 l 575 947 b 546 972 568 964 560 972 l 363 972 b 349 947 347 972 336 963 z m 1076 694 l 913 694 b 876 671 897 694 888 689 l 582 224 l 564 224 l 269 671 b 233 694 258 689 249 694 l 69 694 b 51 671 56 694 42 686 l 463 39 l 289 -228 b 307 -251 279 -243 293 -251 l 472 -251 b 508 -228 488 -251 496 -246 l 668 14 l 675 25 l 678 29 l 1094 671 b 1076 694 1104 686 1090 694 z "},"z":{"ha":968,"x_min":0,"x_max":0,"o":"m 913 533 l 913 674 b 889 694 913 688 904 694 l 81 694 b 58 672 67 694 58 688 l 58 543 b 81 522 58 529 67 522 l 603 522 l 603 510 l 71 189 b 56 161 61 182 56 174 l 56 21 b 76 0 56 7 63 0 l 890 0 b 913 21 904 0 913 7 l 913 151 b 889 172 913 165 904 172 l 365 172 l 365 186 l 897 506 b 913 533 907 513 913 521 z "},"ź":{"ha":968,"x_min":0,"x_max":0,"o":"m 490 947 l 425 788 b 438 763 417 771 422 763 l 560 763 b 594 788 574 763 586 774 l 718 947 b 711 972 731 963 725 972 l 519 972 b 490 947 506 972 499 964 z m 913 533 l 913 674 b 889 694 913 688 904 694 l 81 694 b 58 672 67 694 58 688 l 58 543 b 81 522 58 529 67 522 l 603 522 l 603 510 l 71 189 b 56 161 61 182 56 174 l 56 21 b 76 0 56 7 63 0 l 890 0 b 913 21 904 0 913 7 l 913 151 b 889 172 913 165 904 172 l 365 172 l 365 186 l 897 506 b 913 533 907 513 913 521 z "},"ž":{"ha":968,"x_min":0,"x_max":0,"o":"m 414 761 l 568 761 b 607 782 583 761 596 769 l 749 944 b 738 972 761 957 751 972 l 600 972 b 556 944 579 972 568 961 l 499 876 l 485 876 l 428 944 b 382 972 414 961 403 972 l 246 972 b 233 944 232 972 222 957 l 375 782 b 414 761 386 768 399 761 z m 913 533 l 913 674 b 889 694 913 688 904 694 l 81 694 b 58 672 67 694 58 688 l 58 543 b 81 522 58 529 67 522 l 603 522 l 603 510 l 71 189 b 56 161 61 182 56 174 l 56 21 b 76 0 56 7 63 0 l 890 0 b 913 21 904 0 913 7 l 913 151 b 889 172 913 165 904 172 l 365 172 l 365 186 l 897 506 b 913 533 907 513 913 521 z "},"ż":{"ha":968,"x_min":0,"x_max":0,"o":"m 417 781 l 564 781 b 586 803 578 781 586 789 l 586 950 b 564 972 586 964 578 972 l 417 972 b 394 950 403 972 394 964 l 394 803 b 417 781 394 789 403 781 z m 913 533 l 913 674 b 889 694 913 688 904 694 l 81 694 b 58 672 67 694 58 688 l 58 543 b 81 522 58 529 67 522 l 603 522 l 603 510 l 71 189 b 56 161 61 182 56 174 l 56 21 b 76 0 56 7 63 0 l 890 0 b 913 21 904 0 913 7 l 913 151 b 889 172 913 165 904 172 l 365 172 l 365 186 l 897 506 b 913 533 907 513 913 521 z "},"ﬁ":{"ha":1168,"x_min":0,"x_max":0,"o":"m 1078 694 l 339 694 l 339 736 b 411 806 339 781 369 806 l 788 806 b 808 826 801 806 808 813 l 808 951 b 788 972 808 965 801 972 l 390 972 b 153 739 239 972 153 883 l 153 694 l 76 694 b 56 674 63 694 56 688 l 56 549 b 76 528 56 535 63 528 l 153 528 l 153 21 b 174 0 153 7 160 0 l 318 0 b 339 21 332 0 339 7 l 339 528 l 911 528 l 911 21 b 933 0 911 7 919 0 l 1078 0 b 1099 21 1092 0 1099 7 l 1099 674 b 1078 694 1099 688 1092 694 z m 1078 972 l 933 972 b 911 951 919 972 911 965 l 911 813 b 933 790 911 799 919 790 l 1078 790 b 1099 813 1092 790 1099 799 l 1099 951 b 1078 972 1099 965 1092 972 z "},"ﬂ":{"ha":1156,"x_min":0,"x_max":0,"o":"m 1064 972 l 390 972 b 153 739 239 972 153 883 l 153 694 l 76 694 b 56 674 63 694 56 688 l 56 549 b 76 528 56 535 63 528 l 153 528 l 153 21 b 174 0 153 7 160 0 l 318 0 b 339 21 332 0 339 7 l 339 528 l 774 528 b 794 549 788 528 794 535 l 794 674 b 774 694 794 688 788 694 l 339 694 l 339 736 b 411 806 339 781 369 806 l 899 806 l 899 21 b 919 0 899 7 906 0 l 1064 0 b 1086 21 1078 0 1086 7 l 1086 951 b 1064 972 1086 965 1078 972 z "},"ª":{"ha":450,"x_min":0,"x_max":0,"o":"m 256 979 l 225 979 b 100 947 176 979 132 967 b 94 924 93 943 92 932 l 113 881 b 133 875 117 871 126 872 b 213 889 160 883 188 889 l 235 889 b 286 843 267 889 286 876 l 286 842 l 186 842 b 69 732 106 842 69 804 b 186 624 69 654 121 624 l 203 624 b 286 661 232 624 261 639 l 286 642 b 303 624 286 628 293 624 l 361 624 b 381 642 371 624 381 628 l 381 843 b 256 979 381 924 333 979 z m 222 713 l 197 713 b 165 733 176 713 165 721 b 197 753 165 749 176 753 l 286 753 l 286 726 b 222 713 269 718 249 713 z "},"º":{"ha":475,"x_min":0,"x_max":0,"o":"m 261 979 l 214 979 b 69 831 128 979 69 917 l 69 774 b 214 624 69 685 128 624 l 261 624 b 406 774 346 624 406 685 l 406 831 b 261 979 406 917 346 979 z m 311 824 l 311 783 b 260 719 311 749 288 719 l 217 719 b 164 783 185 719 164 749 l 164 824 b 217 883 164 857 185 883 l 260 883 b 311 824 288 883 311 857 z "},"А":{"ha":1538,"x_min":0,"x_max":0,"o":"m 1478 28 l 881 950 b 851 972 872 964 865 972 l 688 972 b 657 950 672 972 665 964 l 60 28 b 72 0 49 11 58 0 l 250 0 b 282 24 267 0 272 8 l 371 161 l 1167 161 l 1256 24 b 1288 0 1265 8 1272 0 l 1467 0 b 1478 28 1481 0 1490 11 z m 479 329 l 760 765 l 778 765 l 1058 329 z "},"Б":{"ha":1342,"x_min":0,"x_max":0,"o":"m 1017 658 l 286 658 l 286 807 l 790 807 b 811 819 804 807 811 814 l 811 951 b 790 972 811 965 804 972 l 111 972 b 90 951 97 972 90 965 l 90 21 b 111 0 90 7 97 0 l 1017 0 b 1265 253 1189 0 1265 93 l 1265 406 b 1017 658 1265 565 1189 658 z m 1069 268 b 974 172 1069 197 1039 172 l 286 172 l 286 486 l 974 486 b 1069 392 1039 486 1069 461 z "},"В":{"ha":1381,"x_min":0,"x_max":0,"o":"m 1179 496 l 1179 514 b 1269 699 1244 546 1269 608 l 1269 724 b 1007 972 1269 894 1188 972 l 111 972 b 90 951 97 972 90 965 l 90 21 b 111 0 90 7 97 0 l 1014 0 b 1304 264 1214 0 1304 93 l 1304 318 b 1179 496 1304 403 1265 463 z m 1078 703 l 1078 674 b 982 574 1078 588 1039 574 l 286 574 l 286 800 l 982 800 b 1078 703 1039 800 1078 793 z m 1113 269 b 1000 172 1113 193 1075 172 l 286 172 l 286 419 l 1000 419 b 1113 319 1075 419 1113 394 z "},"Г":{"ha":1275,"x_min":0,"x_max":0,"o":"m 1192 972 l 111 972 b 90 951 97 972 90 965 l 90 21 b 111 0 90 7 97 0 l 261 0 b 282 21 275 0 282 7 l 282 800 l 1192 800 b 1213 822 1206 800 1213 808 l 1213 951 b 1192 972 1213 965 1206 972 z "},"Ѓ":{"ha":1275,"x_min":0,"x_max":0,"o":"m 593 1040 l 715 1040 b 750 1065 729 1040 742 1051 l 874 1225 b 867 1250 886 1240 881 1250 l 675 1250 b 646 1225 661 1250 654 1242 l 581 1065 b 593 1040 572 1049 578 1040 z m 1192 972 l 111 972 b 90 951 97 972 90 965 l 90 21 b 111 0 90 7 97 0 l 261 0 b 282 21 275 0 282 7 l 282 800 l 1192 800 b 1213 822 1206 800 1213 808 l 1213 951 b 1192 972 1213 965 1206 972 z "},"Ґ":{"ha":1275,"x_min":0,"x_max":0,"o":"m 1192 1060 l 1042 1060 b 1021 1039 1028 1060 1021 1053 l 1021 972 l 111 972 b 90 951 97 972 90 965 l 90 21 b 111 0 90 7 97 0 l 261 0 b 282 21 275 0 282 7 l 282 800 l 1192 800 b 1213 822 1206 800 1213 808 l 1213 1039 b 1192 1060 1213 1053 1206 1060 z "},"Д":{"ha":1499,"x_min":0,"x_max":0,"o":"m 1450 172 l 1382 172 l 1382 951 b 1361 972 1382 965 1375 972 l 210 972 b 189 951 196 972 189 965 l 189 421 b 82 172 189 256 140 172 l 49 172 b 28 151 35 172 28 165 l 28 -112 b 50 -135 28 -126 36 -135 l 197 -135 b 219 -112 211 -135 219 -126 l 219 0 l 1279 0 l 1279 -112 b 1301 -135 1279 -126 1288 -135 l 1449 -135 b 1471 -112 1463 -135 1471 -126 l 1471 151 b 1450 172 1471 165 1464 172 z m 324 172 b 381 421 364 225 381 306 l 381 800 l 1190 800 l 1190 172 z "},"Е":{"ha":1303,"x_min":0,"x_max":0,"o":"m 1206 172 l 286 172 l 286 400 l 1185 400 b 1206 421 1199 400 1206 407 l 1206 551 b 1185 572 1206 565 1199 572 l 286 572 l 286 800 l 1199 800 b 1219 821 1213 800 1219 807 l 1219 951 b 1199 972 1219 965 1213 972 l 111 972 b 90 951 97 972 90 965 l 90 21 b 111 0 90 7 97 0 l 1206 0 b 1226 21 1219 0 1226 7 l 1226 151 b 1206 172 1226 165 1219 172 z "},"Ё":{"ha":1303,"x_min":0,"x_max":0,"o":"m 406 1058 l 553 1058 b 575 1081 567 1058 575 1067 l 575 1228 b 553 1250 575 1242 567 1250 l 406 1250 b 383 1228 392 1250 383 1242 l 383 1081 b 406 1058 383 1067 392 1058 z m 757 1058 l 904 1058 b 926 1081 918 1058 926 1067 l 926 1228 b 904 1250 926 1242 918 1250 l 757 1250 b 735 1228 743 1250 735 1242 l 735 1081 b 757 1058 735 1067 743 1058 z m 1206 172 l 286 172 l 286 400 l 1185 400 b 1206 421 1199 400 1206 407 l 1206 551 b 1185 572 1206 565 1199 572 l 286 572 l 286 800 l 1199 800 b 1219 821 1213 800 1219 807 l 1219 951 b 1199 972 1219 965 1213 972 l 111 972 b 90 951 97 972 90 965 l 90 21 b 111 0 90 7 97 0 l 1206 0 b 1226 21 1219 0 1226 7 l 1226 151 b 1206 172 1226 165 1219 172 z "},"Ж":{"ha":2428,"x_min":0,"x_max":0,"o":"m 2372 36 l 1746 569 l 2331 935 b 2325 972 2351 949 2342 972 l 2114 972 b 2049 947 2089 972 2069 960 l 1313 492 l 1313 951 b 1292 972 1313 965 1306 972 l 1136 972 b 1115 951 1122 972 1115 965 l 1115 492 l 378 947 b 314 972 358 960 338 972 l 103 972 b 97 935 86 972 76 949 l 681 569 l 56 36 b 67 0 43 24 46 0 l 257 0 b 304 24 278 0 288 8 l 835 474 l 1115 299 l 1115 21 b 1136 0 1115 7 1122 0 l 1292 0 b 1313 21 1306 0 1313 7 l 1313 299 l 1593 474 l 2122 24 b 2171 0 2140 8 2150 0 l 2360 0 b 2372 36 2382 0 2385 24 z "},"З":{"ha":1321,"x_min":0,"x_max":0,"o":"m 1093 490 l 1093 506 b 1244 710 1192 529 1244 569 b 963 979 1244 857 1171 979 l 372 979 b 74 718 163 979 74 893 l 74 690 b 96 668 74 675 82 668 l 239 668 b 261 690 253 668 261 675 b 374 813 261 783 301 813 l 953 813 b 1057 710 1018 813 1057 775 b 933 581 1057 642 1056 581 l 356 581 b 332 557 339 581 332 572 l 332 439 b 356 415 332 422 339 415 l 933 415 b 1071 264 1056 415 1071 360 b 968 160 1071 199 1035 160 l 363 160 b 250 282 292 160 250 189 b 228 304 250 297 242 304 l 85 304 b 63 282 71 304 63 297 l 63 254 b 361 -7 63 79 151 -7 l 978 -7 b 1258 264 1188 -7 1258 117 b 1093 490 1258 433 1192 469 z "},"И":{"ha":1401,"x_min":0,"x_max":0,"o":"m 1290 0 b 1311 21 1304 0 1311 7 l 1311 951 b 1290 972 1311 965 1304 972 l 1106 972 b 1075 957 1093 972 1088 967 l 303 229 l 286 229 l 286 951 b 264 972 286 965 278 972 l 111 972 b 90 951 97 972 90 965 l 90 21 b 111 0 90 7 97 0 l 296 0 b 326 15 308 0 314 6 l 1099 743 l 1115 743 l 1115 21 b 1138 0 1115 7 1124 0 z "},"Й":{"ha":1401,"x_min":0,"x_max":0,"o":"m 639 1024 l 729 1024 b 925 1228 864 1024 925 1090 b 904 1250 925 1242 918 1250 l 794 1250 b 774 1228 781 1250 775 1242 b 701 1151 768 1189 758 1151 l 667 1151 b 594 1228 610 1151 599 1189 b 572 1250 593 1242 586 1250 l 464 1250 b 442 1228 450 1250 442 1242 b 639 1024 442 1090 503 1024 z m 1290 0 b 1311 21 1304 0 1311 7 l 1311 951 b 1290 972 1311 965 1304 972 l 1106 972 b 1075 957 1093 972 1088 967 l 303 229 l 286 229 l 286 951 b 264 972 286 965 278 972 l 111 972 b 90 951 97 972 90 965 l 90 21 b 111 0 90 7 97 0 l 296 0 b 326 15 308 0 314 6 l 1099 743 l 1115 743 l 1115 21 b 1138 0 1115 7 1124 0 z "},"Ѝ":{"ha":1401,"x_min":0,"x_max":0,"o":"m 688 1225 b 658 1250 681 1242 672 1250 l 475 1250 b 461 1225 460 1250 449 1240 l 585 1067 b 618 1040 593 1053 604 1040 l 740 1040 b 754 1065 756 1040 763 1049 z m 1290 0 b 1311 21 1304 0 1311 7 l 1311 951 b 1290 972 1311 965 1304 972 l 1106 972 b 1075 957 1093 972 1088 967 l 303 229 l 286 229 l 286 951 b 264 972 286 965 278 972 l 111 972 b 90 951 97 972 90 965 l 90 21 b 111 0 90 7 97 0 l 296 0 b 326 15 308 0 314 6 l 1099 743 l 1115 743 l 1115 21 b 1138 0 1115 7 1124 0 z "},"К":{"ha":1401,"x_min":0,"x_max":0,"o":"m 1346 36 l 719 569 l 1303 935 b 1299 972 1324 949 1315 972 l 1086 972 b 1022 947 1063 972 1043 960 l 286 492 l 286 951 b 264 972 286 965 278 972 l 111 972 b 90 951 97 972 90 965 l 90 21 b 111 0 90 7 97 0 l 264 0 b 286 21 278 0 286 7 l 286 299 l 567 474 l 1096 24 b 1144 0 1114 8 1124 0 l 1333 0 b 1346 36 1356 0 1358 24 z "},"Ќ":{"ha":1401,"x_min":0,"x_max":0,"o":"m 628 1040 l 750 1040 b 785 1065 764 1040 776 1051 l 908 1225 b 901 1250 921 1240 915 1250 l 710 1250 b 681 1225 696 1250 689 1242 l 615 1065 b 628 1040 607 1049 613 1040 z m 1346 36 l 719 569 l 1303 935 b 1299 972 1324 949 1315 972 l 1086 972 b 1022 947 1063 972 1043 960 l 286 492 l 286 951 b 264 972 286 965 278 972 l 111 972 b 90 951 97 972 90 965 l 90 21 b 111 0 90 7 97 0 l 264 0 b 286 21 278 0 286 7 l 286 299 l 567 474 l 1096 24 b 1144 0 1114 8 1124 0 l 1333 0 b 1346 36 1356 0 1358 24 z "},"Л":{"ha":1497,"x_min":0,"x_max":0,"o":"m 1386 972 l 217 972 b 196 951 203 972 196 965 l 196 299 b 101 193 196 208 153 193 b 76 171 89 193 76 188 l 76 18 b 100 -6 76 4 85 -6 l 165 -6 b 388 224 296 -6 388 61 l 388 800 l 1215 800 l 1215 22 b 1238 0 1215 8 1224 0 l 1385 0 b 1407 22 1399 0 1407 8 l 1407 951 b 1386 972 1407 965 1400 972 z "},"М":{"ha":1649,"x_min":0,"x_max":0,"o":"m 111 0 l 264 0 b 286 21 278 0 286 7 l 286 715 l 300 715 l 725 21 b 757 0 733 7 743 0 l 892 0 b 924 21 906 0 915 7 l 1347 715 l 1363 715 l 1363 21 b 1383 0 1363 7 1369 0 l 1536 0 b 1558 21 1550 0 1558 7 l 1558 951 b 1536 972 1558 965 1550 972 l 1310 972 b 1281 951 1296 972 1289 965 l 833 224 l 815 224 l 368 951 b 339 972 360 965 353 972 l 111 972 b 90 951 97 972 90 965 l 90 21 b 111 0 90 7 97 0 z "},"Н":{"ha":1388,"x_min":0,"x_max":0,"o":"m 1276 972 l 1124 972 b 1101 951 1110 972 1101 965 l 1101 572 l 286 572 l 286 951 b 264 972 286 965 278 972 l 111 972 b 90 951 97 972 90 965 l 90 21 b 111 0 90 7 97 0 l 264 0 b 286 21 278 0 286 7 l 286 400 l 1101 400 l 1101 21 b 1124 0 1101 7 1110 0 l 1276 0 b 1297 21 1290 0 1297 7 l 1297 951 b 1276 972 1297 965 1290 972 z "},"О":{"ha":1419,"x_min":0,"x_max":0,"o":"m 340 -6 l 1078 -6 b 1336 247 1250 -6 1336 88 l 1336 725 b 1078 978 1336 885 1250 978 l 340 978 b 83 725 168 978 83 885 l 83 247 b 340 -6 83 88 168 -6 z m 385 167 b 279 263 319 167 279 192 l 279 710 b 385 806 279 781 319 806 l 1035 806 b 1140 710 1100 806 1140 781 l 1140 263 b 1035 167 1140 192 1100 167 z "},"П":{"ha":1392,"x_min":0,"x_max":0,"o":"m 1281 972 l 111 972 b 90 951 97 972 90 965 l 90 22 b 113 0 90 8 99 0 l 260 0 b 282 22 274 0 282 8 l 282 800 l 1110 800 l 1110 22 b 1131 0 1110 8 1117 0 l 1279 0 b 1301 22 1293 0 1301 8 l 1301 951 b 1281 972 1301 965 1294 972 z "},"Р":{"ha":1349,"x_min":0,"x_max":0,"o":"m 1017 972 l 111 972 b 90 951 97 972 90 965 l 90 21 b 111 0 90 7 97 0 l 264 0 b 286 21 278 0 286 7 l 286 199 l 1017 199 b 1265 451 1189 199 1265 292 l 1265 719 b 1017 972 1265 879 1189 972 z m 1069 465 b 974 369 1069 396 1039 369 l 286 369 l 286 800 l 974 800 b 1069 706 1039 800 1069 775 z "},"С":{"ha":1413,"x_min":0,"x_max":0,"o":"m 1163 633 l 1313 633 b 1336 656 1328 633 1336 640 l 1336 725 b 1089 978 1336 885 1261 978 l 340 978 b 83 725 168 978 83 885 l 83 247 b 340 -6 83 88 168 -6 l 1089 -6 b 1336 247 1261 -6 1336 86 l 1336 283 b 1313 306 1336 299 1328 306 l 1163 306 b 1140 283 1149 306 1140 299 l 1140 263 b 1047 167 1140 190 1113 167 l 385 167 b 279 263 319 167 279 192 l 279 710 b 385 806 279 781 319 806 l 1049 806 b 1140 710 1114 806 1140 781 l 1140 656 b 1163 633 1140 640 1149 633 z "},"Т":{"ha":1351,"x_min":0,"x_max":0,"o":"m 1268 972 l 83 972 b 63 951 69 972 63 965 l 63 822 b 83 800 63 808 69 800 l 581 800 l 581 21 b 601 0 581 7 588 0 l 750 0 b 772 21 764 0 772 7 l 772 800 l 1268 800 b 1289 822 1282 800 1289 808 l 1289 951 b 1268 972 1289 965 1282 972 z "},"У":{"ha":1271,"x_min":0,"x_max":0,"o":"m 1196 972 l 1036 972 b 999 949 1019 972 1010 964 l 635 481 l 272 949 b 235 972 261 964 251 972 l 75 972 b 60 947 61 972 47 963 l 529 344 l 281 25 b 296 0 268 10 282 0 l 456 0 b 492 24 472 0 481 8 l 1211 947 b 1196 972 1224 963 1210 972 z "},"Ў":{"ha":1271,"x_min":0,"x_max":0,"o":"m 586 1024 l 676 1024 b 872 1228 811 1024 872 1090 b 851 1250 872 1242 865 1250 l 742 1250 b 721 1228 728 1250 722 1242 b 649 1151 715 1189 706 1151 l 614 1151 b 542 1228 557 1151 546 1189 b 519 1250 540 1242 533 1250 l 411 1250 b 389 1228 397 1250 389 1242 b 586 1024 389 1090 450 1024 z m 1196 972 l 1036 972 b 999 949 1019 972 1010 964 l 635 481 l 272 949 b 235 972 261 964 251 972 l 75 972 b 60 947 61 972 47 963 l 529 344 l 281 25 b 296 0 268 10 282 0 l 456 0 b 492 24 472 0 481 8 l 1211 947 b 1196 972 1224 963 1210 972 z "},"Ф":{"ha":1419,"x_min":0,"x_max":0,"o":"m 1078 839 l 807 839 l 807 951 b 786 972 807 965 800 972 l 633 972 b 611 951 619 972 611 965 l 611 839 l 340 839 b 83 586 168 839 83 746 l 83 386 b 340 133 83 226 168 133 l 611 133 l 611 21 b 633 0 611 7 619 0 l 786 0 b 807 21 800 0 807 7 l 807 133 l 1078 133 b 1336 386 1250 133 1336 226 l 1336 586 b 1078 839 1336 746 1250 839 z m 385 306 b 279 401 319 306 279 331 l 279 571 b 385 667 279 642 319 667 l 611 667 l 611 306 z m 1140 401 b 1035 306 1140 331 1100 306 l 807 306 l 807 667 l 1035 667 b 1140 571 1100 667 1140 642 z "},"Х":{"ha":1401,"x_min":0,"x_max":0,"o":"m 1333 35 l 832 486 l 1333 938 b 1325 972 1360 963 1340 972 l 1124 972 b 1083 951 1111 972 1100 967 l 700 606 l 317 951 b 275 972 301 965 289 972 l 75 972 b 69 938 60 972 43 963 l 569 486 l 69 35 b 75 0 43 10 60 0 l 275 0 b 317 22 289 0 301 8 l 700 368 l 1083 22 b 1124 0 1100 7 1113 0 l 1326 0 b 1333 35 1342 0 1360 10 z "},"Ч":{"ha":1421,"x_min":0,"x_max":0,"o":"m 1310 972 l 1157 972 b 1135 951 1143 972 1135 965 l 1135 469 b 1029 374 1135 400 1096 374 l 392 374 b 286 469 326 374 286 400 l 286 951 b 264 972 286 965 278 972 l 111 972 b 90 951 97 972 90 965 l 90 454 b 347 203 90 296 175 203 l 972 203 b 1135 253 1047 203 1099 221 l 1135 21 b 1157 0 1135 7 1143 0 l 1310 0 b 1331 21 1324 0 1331 7 l 1331 951 b 1310 972 1331 965 1324 972 z "},"Ц":{"ha":1432,"x_min":0,"x_max":0,"o":"m 1369 172 l 1301 172 l 1301 950 b 1279 972 1301 964 1293 972 l 1131 972 b 1110 950 1117 972 1110 964 l 1110 172 l 282 172 l 282 950 b 260 972 282 964 274 972 l 113 972 b 90 950 99 972 90 964 l 90 21 b 111 0 90 7 97 0 l 1199 0 l 1199 -112 b 1221 -135 1199 -126 1207 -135 l 1368 -135 b 1390 -112 1382 -135 1390 -126 l 1390 151 b 1369 172 1390 165 1383 172 z "},"Ш":{"ha":1817,"x_min":0,"x_max":0,"o":"m 111 0 l 1706 0 b 1726 21 1719 0 1726 7 l 1726 950 b 1704 972 1726 964 1718 972 l 1557 972 b 1535 950 1543 972 1535 964 l 1535 172 l 1004 172 l 1004 950 b 982 972 1004 964 996 972 l 835 972 b 813 950 821 972 813 964 l 813 172 l 282 172 l 282 950 b 260 972 282 964 274 972 l 113 972 b 90 950 99 972 90 964 l 90 21 b 111 0 90 7 97 0 z "},"Щ":{"ha":1857,"x_min":0,"x_max":0,"o":"m 1794 172 l 1726 172 l 1726 950 b 1704 972 1726 964 1718 972 l 1557 972 b 1535 950 1543 972 1535 964 l 1535 172 l 1004 172 l 1004 950 b 982 972 1004 964 996 972 l 835 972 b 813 950 821 972 813 964 l 813 172 l 282 172 l 282 950 b 260 972 282 964 274 972 l 113 972 b 90 950 99 972 90 964 l 90 21 b 111 0 90 7 97 0 l 1624 0 l 1624 -112 b 1646 -135 1624 -126 1632 -135 l 1794 -135 b 1815 -112 1808 -135 1815 -126 l 1815 151 b 1794 172 1815 165 1808 172 z "},"Ь":{"ha":1349,"x_min":0,"x_max":0,"o":"m 1017 774 l 286 774 l 286 951 b 264 972 286 965 278 972 l 111 972 b 90 951 97 972 90 965 l 90 21 b 111 0 90 7 97 0 l 1017 0 b 1265 253 1189 0 1265 93 l 1265 521 b 1017 774 1265 681 1189 774 z m 1069 268 b 974 172 1069 197 1039 172 l 286 172 l 286 603 l 974 603 b 1069 507 1039 603 1069 576 z "},"Ъ":{"ha":1469,"x_min":0,"x_max":0,"o":"m 1138 774 l 407 774 l 407 951 b 385 972 407 965 399 972 l 63 972 b 42 951 49 972 42 965 l 42 810 b 63 789 42 796 49 789 l 211 789 l 211 21 b 232 0 211 7 218 0 l 1138 0 b 1386 253 1310 0 1386 93 l 1386 521 b 1138 774 1386 681 1310 774 z m 1190 268 b 1094 172 1190 197 1160 172 l 407 172 l 407 603 l 1094 603 b 1190 507 1160 603 1190 576 z "},"Ы":{"ha":1725,"x_min":0,"x_max":0,"o":"m 1017 774 l 286 774 l 286 951 b 264 972 286 965 278 972 l 111 972 b 90 951 97 972 90 965 l 90 21 b 111 0 90 7 97 0 l 1017 0 b 1265 253 1189 0 1265 93 l 1265 521 b 1017 774 1265 681 1189 774 z m 1613 972 l 1460 972 b 1439 951 1446 972 1439 965 l 1439 21 b 1460 0 1439 7 1446 0 l 1613 0 b 1635 21 1626 0 1635 7 l 1635 951 b 1613 972 1635 965 1626 972 z m 1069 268 b 974 172 1069 197 1039 172 l 286 172 l 286 603 l 974 603 b 1069 507 1039 603 1069 576 z "},"Є":{"ha":1413,"x_min":0,"x_max":0,"o":"m 1163 633 l 1313 633 b 1336 656 1328 633 1336 640 l 1336 725 b 1089 978 1336 885 1261 978 l 340 978 b 83 725 168 978 83 885 l 83 247 b 340 -6 83 88 168 -6 l 1089 -6 b 1336 247 1261 -6 1336 86 l 1336 283 b 1313 306 1336 299 1328 306 l 1163 306 b 1140 283 1149 306 1140 299 l 1140 263 b 1047 167 1140 190 1113 167 l 385 167 b 279 263 319 167 279 192 l 279 403 l 638 403 b 658 424 651 403 658 410 l 658 550 b 638 571 658 563 651 571 l 279 571 l 279 710 b 385 806 279 781 319 806 l 1049 806 b 1140 710 1114 806 1140 781 l 1140 656 b 1163 633 1140 640 1149 633 z "},"Э":{"ha":1413,"x_min":0,"x_max":0,"o":"m 1072 978 l 324 978 b 78 725 151 978 78 885 l 78 656 b 100 633 78 640 85 633 l 250 633 b 272 656 265 633 272 640 l 272 710 b 365 806 272 781 299 806 l 1028 806 b 1133 710 1094 806 1133 781 l 1133 571 l 775 571 b 754 550 761 571 754 563 l 754 424 b 775 403 754 410 761 403 l 1133 403 l 1133 263 b 1028 167 1133 192 1094 167 l 365 167 b 272 263 300 167 272 190 l 272 283 b 250 306 272 299 265 306 l 100 306 b 78 283 85 306 78 299 l 78 247 b 324 -6 78 86 151 -6 l 1072 -6 b 1329 247 1244 -6 1329 88 l 1329 725 b 1072 978 1329 885 1244 978 z "},"І":{"ha":376,"x_min":0,"x_max":0,"o":"m 90 951 l 90 21 b 111 0 90 7 97 0 l 264 0 b 286 21 278 0 286 7 l 286 951 b 264 972 286 965 278 972 l 111 972 b 90 951 97 972 90 965 z "},"Ї":{"ha":376,"x_min":0,"x_max":0,"o":"m -72 1058 l 75 1058 b 97 1081 89 1058 97 1067 l 97 1228 b 75 1250 97 1242 89 1250 l -72 1250 b -94 1228 -86 1250 -94 1242 l -94 1081 b -72 1058 -94 1067 -86 1058 z m 279 1058 l 426 1058 b 449 1081 440 1058 449 1067 l 449 1228 b 426 1250 449 1242 440 1250 l 279 1250 b 257 1228 265 1250 257 1242 l 257 1081 b 279 1058 257 1067 265 1058 z m 90 951 l 90 21 b 111 0 90 7 97 0 l 264 0 b 286 21 278 0 286 7 l 286 951 b 264 972 286 965 278 972 l 111 972 b 90 951 97 972 90 965 z "},"Ј":{"ha":1358,"x_min":0,"x_max":0,"o":"m 97 0 l 1018 0 b 1268 253 1190 0 1268 93 l 1268 951 b 1247 972 1268 965 1261 972 l 1094 972 b 1072 951 1081 972 1072 965 l 1072 268 b 976 172 1072 197 1042 172 l 97 172 b 76 150 83 172 76 164 l 76 21 b 97 0 76 7 83 0 z "},"Ю":{"ha":1806,"x_min":0,"x_max":0,"o":"m 1464 978 l 726 978 b 469 725 554 978 469 885 l 469 585 l 286 585 l 286 951 b 264 972 286 965 278 972 l 111 972 b 90 951 97 972 90 965 l 90 21 b 111 0 90 7 97 0 l 264 0 b 286 21 278 0 286 7 l 286 418 l 469 418 l 469 247 b 726 -6 469 88 554 -6 l 1464 -6 b 1722 247 1636 -6 1722 88 l 1722 725 b 1464 978 1722 885 1636 978 z m 1526 263 b 1421 167 1526 192 1486 167 l 771 167 b 665 263 706 167 665 192 l 665 710 b 771 806 665 781 706 806 l 1421 806 b 1526 710 1486 806 1526 781 z "},"Я":{"ha":1365,"x_min":0,"x_max":0,"o":"m 1254 972 l 349 972 b 100 719 176 972 100 879 l 100 511 b 246 272 100 388 146 304 l 88 35 b 113 0 75 15 90 0 l 251 0 b 288 22 268 0 278 8 l 449 258 l 1079 258 l 1079 21 b 1101 0 1079 7 1088 0 l 1254 0 b 1275 21 1268 0 1275 7 l 1275 951 b 1254 972 1275 965 1268 972 z m 393 429 b 296 525 326 429 296 456 l 296 706 b 393 800 296 775 326 800 l 1079 800 l 1079 429 z "},"Ӏ":{"ha":376,"x_min":0,"x_max":0,"o":"m 90 951 l 90 21 b 111 0 90 7 97 0 l 264 0 b 286 21 278 0 286 7 l 286 951 b 264 972 286 965 278 972 l 111 972 b 90 951 97 972 90 965 z "},"Ӣ":{"ha":1401,"x_min":0,"x_max":0,"o":"m 460 1082 l 910 1082 b 931 1103 922 1082 931 1089 l 931 1229 b 910 1250 931 1243 922 1250 l 460 1250 b 439 1229 446 1250 439 1243 l 439 1103 b 460 1082 439 1089 446 1082 z m 1290 0 b 1311 21 1304 0 1311 7 l 1311 951 b 1290 972 1311 965 1304 972 l 1106 972 b 1075 957 1093 972 1088 967 l 303 229 l 286 229 l 286 951 b 264 972 286 965 278 972 l 111 972 b 90 951 97 972 90 965 l 90 21 b 111 0 90 7 97 0 l 296 0 b 326 15 308 0 314 6 l 1099 743 l 1115 743 l 1115 21 b 1138 0 1115 7 1124 0 z "},"Ө":{"ha":1419,"x_min":0,"x_max":0,"o":"m 1078 978 l 340 978 b 83 725 168 978 83 885 l 83 247 b 340 -6 83 88 168 -6 l 1078 -6 b 1336 247 1250 -6 1336 88 l 1336 725 b 1078 978 1336 885 1250 978 z m 385 806 l 1035 806 b 1140 710 1100 806 1140 781 l 1140 569 l 279 569 l 279 710 b 385 806 279 781 319 806 z m 1035 167 l 385 167 b 279 263 319 167 279 192 l 279 404 l 1140 404 l 1140 263 b 1035 167 1140 192 1100 167 z "},"Ӭ":{"ha":1346,"x_min":0,"x_max":0,"o":"m 432 1058 l 579 1058 b 601 1081 593 1058 601 1067 l 601 1228 b 579 1250 601 1242 593 1250 l 432 1250 b 410 1228 418 1250 410 1242 l 410 1081 b 432 1058 410 1067 418 1058 z m 783 1058 l 931 1058 b 953 1081 944 1058 953 1067 l 953 1228 b 931 1250 953 1242 944 1250 l 783 1250 b 761 1228 769 1250 761 1242 l 761 1081 b 783 1058 761 1067 769 1058 z m 1072 978 l 324 978 b 78 725 151 978 78 885 l 78 656 b 100 633 78 640 85 633 l 250 633 b 272 656 265 633 272 640 l 272 710 b 365 806 272 781 299 806 l 1028 806 b 1133 710 1094 806 1133 781 l 1133 571 l 775 571 b 754 550 761 571 754 563 l 754 424 b 775 403 754 410 761 403 l 1133 403 l 1133 263 b 1028 167 1133 192 1094 167 l 365 167 b 272 263 300 167 272 190 l 272 283 b 250 306 272 299 265 306 l 100 306 b 78 283 85 306 78 299 l 78 247 b 324 -6 78 86 151 -6 l 1072 -6 b 1329 247 1244 -6 1329 88 l 1329 725 b 1072 978 1329 885 1244 978 z "},"Ӯ":{"ha":1271,"x_min":0,"x_max":0,"o":"m 407 1082 l 857 1082 b 878 1103 869 1082 878 1089 l 878 1229 b 857 1250 878 1243 869 1250 l 407 1250 b 386 1229 393 1250 386 1243 l 386 1103 b 407 1082 386 1089 393 1082 z m 1196 972 l 1036 972 b 999 949 1019 972 1010 964 l 635 481 l 272 949 b 235 972 261 964 251 972 l 75 972 b 60 947 61 972 47 963 l 529 344 l 281 25 b 296 0 268 10 282 0 l 456 0 b 492 24 472 0 481 8 l 1211 947 b 1196 972 1224 963 1210 972 z "},"а":{"ha":1036,"x_min":0,"x_max":0,"o":"m 272 -7 l 575 -7 b 768 92 678 -7 731 38 l 779 92 l 779 21 b 801 0 779 7 788 0 l 946 0 b 967 21 960 0 967 7 l 967 467 b 699 700 967 625 881 700 l 315 700 b 89 515 163 700 89 644 b 128 475 89 489 99 475 l 244 475 b 276 499 264 475 271 485 b 361 536 289 525 321 536 l 667 536 b 779 460 740 536 779 526 l 779 415 l 269 415 b 42 213 107 415 42 354 b 272 -7 42 71 132 -7 z m 276 160 b 226 217 250 160 226 174 b 276 274 226 263 250 274 l 779 274 l 779 231 b 697 160 779 201 786 160 z "},"б":{"ha":1044,"x_min":0,"x_max":0,"o":"m 435 -7 l 744 -7 b 982 229 894 -7 982 85 l 982 467 b 744 700 982 611 894 700 l 435 700 b 269 631 331 700 306 676 l 257 631 l 257 707 b 324 778 257 749 272 778 b 558 772 385 778 511 772 b 760 943 707 772 760 846 b 738 972 760 961 757 972 l 593 972 b 565 964 583 972 571 972 b 471 936 553 946 525 936 b 269 944 421 936 351 944 b 69 729 124 944 69 890 l 69 21 b 90 0 69 7 76 0 l 235 0 b 257 21 249 0 257 7 l 257 64 l 269 64 b 435 -7 306 17 331 -7 z m 314 160 b 257 229 283 160 257 185 l 257 464 b 314 533 257 508 283 533 l 722 533 b 794 464 764 533 794 508 l 794 229 b 722 160 794 185 764 160 z "},"в":{"ha":982,"x_min":0,"x_max":0,"o":"m 90 0 l 696 0 b 919 190 839 0 919 56 b 808 346 919 264 897 317 l 808 357 b 903 499 896 386 903 449 b 694 694 903 644 832 694 l 90 694 b 69 674 76 694 69 688 l 69 21 b 90 0 69 7 76 0 z m 257 426 l 257 531 l 678 531 b 717 481 700 531 717 519 b 668 426 717 432 692 426 z m 257 164 l 257 283 l 675 285 b 733 226 706 285 733 275 b 675 164 733 181 710 164 z "},"г":{"ha":949,"x_min":0,"x_max":0,"o":"m 872 694 l 90 694 b 69 674 76 694 69 688 l 69 21 b 90 0 69 7 76 0 l 235 0 b 257 21 249 0 257 7 l 257 529 l 872 529 b 893 550 886 529 893 536 l 893 674 b 872 694 893 688 886 694 z "},"ѓ":{"ha":949,"x_min":0,"x_max":0,"o":"m 413 763 l 535 763 b 569 788 549 763 561 774 l 693 947 b 686 972 706 963 700 972 l 494 972 b 465 947 481 972 474 964 l 400 788 b 413 763 392 771 397 763 z m 872 694 l 90 694 b 69 674 76 694 69 688 l 69 21 b 90 0 69 7 76 0 l 235 0 b 257 21 249 0 257 7 l 257 529 l 872 529 b 893 550 886 529 893 536 l 893 674 b 872 694 893 688 886 694 z "},"ґ":{"ha":949,"x_min":0,"x_max":0,"o":"m 871 769 l 728 769 b 706 747 714 769 706 763 l 706 694 l 90 694 b 69 674 76 694 69 688 l 69 21 b 90 0 69 7 76 0 l 235 0 b 257 21 249 0 257 7 l 257 529 l 872 529 b 893 550 886 529 893 536 l 893 747 b 871 769 893 763 885 769 z "},"д":{"ha":1244,"x_min":0,"x_max":0,"o":"m 1182 165 l 1094 165 l 1094 674 b 1074 694 1094 688 1088 694 l 231 694 b 210 674 217 694 210 688 l 210 414 b 83 165 210 186 139 165 l 63 165 b 42 144 49 165 42 158 l 42 -86 b 64 -108 42 -101 50 -108 l 207 -108 b 229 -86 221 -108 229 -101 l 229 0 l 1015 0 l 1015 -86 b 1038 -108 1015 -101 1024 -108 l 1181 -108 b 1203 -86 1194 -108 1203 -101 l 1203 144 b 1182 165 1203 158 1196 165 z m 344 165 b 397 375 376 215 397 285 l 397 529 l 907 529 l 907 165 z "},"е":{"ha":1021,"x_min":0,"x_max":0,"o":"m 867 279 b 958 372 926 279 958 314 l 958 467 b 719 700 958 611 869 700 l 301 700 b 63 467 150 700 63 611 l 63 229 b 301 -7 63 85 150 -7 l 671 -7 b 944 118 828 -7 893 28 b 933 154 953 132 953 144 l 881 178 b 829 183 860 189 844 189 b 663 158 760 160 749 158 l 329 158 b 250 228 281 158 250 183 l 250 279 z m 329 533 l 692 533 b 771 464 740 533 771 508 l 771 411 l 250 411 l 250 464 b 329 533 250 508 281 533 z "},"ё":{"ha":1021,"x_min":0,"x_max":0,"o":"m 246 781 l 393 781 b 415 803 407 781 415 789 l 415 950 b 393 972 415 964 407 972 l 246 972 b 224 950 232 972 224 964 l 224 803 b 246 781 224 789 232 781 z m 597 781 l 744 781 b 767 803 758 781 767 789 l 767 950 b 744 972 767 964 758 972 l 597 972 b 575 950 583 972 575 964 l 575 803 b 597 781 575 789 583 781 z m 867 279 b 958 372 926 279 958 314 l 958 467 b 719 700 958 611 869 700 l 301 700 b 63 467 150 700 63 611 l 63 229 b 301 -7 63 85 150 -7 l 671 -7 b 944 118 828 -7 893 28 b 933 154 953 132 953 144 l 881 178 b 829 183 860 189 844 189 b 663 158 760 160 749 158 l 329 158 b 250 228 281 158 250 183 l 250 279 z m 329 533 l 692 533 b 771 464 740 533 771 508 l 771 411 l 250 411 l 250 464 b 329 533 250 508 281 533 z "},"ж":{"ha":1456,"x_min":0,"x_max":0,"o":"m 61 0 l 251 0 b 300 18 265 0 281 4 l 635 233 l 635 24 b 656 0 635 7 642 0 l 800 0 b 822 24 814 0 822 7 l 822 233 l 1156 18 b 1206 0 1176 4 1190 0 l 1394 0 b 1406 39 1418 0 1421 31 l 913 351 l 1388 656 b 1383 694 1411 671 1401 694 l 1188 694 b 1139 678 1171 694 1158 690 l 822 467 l 822 671 b 800 694 822 688 814 694 l 656 694 b 635 671 642 694 635 688 l 635 467 l 317 678 b 269 694 299 690 286 694 l 72 694 b 69 656 54 694 44 671 l 544 351 l 50 39 b 61 0 36 31 39 0 z "},"з":{"ha":1044,"x_min":0,"x_max":0,"o":"m 267 -8 l 764 -8 b 982 181 893 -8 982 67 b 886 339 982 250 968 313 l 886 353 b 976 501 968 378 976 431 b 764 696 976 614 893 696 l 267 696 b 63 486 139 696 63 632 b 78 469 63 475 67 469 l 239 469 b 254 486 249 469 254 475 b 313 529 254 513 267 529 l 722 529 b 785 476 753 529 785 528 b 735 417 785 428 771 417 l 278 417 b 263 401 268 417 263 413 l 263 288 b 278 272 263 276 268 272 l 735 272 b 779 210 771 272 779 249 b 722 158 779 163 756 158 l 313 158 b 254 192 272 158 254 168 b 239 208 254 204 249 208 l 78 208 b 63 192 67 208 63 204 b 267 -8 63 47 139 -8 z "},"и":{"ha":1122,"x_min":0,"x_max":0,"o":"m 90 694 b 69 674 76 694 69 688 l 69 21 b 90 0 69 7 76 0 l 278 0 b 311 15 292 0 300 6 l 847 501 l 861 501 l 861 21 b 882 0 861 7 868 0 l 1032 0 b 1053 21 1046 0 1053 7 l 1053 674 b 1032 694 1053 688 1046 694 l 844 694 b 811 679 831 694 822 689 l 275 193 l 261 193 l 261 674 b 240 694 261 688 254 694 z "},"й":{"ha":1122,"x_min":0,"x_max":0,"o":"m 515 746 l 606 746 b 801 950 740 746 801 813 b 781 972 801 964 794 972 l 671 972 b 650 950 657 972 651 964 b 578 874 644 911 635 874 l 543 874 b 471 950 486 874 475 911 b 449 972 469 964 463 972 l 340 972 b 318 950 326 972 318 964 b 515 746 318 813 379 746 z m 90 694 b 69 674 76 694 69 688 l 69 21 b 90 0 69 7 76 0 l 278 0 b 311 15 292 0 300 6 l 847 501 l 861 501 l 861 21 b 882 0 861 7 868 0 l 1032 0 b 1053 21 1046 0 1053 7 l 1053 674 b 1032 694 1053 688 1046 694 l 844 694 b 811 679 831 694 822 689 l 275 193 l 261 193 l 261 674 b 240 694 261 688 254 694 z "},"ѝ":{"ha":1122,"x_min":0,"x_max":0,"o":"m 564 947 b 535 972 557 964 549 972 l 351 972 b 338 947 336 972 325 963 l 461 789 b 494 763 469 775 481 763 l 617 763 b 631 788 632 763 639 771 z m 90 694 b 69 674 76 694 69 688 l 69 21 b 90 0 69 7 76 0 l 278 0 b 311 15 292 0 300 6 l 847 501 l 861 501 l 861 21 b 882 0 861 7 868 0 l 1032 0 b 1053 21 1046 0 1053 7 l 1053 674 b 1032 694 1053 688 1046 694 l 844 694 b 811 679 831 694 822 689 l 275 193 l 261 193 l 261 674 b 240 694 261 688 254 694 z "},"к":{"ha":892,"x_min":0,"x_max":0,"o":"m 840 39 l 347 351 l 822 656 b 819 694 846 671 836 694 l 622 694 b 575 678 606 694 593 690 l 257 467 l 257 671 b 235 694 257 688 249 694 l 90 694 b 69 671 76 694 69 688 l 69 24 b 90 0 69 7 76 0 l 235 0 b 257 24 249 0 257 7 l 257 233 l 590 18 b 640 0 611 4 625 0 l 831 0 b 840 39 853 0 856 31 z "},"ќ":{"ha":892,"x_min":0,"x_max":0,"o":"m 447 947 l 382 788 b 394 763 374 771 379 763 l 517 763 b 551 788 531 763 543 774 l 675 947 b 668 972 688 963 682 972 l 476 972 b 447 947 463 972 456 964 z m 840 39 l 347 351 l 822 656 b 819 694 846 671 836 694 l 622 694 b 575 678 606 694 593 690 l 257 467 l 257 671 b 235 694 257 688 249 694 l 90 694 b 69 671 76 694 69 688 l 69 24 b 90 0 69 7 76 0 l 235 0 b 257 24 249 0 257 7 l 257 233 l 590 18 b 640 0 611 4 625 0 l 831 0 b 840 39 853 0 856 31 z "},"л":{"ha":1101,"x_min":0,"x_max":0,"o":"m 94 -14 b 304 232 286 -14 304 90 l 304 529 l 844 529 l 844 22 b 867 0 844 7 853 0 l 1010 0 b 1032 22 1024 0 1032 7 l 1032 672 b 1010 694 1032 688 1024 694 l 139 694 b 117 672 125 694 117 688 l 117 225 b 40 150 117 169 92 150 b 0 113 11 150 0 138 l 0 39 b 94 -14 0 3 22 -14 z "},"м":{"ha":1232,"x_min":0,"x_max":0,"o":"m 90 0 l 235 0 b 257 21 249 0 257 7 l 257 447 l 268 447 l 546 76 b 572 63 554 65 558 63 l 658 63 b 686 76 674 63 678 65 l 964 447 l 975 447 l 975 21 b 996 0 975 7 982 0 l 1140 0 b 1163 21 1154 0 1163 7 l 1163 674 b 1140 694 1163 688 1154 694 l 968 694 b 942 678 957 694 950 689 l 615 250 l 289 678 b 264 694 281 689 275 694 l 90 694 b 69 674 76 694 69 688 l 69 21 b 90 0 69 7 76 0 z "},"н":{"ha":1086,"x_min":0,"x_max":0,"o":"m 996 694 l 851 694 b 829 674 838 694 829 688 l 829 433 l 257 433 l 257 674 b 235 694 257 688 249 694 l 90 694 b 69 674 76 694 69 688 l 69 21 b 90 0 69 7 76 0 l 235 0 b 257 21 249 0 257 7 l 257 261 l 829 261 l 829 21 b 851 0 829 7 838 0 l 996 0 b 1017 21 1010 0 1017 7 l 1017 674 b 996 694 1017 688 1010 694 z "},"о":{"ha":1038,"x_min":0,"x_max":0,"o":"m 301 -7 l 736 -7 b 975 228 888 -7 975 83 l 975 467 b 736 700 975 611 888 700 l 301 700 b 63 467 150 700 63 611 l 63 229 b 301 -7 63 85 150 -7 z m 329 160 b 250 229 281 160 250 185 l 250 464 b 329 533 250 508 281 533 l 708 533 b 788 464 757 533 788 508 l 788 229 b 708 160 788 185 757 160 z "},"п":{"ha":1088,"x_min":0,"x_max":0,"o":"m 997 694 l 90 694 b 69 674 76 694 69 688 l 69 21 b 88 0 69 7 74 0 l 235 0 b 257 21 249 0 257 7 l 257 528 l 831 528 l 831 21 b 853 0 831 7 839 0 l 997 0 b 1018 21 1011 0 1018 7 l 1018 674 b 997 694 1018 688 1011 694 z "},"р":{"ha":1044,"x_min":0,"x_max":0,"o":"m 238 -246 b 257 -225 246 -246 257 -239 l 257 64 l 269 64 b 435 -7 306 17 331 -7 l 744 -7 b 982 226 894 -7 982 82 l 982 464 b 744 700 982 610 894 700 l 435 700 b 269 631 331 700 306 676 l 257 631 l 257 674 b 236 694 257 688 250 694 l 90 694 b 69 674 76 694 69 688 l 69 -225 b 90 -246 69 -239 76 -246 z m 722 160 l 314 160 b 257 229 283 160 257 185 l 257 464 b 314 533 257 508 283 533 l 722 533 b 794 464 765 533 794 508 l 794 229 b 722 160 794 185 765 160 z "},"с":{"ha":1013,"x_min":0,"x_max":0,"o":"m 301 -7 l 671 -7 b 944 118 828 -7 893 28 b 933 154 953 132 953 144 l 881 178 b 829 183 860 189 844 189 b 663 158 760 160 749 158 l 329 158 b 250 228 281 158 250 183 l 250 464 b 329 533 250 508 281 533 l 699 533 b 774 472 751 533 774 515 l 774 439 b 803 415 774 424 786 415 l 928 415 b 957 443 946 415 957 425 l 957 476 b 725 700 957 617 890 700 l 301 700 b 63 467 150 700 63 611 l 63 229 b 301 -7 63 85 150 -7 z "},"т":{"ha":1018,"x_min":0,"x_max":0,"o":"m 942 694 l 76 694 b 56 674 63 694 56 688 l 56 542 b 76 521 56 528 63 521 l 417 521 l 417 21 b 438 0 417 7 424 0 l 582 0 b 603 21 596 0 603 7 l 603 521 l 942 521 b 963 542 956 521 963 528 l 963 674 b 942 694 963 688 956 694 z "},"у":{"ha":1146,"x_min":0,"x_max":0,"o":"m 1076 694 l 913 694 b 876 671 897 694 888 689 l 582 224 l 564 224 l 269 671 b 233 694 258 689 249 694 l 69 694 b 51 671 56 694 42 686 l 463 39 l 289 -228 b 307 -251 279 -243 293 -251 l 472 -251 b 508 -228 488 -251 496 -246 l 668 14 l 675 25 l 678 29 l 1094 671 b 1076 694 1104 686 1090 694 z "},"ў":{"ha":1146,"x_min":0,"x_max":0,"o":"m 528 746 l 618 746 b 814 950 753 746 814 813 b 793 972 814 964 807 972 l 683 972 b 663 950 669 972 664 964 b 590 874 657 911 647 874 l 556 874 b 483 950 499 874 488 911 b 461 972 482 964 475 972 l 353 972 b 331 950 339 972 331 964 b 528 746 331 813 392 746 z m 1076 694 l 913 694 b 876 671 897 694 888 689 l 582 224 l 564 224 l 269 671 b 233 694 258 689 249 694 l 69 694 b 51 671 56 694 42 686 l 463 39 l 289 -228 b 307 -251 279 -243 293 -251 l 472 -251 b 508 -228 488 -251 496 -246 l 668 14 l 675 25 l 678 29 l 1094 671 b 1076 694 1104 686 1090 694 z "},"ф":{"ha":1763,"x_min":0,"x_max":0,"o":"m 1463 700 l 1153 700 b 989 631 1049 700 1024 676 l 975 631 l 975 951 b 954 972 975 965 968 972 l 807 972 b 788 951 799 972 788 965 l 788 631 l 775 631 b 610 700 739 676 714 700 l 300 700 b 63 467 150 700 63 611 l 63 229 b 300 -7 63 85 150 -7 l 610 -7 b 775 64 714 -7 739 17 l 788 64 l 788 -225 b 810 -246 788 -239 796 -246 l 956 -246 b 975 -225 964 -246 975 -239 l 975 64 l 989 64 b 1153 -7 1024 17 1049 -7 l 1463 -7 b 1700 226 1613 -7 1700 82 l 1700 464 b 1463 700 1700 610 1613 700 z m 731 160 l 322 160 b 250 229 281 160 250 185 l 250 464 b 322 533 250 508 281 533 l 731 533 b 788 464 761 533 788 508 l 788 229 b 731 160 788 185 761 160 z m 1514 229 b 1442 160 1514 185 1483 160 l 1033 160 b 975 229 1001 160 975 185 l 975 464 b 1033 533 975 508 1001 533 l 1442 533 b 1514 464 1483 533 1514 508 z "},"х":{"ha":1024,"x_min":0,"x_max":0,"o":"m 636 347 l 969 668 b 954 694 982 681 971 694 l 768 694 b 724 669 757 694 744 689 l 513 465 l 300 669 b 256 694 279 689 267 694 l 69 694 b 56 668 53 694 42 681 l 389 347 l 56 26 b 71 0 40 13 54 0 l 257 0 b 301 25 268 0 281 6 l 513 228 l 722 25 b 767 0 743 6 756 0 l 953 0 b 969 26 969 0 982 13 z "},"ч":{"ha":1060,"x_min":0,"x_max":0,"o":"m 969 694 l 825 694 b 803 674 811 694 803 688 l 803 369 b 733 300 803 325 775 300 l 329 300 b 257 369 288 300 257 325 l 257 674 b 235 694 257 688 249 694 l 90 694 b 69 674 76 694 69 688 l 69 369 b 307 133 69 225 157 133 l 676 133 b 803 189 743 133 788 164 l 803 21 b 825 0 803 7 811 0 l 969 0 b 990 21 983 0 990 7 l 990 674 b 969 694 990 688 983 694 z "},"ц":{"ha":1233,"x_min":0,"x_max":0,"o":"m 1157 172 l 1019 172 l 1019 674 b 999 694 1019 688 1013 694 l 851 694 b 831 674 838 694 831 688 l 831 172 l 279 172 l 279 674 b 258 694 279 688 272 694 l 111 694 b 90 674 97 694 90 688 l 90 21 b 111 0 90 7 97 0 l 989 0 l 989 -143 b 1010 -164 989 -157 996 -164 l 1157 -164 b 1178 -143 1171 -164 1178 -157 l 1178 151 b 1157 172 1178 165 1171 172 z "},"ш":{"ha":1476,"x_min":0,"x_max":0,"o":"m 1365 694 l 1219 694 b 1199 674 1206 694 1199 688 l 1199 172 l 832 172 l 832 674 b 811 694 832 688 825 694 l 665 694 b 644 674 651 694 644 688 l 644 172 l 278 172 l 278 674 b 257 694 278 688 271 694 l 111 694 b 90 674 97 694 90 688 l 90 21 b 111 0 90 7 97 0 l 1365 0 b 1386 21 1379 0 1386 7 l 1386 674 b 1365 694 1386 688 1379 694 z "},"щ":{"ha":1632,"x_min":0,"x_max":0,"o":"m 1556 172 l 1386 172 l 1386 674 b 1365 694 1386 688 1379 694 l 1219 694 b 1199 674 1206 694 1199 688 l 1199 172 l 832 172 l 832 674 b 811 694 832 688 825 694 l 665 694 b 644 674 651 694 644 688 l 644 172 l 278 172 l 278 674 b 257 694 278 688 271 694 l 111 694 b 90 674 97 694 90 688 l 90 21 b 111 0 90 7 97 0 l 1388 0 l 1388 -143 b 1408 -164 1388 -157 1394 -164 l 1556 -164 b 1576 -143 1569 -164 1576 -157 l 1576 151 b 1556 172 1576 165 1569 172 z "},"ь":{"ha":1018,"x_min":0,"x_max":0,"o":"m 721 431 l 240 431 l 240 674 b 219 694 240 688 233 694 l 90 694 b 69 674 76 694 69 688 l 69 21 b 90 0 69 7 76 0 l 721 0 b 956 215 899 0 956 67 b 721 431 956 351 899 431 z m 726 167 l 240 167 l 240 264 l 726 264 b 785 215 751 264 785 263 b 726 167 785 172 751 167 z "},"ъ":{"ha":1067,"x_min":0,"x_max":0,"o":"m 768 431 l 289 431 l 289 674 b 268 694 289 688 282 694 l 42 694 b 21 674 28 694 21 688 l 21 549 b 42 528 21 535 28 528 l 118 528 l 118 21 b 139 0 118 7 125 0 l 768 0 b 1004 215 947 0 1004 67 b 768 431 1004 351 947 431 z m 775 167 l 289 167 l 289 264 l 775 264 b 833 215 800 264 833 263 b 775 167 833 172 800 167 z "},"ы":{"ha":1319,"x_min":0,"x_max":0,"o":"m 721 431 l 240 431 l 240 674 b 219 694 240 688 233 694 l 90 694 b 69 674 76 694 69 688 l 69 21 b 90 0 69 7 76 0 l 721 0 b 956 215 899 0 956 67 b 721 431 956 351 899 431 z m 1228 694 l 1083 694 b 1063 674 1069 694 1063 688 l 1063 21 b 1083 0 1063 7 1069 0 l 1228 0 b 1250 21 1242 0 1250 7 l 1250 674 b 1228 694 1250 688 1242 694 z m 726 167 l 240 167 l 240 264 l 726 264 b 785 215 751 264 785 263 b 726 167 785 172 751 167 z "},"є":{"ha":1013,"x_min":0,"x_max":0,"o":"m 803 415 l 928 415 b 957 443 946 415 957 425 l 957 476 b 725 700 957 617 890 700 l 301 700 b 63 467 150 700 63 611 l 63 229 b 301 -7 63 85 150 -7 l 671 -7 b 944 118 828 -7 893 28 b 933 154 953 132 953 144 l 881 178 b 829 183 860 189 844 189 b 663 158 760 160 749 158 l 329 158 b 250 228 281 158 250 183 l 250 271 l 486 271 b 508 293 500 271 508 279 l 508 403 b 486 424 508 417 500 424 l 250 424 l 250 464 b 329 533 250 508 281 533 l 699 533 b 774 472 751 533 774 515 l 774 439 b 803 415 774 424 786 415 z "},"э":{"ha":1013,"x_min":0,"x_max":0,"o":"m 711 700 l 288 700 b 56 476 122 700 56 617 l 56 443 b 85 415 56 425 67 415 l 211 415 b 239 439 228 415 239 424 l 239 472 b 314 533 239 515 261 533 l 683 533 b 763 464 733 533 763 508 l 763 424 l 526 424 b 506 403 513 424 506 417 l 506 293 b 526 271 506 279 513 271 l 763 271 l 763 228 b 683 158 763 183 733 158 l 350 158 b 183 183 264 158 253 160 b 132 178 168 189 154 189 l 81 154 b 68 118 60 144 60 132 b 342 -7 119 28 185 -7 l 711 -7 b 950 229 863 -7 950 85 l 950 467 b 711 700 950 611 863 700 z "},"і":{"ha":326,"x_min":0,"x_max":0,"o":"m 69 951 l 69 813 b 90 790 69 799 76 790 l 235 790 b 257 813 249 790 257 799 l 257 951 b 235 972 257 965 249 972 l 90 972 b 69 951 76 972 69 965 z m 69 674 l 69 21 b 90 0 69 7 76 0 l 235 0 b 257 21 249 0 257 7 l 257 674 b 235 694 257 688 249 694 l 90 694 b 69 674 76 694 69 688 z "},"ї":{"ha":326,"x_min":0,"x_max":0,"o":"m -100 781 l 47 781 b 69 803 61 781 69 789 l 69 950 b 47 972 69 964 61 972 l -100 972 b -122 950 -114 972 -122 964 l -122 803 b -100 781 -122 789 -114 781 z m 251 781 l 399 781 b 421 803 413 781 421 789 l 421 950 b 399 972 421 964 413 972 l 251 972 b 229 950 238 972 229 964 l 229 803 b 251 781 229 789 238 781 z m 69 674 l 69 21 b 90 0 69 7 76 0 l 235 0 b 257 21 249 0 257 7 l 257 674 b 235 694 257 688 249 694 l 90 694 b 69 674 76 694 69 688 z "},"ј":{"ha":329,"x_min":0,"x_max":0,"o":"m 93 790 l 238 790 b 260 813 251 790 260 799 l 260 951 b 238 972 260 965 251 972 l 93 972 b 72 951 79 972 72 965 l 72 813 b 93 790 72 799 79 790 z m 18 -251 b 260 -18 171 -251 260 -162 l 260 674 b 238 694 260 688 251 694 l 93 694 b 72 674 79 694 72 688 l 72 3 b -37 -87 72 -60 42 -87 l -117 -87 b -153 -118 -139 -87 -153 -96 l -153 -200 b -118 -243 -153 -229 -140 -240 b 18 -251 -87 -249 -47 -251 z "},"ю":{"ha":1372,"x_min":0,"x_max":0,"o":"m 1071 700 l 636 700 b 397 467 485 700 397 611 l 397 429 l 257 429 l 257 672 b 235 693 257 686 249 693 l 90 693 b 69 672 76 693 69 686 l 69 19 b 90 -1 69 6 76 -1 l 235 -1 b 257 19 249 -1 257 6 l 257 269 l 397 269 l 397 229 b 636 -7 397 85 485 -7 l 1071 -7 b 1310 228 1222 -7 1310 83 l 1310 467 b 1071 700 1310 611 1222 700 z m 1122 229 b 1043 160 1122 185 1093 160 l 664 160 b 585 229 615 160 585 185 l 585 464 b 664 533 585 508 615 533 l 1043 533 b 1122 464 1093 533 1122 508 z "},"я":{"ha":1015,"x_min":0,"x_max":0,"o":"m 228 0 b 250 21 242 0 250 7 l 250 142 b 321 233 250 200 256 233 l 758 233 l 758 21 b 781 0 758 7 767 0 l 925 0 b 946 21 939 0 946 7 l 946 674 b 925 694 946 688 939 694 l 282 694 b 72 492 149 694 72 610 b 158 326 72 439 82 381 b 63 164 79 296 63 231 l 63 21 b 83 0 63 7 69 0 z m 758 528 l 758 394 l 328 394 b 260 458 286 394 260 413 b 325 528 260 508 282 528 z "},"ӣ":{"ha":1122,"x_min":0,"x_max":0,"o":"m 336 804 l 786 804 b 807 825 799 804 807 811 l 807 951 b 786 972 807 965 799 972 l 336 972 b 315 951 322 972 315 965 l 315 825 b 336 804 315 811 322 804 z m 90 694 b 69 674 76 694 69 688 l 69 21 b 90 0 69 7 76 0 l 278 0 b 311 15 292 0 300 6 l 847 501 l 861 501 l 861 21 b 882 0 861 7 868 0 l 1032 0 b 1053 21 1046 0 1053 7 l 1053 674 b 1032 694 1053 688 1046 694 l 844 694 b 811 679 831 694 822 689 l 275 193 l 261 193 l 261 674 b 240 694 261 688 254 694 z "},"ө":{"ha":1038,"x_min":0,"x_max":0,"o":"m 736 700 l 301 700 b 63 465 150 700 63 610 l 63 226 b 301 -7 63 82 150 -7 l 736 -7 b 975 226 888 -7 975 82 l 975 464 b 736 700 975 608 888 700 z m 329 533 l 708 533 b 788 463 757 533 788 508 l 788 431 l 250 431 l 250 463 b 329 533 250 508 281 533 z m 708 160 l 329 160 b 250 229 281 160 250 185 l 250 264 l 788 264 l 788 229 b 708 160 788 185 757 160 z "},"ӭ":{"ha":1013,"x_min":0,"x_max":0,"o":"m 246 781 l 393 781 b 415 803 407 781 415 789 l 415 950 b 393 972 415 964 407 972 l 246 972 b 224 950 232 972 224 964 l 224 803 b 246 781 224 789 232 781 z m 597 781 l 744 781 b 767 803 758 781 767 789 l 767 950 b 744 972 767 964 758 972 l 597 972 b 575 950 583 972 575 964 l 575 803 b 597 781 575 789 583 781 z m 711 700 l 288 700 b 56 476 122 700 56 617 l 56 443 b 85 415 56 425 67 415 l 211 415 b 239 439 228 415 239 424 l 239 472 b 314 533 239 515 261 533 l 683 533 b 763 464 733 533 763 508 l 763 424 l 526 424 b 506 403 513 424 506 417 l 506 293 b 526 271 506 279 513 271 l 763 271 l 763 228 b 683 158 763 183 733 158 l 350 158 b 183 183 264 158 253 160 b 132 178 168 189 154 189 l 81 154 b 68 118 60 144 60 132 b 342 -7 119 28 185 -7 l 711 -7 b 950 229 863 -7 950 85 l 950 467 b 711 700 950 611 863 700 z "},"ӯ":{"ha":1146,"x_min":0,"x_max":0,"o":"m 372 804 l 822 804 b 843 825 835 804 843 811 l 843 951 b 822 972 843 965 835 972 l 372 972 b 351 951 358 972 351 965 l 351 825 b 372 804 351 811 358 804 z m 1076 694 l 913 694 b 876 671 897 694 888 689 l 582 224 l 564 224 l 269 671 b 233 694 258 689 249 694 l 69 694 b 51 671 56 694 42 686 l 463 39 l 289 -228 b 307 -251 279 -243 293 -251 l 472 -251 b 508 -228 488 -251 496 -246 l 668 14 l 675 25 l 678 29 l 1094 671 b 1076 694 1104 686 1090 694 z "},"Δ":{"ha":1190,"x_min":0,"x_max":0,"o":"m 1132 33 l 681 990 b 654 1013 674 1004 667 1013 l 538 1013 b 511 990 525 1013 518 1004 l 58 33 b 74 0 51 18 60 0 l 1115 0 b 1132 33 1129 0 1139 18 z m 317 192 l 596 781 l 871 192 z "},"Ω":{"ha":1351,"x_min":0,"x_max":0,"o":"m 1268 399 l 1268 757 b 1003 1025 1268 940 1163 1025 l 350 1025 b 83 757 190 1025 83 940 l 83 399 b 190 192 83 276 125 229 l 104 192 b 83 171 90 192 83 185 l 83 21 b 104 0 83 7 90 0 l 353 0 b 374 21 367 0 374 7 l 374 194 b 353 215 374 208 367 215 l 349 215 b 275 433 276 215 275 349 l 275 733 b 374 833 275 821 310 833 l 978 833 b 1076 733 1042 833 1076 821 l 1076 433 b 1003 215 1076 349 1075 215 l 999 215 b 978 194 985 215 978 208 l 978 21 b 999 0 978 7 985 0 l 1247 0 b 1268 21 1261 0 1268 7 l 1268 171 b 1247 192 1268 185 1261 192 l 1163 192 b 1268 399 1226 229 1268 276 z "},"μ":{"ha":1051,"x_min":0,"x_max":0,"o":"m 961 694 l 817 694 b 794 674 803 694 794 688 l 794 231 b 719 161 794 186 768 161 l 336 161 b 257 231 288 161 257 186 l 257 674 b 236 694 257 688 250 694 l 90 694 b 69 674 76 694 69 688 l 69 -257 b 90 -278 69 -271 76 -278 l 236 -278 b 257 -257 250 -278 257 -271 l 257 -1 b 308 -6 274 -4 290 -6 l 617 -6 b 782 65 721 -6 746 18 l 794 65 l 794 21 b 814 0 794 7 806 0 l 961 0 b 982 21 975 0 982 7 l 982 674 b 961 694 982 688 975 694 z "},"π":{"ha":1101,"x_min":0,"x_max":0,"o":"m 1025 694 l 75 694 b 56 674 61 694 56 688 l 56 524 b 76 503 56 510 61 503 l 154 503 l 154 21 b 175 0 154 7 161 0 l 325 0 b 346 21 339 0 346 7 l 346 503 l 754 503 l 754 21 b 775 0 754 7 761 0 l 925 0 b 946 21 939 0 946 7 l 946 503 l 1025 503 b 1046 522 1039 503 1046 510 l 1046 674 b 1025 694 1046 686 1039 694 z "},"¹":{"ha":419,"x_min":0,"x_max":0,"o":"m 167 951 l 167 564 b 188 543 167 550 174 543 l 232 543 b 253 564 246 543 253 550 l 253 951 b 232 972 253 965 246 972 l 188 972 b 167 951 174 972 167 965 z "},"²":{"ha":444,"x_min":0,"x_max":0,"o":"m 340 624 l 190 624 l 268 692 b 360 847 317 733 360 776 b 240 972 360 913 322 972 l 206 972 b 83 857 129 972 83 924 l 83 839 b 104 818 83 825 90 818 l 146 818 b 167 839 160 818 167 825 l 167 849 b 218 893 167 878 188 893 b 275 839 253 893 275 874 b 226 761 275 807 250 783 l 106 647 b 86 608 92 635 86 628 l 86 563 b 107 542 86 549 93 542 l 340 542 b 361 563 354 542 361 549 l 361 603 b 340 624 361 617 354 624 z "},"³":{"ha":451,"x_min":0,"x_max":0,"o":"m 301 757 b 360 853 343 778 360 810 b 243 972 360 913 322 972 l 208 972 b 86 857 132 972 86 924 l 86 839 b 107 818 86 825 93 818 l 149 818 b 169 839 163 818 169 825 l 169 849 b 224 893 169 878 190 893 b 278 840 258 893 278 874 b 226 793 278 810 264 793 l 204 793 b 185 772 192 793 185 786 l 185 742 b 204 721 185 728 192 721 l 226 721 b 281 674 267 721 281 704 b 224 621 281 640 261 621 b 167 665 188 621 167 636 l 167 675 b 146 696 167 689 160 696 l 104 696 b 83 675 90 696 83 689 l 83 657 b 208 542 83 590 129 542 l 243 542 b 368 661 331 542 368 601 b 301 757 368 704 346 736 z "},"⁄":{"ha":139,"x_min":0,"x_max":0,"o":"m 289 988 l -272 21 b -258 0 -281 7 -272 0 l -206 0 b -178 21 -192 0 -186 7 l 383 988 b 369 1008 392 1001 383 1008 l 317 1008 b 289 988 303 1008 297 1001 z "},"½":{"ha":1003,"x_min":0,"x_max":0,"o":"m 708 988 l 147 21 b 161 0 139 7 147 0 l 214 0 b 242 21 228 0 233 7 l 803 988 b 789 1008 811 1001 803 1008 l 736 1008 b 708 988 722 1008 717 1001 z m 167 951 l 167 564 b 188 543 167 550 174 543 l 232 543 b 253 564 246 543 253 550 l 253 951 b 232 972 253 965 246 972 l 188 972 b 167 951 174 972 167 965 z m 899 82 l 749 82 l 826 150 b 918 306 875 192 918 235 b 799 431 918 371 881 431 l 764 431 b 642 315 688 431 642 382 l 642 297 b 663 276 642 283 649 276 l 704 276 b 725 297 718 276 725 283 l 725 307 b 776 351 725 336 746 351 b 833 297 811 351 833 332 b 785 219 833 265 808 242 l 664 106 b 644 67 650 93 644 86 l 644 21 b 665 0 644 7 651 0 l 899 0 b 919 21 913 0 919 7 l 919 61 b 899 82 919 75 913 82 z "},"¼":{"ha":1025,"x_min":0,"x_max":0,"o":"m 708 988 l 147 21 b 161 0 139 7 147 0 l 214 0 b 242 21 228 0 233 7 l 803 988 b 789 1008 811 1001 803 1008 l 736 1008 b 708 988 722 1008 717 1001 z m 167 951 l 167 564 b 188 543 167 550 174 543 l 232 543 b 253 564 246 543 253 550 l 253 951 b 232 972 253 965 246 972 l 188 972 b 167 951 174 972 167 965 z m 921 150 l 901 150 l 901 410 b 881 431 901 424 894 431 l 811 431 b 788 415 803 431 793 426 l 649 151 b 642 126 646 146 642 138 l 642 92 b 665 71 642 78 650 71 l 818 71 l 818 21 b 839 0 818 7 825 0 l 881 0 b 901 21 894 0 901 7 l 901 71 l 921 71 b 942 92 935 71 942 78 l 942 129 b 921 150 942 143 935 150 z m 818 153 l 738 153 l 818 315 z "},"¾":{"ha":1057,"x_min":0,"x_max":0,"o":"m 740 988 l 179 21 b 193 0 171 7 179 0 l 246 0 b 274 21 260 0 265 7 l 835 988 b 821 1008 843 1001 835 1008 l 768 1008 b 740 988 754 1008 749 1001 z m 301 757 b 360 853 343 778 360 810 b 243 972 360 913 322 972 l 208 972 b 86 857 132 972 86 924 l 86 839 b 107 818 86 825 93 818 l 149 818 b 169 839 163 818 169 825 l 169 849 b 224 893 169 878 190 893 b 278 840 258 893 278 874 b 226 793 278 810 264 793 l 204 793 b 185 772 192 793 185 786 l 185 742 b 204 721 185 728 192 721 l 226 721 b 281 674 267 721 281 704 b 224 621 281 640 261 621 b 167 665 188 621 167 636 l 167 675 b 146 696 167 689 160 696 l 104 696 b 83 675 90 696 83 689 l 83 657 b 208 542 83 590 129 542 l 243 542 b 368 661 331 542 368 601 b 301 757 368 704 346 736 z m 953 150 l 933 150 l 933 410 b 913 431 933 424 926 431 l 843 431 b 819 415 835 431 825 426 l 681 151 b 674 126 678 146 674 138 l 674 92 b 697 71 674 78 682 71 l 850 71 l 850 21 b 871 0 850 7 857 0 l 913 0 b 933 21 926 0 933 7 l 933 71 l 953 71 b 974 92 967 71 974 78 l 974 129 b 953 150 974 143 967 150 z m 850 153 l 769 153 l 850 315 z "},"⅛":{"ha":1007,"x_min":0,"x_max":0,"o":"m 708 988 l 147 21 b 161 0 139 7 147 0 l 214 0 b 242 21 228 0 233 7 l 803 988 b 789 1008 811 1001 803 1008 l 736 1008 b 708 988 722 1008 717 1001 z m 167 951 l 167 564 b 188 543 167 550 174 543 l 232 543 b 253 564 246 543 253 550 l 253 951 b 232 972 253 965 246 972 l 188 972 b 167 951 174 972 167 965 z m 867 226 b 913 317 894 244 913 274 b 794 431 913 381 871 431 l 771 431 b 653 317 699 431 653 381 b 699 226 653 274 671 244 b 642 122 671 210 642 182 b 769 0 642 50 685 0 l 796 0 b 924 122 881 0 924 50 b 867 226 924 182 894 210 z m 786 258 l 779 258 b 733 307 751 258 733 276 b 779 356 733 338 751 356 l 786 356 b 832 307 814 356 832 338 b 786 258 832 276 814 258 z m 775 78 b 726 131 746 78 726 94 b 775 186 726 165 746 186 l 790 186 b 839 131 819 186 839 165 b 790 78 839 94 819 78 z "},"⅜":{"ha":1039,"x_min":0,"x_max":0,"o":"m 740 988 l 179 21 b 193 0 171 7 179 0 l 246 0 b 274 21 260 0 265 7 l 835 988 b 821 1008 843 1001 835 1008 l 768 1008 b 740 988 754 1008 749 1001 z m 301 757 b 360 853 343 778 360 810 b 243 972 360 913 322 972 l 208 972 b 86 857 132 972 86 924 l 86 839 b 107 818 86 825 93 818 l 149 818 b 169 839 163 818 169 825 l 169 849 b 224 893 169 878 190 893 b 278 840 258 893 278 874 b 226 793 278 810 264 793 l 204 793 b 185 772 192 793 185 786 l 185 742 b 204 721 185 728 192 721 l 226 721 b 281 674 267 721 281 704 b 224 621 281 640 261 621 b 167 665 188 621 167 636 l 167 675 b 146 696 167 689 160 696 l 104 696 b 83 675 90 696 83 689 l 83 657 b 208 542 83 590 129 542 l 243 542 b 368 661 331 542 368 601 b 301 757 368 704 346 736 z m 899 226 b 944 317 926 244 944 274 b 826 431 944 381 903 431 l 803 431 b 685 317 731 431 685 381 b 731 226 685 274 703 244 b 674 122 703 210 674 182 b 801 0 674 50 717 0 l 828 0 b 956 122 913 0 956 50 b 899 226 956 182 926 210 z m 818 258 l 811 258 b 765 307 783 258 765 276 b 811 356 765 338 783 356 l 818 356 b 864 307 846 356 864 338 b 818 258 864 276 846 258 z m 807 78 b 758 131 778 78 758 94 b 807 186 758 165 778 186 l 822 186 b 871 131 851 186 871 165 b 822 78 871 94 851 78 z "},"⅝":{"ha":1039,"x_min":0,"x_max":0,"o":"m 740 988 l 179 21 b 193 0 171 7 179 0 l 246 0 b 274 21 260 0 265 7 l 835 988 b 821 1008 843 1001 835 1008 l 768 1008 b 740 988 754 1008 749 1001 z m 238 824 b 169 799 215 824 188 818 l 169 892 l 332 892 b 353 913 346 892 353 899 l 353 951 b 332 972 353 965 346 972 l 110 972 b 89 951 96 972 89 965 l 89 757 b 110 736 89 743 96 736 l 168 736 b 221 754 181 749 201 754 b 281 682 268 754 281 726 b 224 621 281 640 261 621 b 167 665 188 621 167 636 l 167 675 b 146 696 167 689 160 696 l 104 696 b 83 675 90 696 83 689 l 83 657 b 208 542 83 590 129 542 l 243 542 b 368 682 331 542 368 601 b 238 824 368 769 325 824 z m 899 226 b 944 317 926 244 944 274 b 826 431 944 381 903 431 l 803 431 b 685 317 731 431 685 381 b 731 226 685 274 703 244 b 674 122 703 210 674 182 b 801 0 674 50 717 0 l 828 0 b 956 122 913 0 956 50 b 899 226 956 182 926 210 z m 818 258 l 811 258 b 765 307 783 258 765 276 b 811 356 765 338 783 356 l 818 356 b 864 307 846 356 864 338 b 818 258 864 276 846 258 z m 807 78 b 758 131 778 78 758 94 b 807 186 758 165 778 186 l 822 186 b 871 131 851 186 871 165 b 822 78 871 94 851 78 z "},"⅞":{"ha":1024,"x_min":0,"x_max":0,"o":"m 725 988 l 164 21 b 178 0 156 7 164 0 l 231 0 b 258 21 244 0 250 7 l 819 988 b 806 1008 828 1001 819 1008 l 753 1008 b 725 988 739 1008 733 1001 z m 353 908 l 353 951 b 332 972 353 965 346 972 l 104 972 b 83 951 90 972 83 965 l 83 910 b 104 889 83 896 90 889 l 260 889 l 104 561 b 117 542 100 551 104 542 l 175 542 b 197 561 186 542 193 551 l 347 885 b 353 908 353 896 353 903 z m 883 226 b 929 317 911 244 929 274 b 811 431 929 381 888 431 l 788 431 b 669 317 715 431 669 381 b 715 226 669 274 688 244 b 658 122 688 210 658 182 b 786 0 658 50 701 0 l 813 0 b 940 122 897 0 940 50 b 883 226 940 182 911 210 z m 803 258 l 796 258 b 750 307 768 258 750 276 b 796 356 750 338 768 356 l 803 356 b 849 307 831 356 849 338 b 803 258 849 276 831 258 z m 792 78 b 743 131 763 78 743 94 b 792 186 743 165 763 186 l 807 186 b 856 131 836 186 856 165 b 807 78 856 94 836 78 z "},".":{"ha":289,"x_min":0,"x_max":0,"o":"m 71 0 l 218 0 b 240 22 232 0 240 8 l 240 169 b 218 192 240 183 232 192 l 71 192 b 49 169 57 192 49 183 l 49 22 b 71 0 49 8 57 0 z "},",":{"ha":333,"x_min":0,"x_max":0,"o":"m 263 192 l 142 192 b 121 169 128 192 121 183 l 121 -76 l 57 -76 b 35 -99 43 -76 35 -85 l 35 -211 b 57 -233 35 -225 43 -233 l 231 -233 b 285 -179 265 -233 285 -214 l 285 169 b 263 192 285 183 276 192 z "},":":{"ha":289,"x_min":0,"x_max":0,"o":"m 71 503 l 218 503 b 240 525 232 503 240 511 l 240 672 b 218 694 240 686 232 694 l 71 694 b 49 672 57 694 49 686 l 49 525 b 71 503 49 511 57 503 z m 71 0 l 218 0 b 240 22 232 0 240 8 l 240 169 b 218 192 240 183 232 192 l 71 192 b 49 169 57 192 49 183 l 49 22 b 71 0 49 8 57 0 z "},";":{"ha":363,"x_min":0,"x_max":0,"o":"m 144 503 l 292 503 b 314 525 306 503 314 511 l 314 672 b 292 694 314 686 306 694 l 144 694 b 122 672 131 694 122 686 l 122 525 b 144 503 122 511 131 503 z m 276 192 l 156 192 b 135 169 142 192 135 183 l 135 -76 l 71 -76 b 49 -99 57 -76 49 -85 l 49 -211 b 71 -233 49 -225 57 -233 l 244 -233 b 299 -179 279 -233 299 -214 l 299 169 b 276 192 299 183 290 192 z "},"…":{"ha":978,"x_min":0,"x_max":0,"o":"m 71 0 l 218 0 b 240 22 232 0 240 8 l 240 169 b 218 192 240 183 232 192 l 71 192 b 49 169 57 192 49 183 l 49 22 b 71 0 49 8 57 0 z m 417 0 l 564 0 b 586 22 578 0 586 8 l 586 169 b 564 192 586 183 578 192 l 417 192 b 394 169 403 192 394 183 l 394 22 b 417 0 394 8 403 0 z m 760 0 l 908 0 b 929 22 922 0 929 8 l 929 169 b 908 192 929 183 922 192 l 760 192 b 739 169 746 192 739 183 l 739 22 b 760 0 739 8 746 0 z "},"!":{"ha":372,"x_min":0,"x_max":0,"o":"m 111 308 l 261 308 b 282 329 275 308 282 315 l 282 950 b 261 972 282 964 275 972 l 111 972 b 90 950 97 972 90 964 l 90 329 b 111 308 90 315 97 308 z m 113 0 l 260 0 b 282 22 274 0 282 8 l 282 169 b 260 192 282 183 274 192 l 113 192 b 90 169 99 192 90 183 l 90 22 b 113 0 90 8 99 0 z "},"¡":{"ha":372,"x_min":0,"x_max":0,"o":"m 260 694 l 113 694 b 90 672 99 694 90 686 l 90 525 b 113 503 90 511 99 503 l 260 503 b 282 525 274 503 282 511 l 282 672 b 260 694 282 686 274 694 z m 261 388 l 111 388 b 90 365 97 388 90 379 l 90 -256 b 111 -278 90 -269 97 -278 l 261 -278 b 282 -256 275 -278 282 -269 l 282 365 b 261 388 282 379 275 388 z "},"?":{"ha":1217,"x_min":0,"x_max":0,"o":"m 493 308 l 643 308 b 665 331 657 308 665 317 l 665 378 b 742 446 665 422 693 446 l 890 446 b 1154 703 1069 446 1154 497 b 890 978 1154 908 1069 978 l 363 978 b 63 718 153 978 63 892 l 63 690 b 85 668 63 675 71 668 l 232 668 b 254 690 246 668 254 675 b 363 806 254 782 292 806 l 869 806 b 963 714 951 806 963 771 b 869 611 963 657 951 611 l 674 611 b 472 422 511 611 472 524 l 472 331 b 493 308 472 317 479 308 z m 492 0 l 640 0 b 661 22 654 0 661 8 l 661 169 b 640 192 661 183 654 192 l 492 192 b 471 169 478 192 471 183 l 471 22 b 492 0 471 8 478 0 z "},"¿":{"ha":1217,"x_min":0,"x_max":0,"o":"m 724 697 l 576 697 b 554 676 563 697 554 690 l 554 528 b 576 507 554 514 563 507 l 724 507 b 746 528 738 507 746 514 l 746 676 b 724 697 746 690 738 697 z m 724 390 l 572 390 b 551 367 558 390 551 381 l 551 321 b 475 253 551 276 524 253 l 325 253 b 63 -6 146 253 63 201 b 326 -281 63 -211 147 -281 l 854 -281 b 1154 -21 1064 -281 1154 -194 l 1154 7 b 1132 29 1154 22 1146 29 l 983 29 b 963 7 969 29 963 22 b 854 -108 963 -85 925 -108 l 347 -108 b 254 -15 264 -108 254 -72 b 347 88 254 42 264 88 l 543 88 b 744 275 706 88 744 174 l 744 367 b 724 390 744 381 738 390 z "}}}
